<svg width="432" height="16" viewBox="0 0 432 16" fill="none" xmlns="http://www.w3.org/2000/svg">
<path d="M2.72 10.56C2.68 10.8533 2.66 11.1733 2.66 11.52C2.66 12.1333 2.78 12.6267 3.02 13C3.26 13.36 3.69333 13.54 4.32 13.54C5.56 13.54 6.18 12.88 6.18 11.56V9.52C6.18 8.86667 6.02667 8.38 5.72 8.06C5.42667 7.72667 4.96 7.56 4.32 7.56H3.98V5.82H4.32C4.96 5.82 5.38 5.68 5.58 5.4C5.79333 5.12 5.9 4.60667 5.9 3.86V3.68C5.9 3.29333 5.76 2.96667 5.48 2.7C5.21333 2.42 4.88667 2.28 4.5 2.28C4.11333 2.28 3.78 2.42 3.5 2.7C3.23333 2.96667 3.1 3.29333 3.1 3.68V4.5H1.14V3.92C1.14 3.30667 1.28667 2.74667 1.58 2.24C1.88667 1.72 2.29333 1.31333 2.8 1.02C3.32 0.713332 3.88667 0.559999 4.5 0.559999C5.11333 0.559999 5.67333 0.713332 6.18 1.02C6.7 1.31333 7.10667 1.72 7.4 2.24C7.70667 2.74667 7.86 3.30667 7.86 3.92C7.86 4.64 7.76 5.23333 7.56 5.7C7.36 6.16667 6.96667 6.49333 6.38 6.68C6.92667 6.88 7.35333 7.24667 7.66 7.78C7.98 8.3 8.14 8.88 8.14 9.52V11.56C8.14 12.72 7.8 13.6267 7.12 14.28C6.44 14.92 5.50667 15.24 4.32 15.24C3.14667 15.24 2.24667 14.9267 1.62 14.3C0.993333 13.6733 0.68 12.7667 0.68 11.58C0.68 11.38 0.706667 11.04 0.76 10.56H2.72ZM14.0034 0.559999C14.6168 0.559999 15.1768 0.713332 15.6834 1.02C16.2034 1.31333 16.6101 1.72 16.9034 2.24C17.2101 2.74667 17.3634 3.30667 17.3634 3.92V11.56C17.3634 12.72 17.0234 13.6267 16.3434 14.28C15.6634 14.92 14.7301 15.24 13.5434 15.24C12.3168 15.24 11.3701 14.88 10.7034 14.16C10.0368 13.44 9.70344 12.3467 9.70344 10.88C9.70344 10.4133 9.75677 9.98667 9.86344 9.6C9.98344 9.21333 10.1434 8.81333 10.3434 8.4H12.2234C12.0768 8.70667 11.9434 9.09333 11.8234 9.56C11.7168 10.0133 11.6634 10.4533 11.6634 10.88C11.6634 11.6267 11.7768 12.26 12.0034 12.78C12.2434 13.2867 12.7568 13.54 13.5434 13.54C14.7834 13.54 15.4034 12.88 15.4034 11.56V3.68C15.4034 3.29333 15.2634 2.96667 14.9834 2.7C14.7168 2.42 14.3901 2.28 14.0034 2.28C13.6168 2.28 13.2834 2.42 13.0034 2.7C12.7368 2.96667 12.6034 3.29333 12.6034 3.68V5.04H10.6434V3.92C10.6434 3.30667 10.7901 2.74667 11.0834 2.24C11.3901 1.72 11.7968 1.31333 12.3034 1.02C12.8234 0.713332 13.3901 0.559999 14.0034 0.559999ZM24.0222 6.66C24.8489 6.88667 25.4822 7.35333 25.9222 8.06C26.3755 8.75333 26.6022 9.69333 26.6022 10.88C26.6022 12.3467 26.2689 13.44 25.6022 14.16C24.9355 14.88 23.9889 15.24 22.7622 15.24C21.5355 15.24 20.5889 14.88 19.9222 14.16C19.2555 13.44 18.9222 12.3467 18.9222 10.88C18.9222 9.56 19.1889 8.54667 19.7222 7.84C20.2689 7.12 21.0489 6.69333 22.0622 6.56V4.16C22.0622 3.8 22.0289 3.52667 21.9622 3.34C21.9089 3.15333 21.8089 3.01333 21.6622 2.92C21.5289 2.82667 21.3155 2.74667 21.0222 2.68C20.5955 2.57333 20.2422 2.36667 19.9622 2.06C19.6822 1.75333 19.5422 1.33333 19.5422 0.799999H21.4822C21.4955 0.906666 21.5622 0.993333 21.6822 1.06C21.8022 1.12667 21.9955 1.19333 22.2622 1.26C22.6489 1.35333 22.9822 1.48 23.2622 1.64C23.5955 1.84 23.8022 2.10667 23.8822 2.44C23.9755 2.76 24.0222 3.22667 24.0222 3.84V6.66ZM22.7622 13.54C23.3089 13.54 23.7222 13.4133 24.0022 13.16C24.2822 12.9067 24.4555 12.6 24.5222 12.24C24.6022 11.8667 24.6422 11.4133 24.6422 10.88C24.6422 10.3467 24.6022 9.9 24.5222 9.54C24.4555 9.16667 24.2822 8.85333 24.0022 8.6C23.7222 8.34667 23.3089 8.22 22.7622 8.22C22.2155 8.22 21.8022 8.34667 21.5222 8.6C21.2422 8.85333 21.0622 9.16667 20.9822 9.54C20.9155 9.9 20.8822 10.3467 20.8822 10.88C20.8822 11.4133 20.9155 11.8667 20.9822 12.24C21.0622 12.6 21.2422 12.9067 21.5222 13.16C21.8022 13.4133 22.2155 13.54 22.7622 13.54ZM36.3106 6.72C37.0973 6.96 37.6973 7.42667 38.1106 8.12C38.5373 8.8 38.7506 9.72 38.7506 10.88C38.7506 12.3467 38.4173 13.44 37.7506 14.16C37.084 14.88 36.1373 15.24 34.9106 15.24C33.684 15.24 32.7373 14.88 32.0706 14.16C31.404 13.44 31.0706 12.3467 31.0706 10.88C31.0706 9.54667 31.344 8.52667 31.8906 7.82C32.4506 7.1 33.2373 6.68 34.2506 6.56C34.7706 5.96 35.1306 5.37333 35.3306 4.8C35.544 4.22667 35.6506 3.71333 35.6506 3.26V3.1C35.6506 2.86 35.584 2.66667 35.4506 2.52C35.3173 2.36 35.1373 2.28 34.9106 2.28C34.684 2.28 34.504 2.36 34.3706 2.52C34.2373 2.66667 34.1706 2.85333 34.1706 3.08V3.8H32.3706V3.08C32.3706 2.62667 32.484 2.20667 32.7106 1.82C32.9373 1.43333 33.244 1.12667 33.6306 0.899999C34.0306 0.673332 34.4573 0.559999 34.9106 0.559999C35.364 0.559999 35.784 0.673332 36.1706 0.899999C36.5706 1.12667 36.884 1.44 37.1106 1.84C37.3373 2.22667 37.4506 2.64667 37.4506 3.1V3.26C37.4373 3.94 37.3306 4.54667 37.1306 5.08C36.944 5.6 36.6706 6.14667 36.3106 6.72ZM34.9106 13.54C35.4573 13.54 35.8706 13.4133 36.1506 13.16C36.4306 12.9067 36.604 12.6 36.6706 12.24C36.7506 11.8667 36.7906 11.4133 36.7906 10.88C36.7906 10.3467 36.7506 9.9 36.6706 9.54C36.604 9.16667 36.4306 8.85333 36.1506 8.6C35.8706 8.34667 35.4573 8.22 34.9106 8.22C34.364 8.22 33.9506 8.34667 33.6706 8.6C33.3906 8.85333 33.2106 9.16667 33.1306 9.54C33.064 9.9 33.0306 10.3467 33.0306 10.88C33.0306 11.4133 33.064 11.8667 33.1306 12.24C33.2106 12.6 33.3906 12.9067 33.6706 13.16C33.9506 13.4133 34.364 13.54 34.9106 13.54ZM42.1536 10.56C42.1136 10.8533 42.0936 11.1733 42.0936 11.52C42.0936 12.1333 42.2136 12.6267 42.4536 13C42.6936 13.36 43.1269 13.54 43.7536 13.54C44.9936 13.54 45.6136 12.88 45.6136 11.56V9.52C45.6136 8.86667 45.4603 8.38 45.1536 8.06C44.8603 7.72667 44.3936 7.56 43.7536 7.56H43.4136V5.82H43.7536C44.3936 5.82 44.8136 5.68 45.0136 5.4C45.2269 5.12 45.3336 4.60667 45.3336 3.86V3.68C45.3336 3.29333 45.1936 2.96667 44.9136 2.7C44.6469 2.42 44.3203 2.28 43.9336 2.28C43.5469 2.28 43.2136 2.42 42.9336 2.7C42.6669 2.96667 42.5336 3.29333 42.5336 3.68V4.5H40.5736V3.92C40.5736 3.30667 40.7203 2.74667 41.0136 2.24C41.3203 1.72 41.7269 1.31333 42.2336 1.02C42.7536 0.713332 43.3203 0.559999 43.9336 0.559999C44.5469 0.559999 45.1069 0.713332 45.6136 1.02C46.1336 1.31333 46.5403 1.72 46.8336 2.24C47.1403 2.74667 47.2936 3.30667 47.2936 3.92C47.2936 4.64 47.1936 5.23333 46.9936 5.7C46.7936 6.16667 46.4003 6.49333 45.8136 6.68C46.3603 6.88 46.7869 7.24667 47.0936 7.78C47.4136 8.3 47.5736 8.88 47.5736 9.52V11.56C47.5736 12.72 47.2336 13.6267 46.5536 14.28C45.8736 14.92 44.9403 15.24 43.7536 15.24C42.5803 15.24 41.6803 14.9267 41.0536 14.3C40.4269 13.6733 40.1136 12.7667 40.1136 11.58C40.1136 11.38 40.1403 11.04 40.1936 10.56H42.1536ZM53.437 0.559999C54.0504 0.559999 54.6104 0.713332 55.117 1.02C55.637 1.31333 56.0437 1.72 56.337 2.24C56.6437 2.74667 56.797 3.30667 56.797 3.92V11.56C56.797 12.72 56.457 13.6267 55.777 14.28C55.097 14.92 54.1637 15.24 52.977 15.24C51.7504 15.24 50.8037 14.88 50.137 14.16C49.4704 13.44 49.137 12.3467 49.137 10.88C49.137 10.4133 49.1904 9.98667 49.297 9.6C49.417 9.21333 49.577 8.81333 49.777 8.4H51.657C51.5104 8.70667 51.377 9.09333 51.257 9.56C51.1504 10.0133 51.097 10.4533 51.097 10.88C51.097 11.6267 51.2104 12.26 51.437 12.78C51.677 13.2867 52.1904 13.54 52.977 13.54C54.217 13.54 54.837 12.88 54.837 11.56V3.68C54.837 3.29333 54.697 2.96667 54.417 2.7C54.1504 2.42 53.8237 2.28 53.437 2.28C53.0504 2.28 52.717 2.42 52.437 2.7C52.1704 2.96667 52.037 3.29333 52.037 3.68V5.04H50.077V3.92C50.077 3.30667 50.2237 2.74667 50.517 2.24C50.8237 1.72 51.2304 1.31333 51.737 1.02C52.257 0.713332 52.8237 0.559999 53.437 0.559999ZM58.3558 10.84C58.3958 10 58.5558 9.21333 58.8358 8.48C59.1158 7.74667 59.3891 7.17333 59.6558 6.76C59.9224 6.34667 60.3091 5.78 60.8158 5.06L61.0958 4.68C61.5624 4.08 61.9358 3.48667 62.2158 2.9C62.4958 2.31333 62.6424 1.61333 62.6558 0.799999H64.6158C64.6158 1.50667 64.5091 2.16 64.2958 2.76C64.0824 3.34667 63.8291 3.86667 63.5358 4.32C63.2424 4.76 62.8691 5.26 62.4158 5.82C62.1224 6.18 61.8624 6.52 61.6358 6.84C61.6358 6.84 61.6358 6.85333 61.6358 6.88C61.9291 6.85333 62.1424 6.84 62.2758 6.84C63.5558 6.84 64.5291 7.20667 65.1958 7.94C65.8758 8.66 66.2158 9.75333 66.2158 11.22C66.2158 11.8733 66.1691 12.5933 66.0758 13.38C65.9958 14.1667 65.8558 14.7067 65.6558 15H63.6958V14.96C63.8824 14.68 64.0158 14.1467 64.0958 13.36C64.1891 12.5733 64.2358 11.86 64.2358 11.22C64.2358 10.4333 64.1024 9.79333 63.8358 9.3C63.5824 8.80667 63.0624 8.56 62.2758 8.56C61.5824 8.56 61.0824 8.82667 60.7758 9.36C60.4691 9.88 60.3158 10.5 60.3158 11.22V12.9C60.3158 13.82 60.3624 14.52 60.4558 15H58.4958C58.4024 14.5333 58.3558 13.86 58.3558 12.98V10.84ZM71.5145 11.22C72.5279 11.74 73.3079 12.2933 73.8545 12.88C74.4012 13.4533 74.7612 14.16 74.9345 15H72.9545C72.8345 14.44 72.5145 13.9333 71.9945 13.48C71.4879 13.0133 70.8545 12.6533 70.0945 12.4C69.3479 12.1333 68.5745 12 67.7745 12V10.28C68.0412 10.28 68.2745 10.3067 68.4745 10.36C68.0079 9.73333 67.7745 8.86 67.7745 7.74V4.82C67.7745 3.38 68.0945 2.31333 68.7345 1.62C69.3745 0.913332 70.2812 0.559999 71.4545 0.559999C72.6279 0.559999 73.5345 0.913332 74.1745 1.62C74.8279 2.31333 75.1545 3.38 75.1545 4.82C75.1545 6.26 74.8279 7.33333 74.1745 8.04C73.5345 8.73333 72.6279 9.08 71.4545 9.08C70.6812 9.08 70.0745 8.87333 69.6345 8.46H69.5945C69.5945 8.94 69.6612 9.34 69.7945 9.66C69.9412 9.96667 70.1412 10.2333 70.3945 10.46C70.6612 10.6867 71.0345 10.94 71.5145 11.22ZM71.4545 2.28C70.7745 2.28 70.3145 2.51333 70.0745 2.98C69.8479 3.44667 69.7345 4.06 69.7345 4.82C69.7345 5.76667 69.8479 6.42667 70.0745 6.8C70.3145 7.17333 70.7745 7.36 71.4545 7.36C72.1345 7.36 72.5879 7.13333 72.8145 6.68C73.0545 6.21333 73.1745 5.59333 73.1745 4.82C73.1745 4.06 73.0545 3.44667 72.8145 2.98C72.5879 2.51333 72.1345 2.28 71.4545 2.28ZM76.9198 5.38C76.9198 3.76667 77.2798 2.56 77.9998 1.76C78.7198 0.959999 79.6398 0.559999 80.7598 0.559999C81.8798 0.559999 82.7998 0.959999 83.5198 1.76C84.2398 2.56 84.5998 3.76667 84.5998 5.38V6.34C84.5998 8.5 84.5532 10.2467 84.4598 11.58C84.3665 12.9133 84.1332 14.0533 83.7598 15H81.7998V14.96C82.1732 14.04 82.4065 12.8933 82.4998 11.52C82.5932 10.1333 82.6398 8.52667 82.6398 6.7V5.42C82.6398 4.40667 82.4998 3.63333 82.2198 3.1C81.9398 2.55333 81.4532 2.28 80.7598 2.28C80.0665 2.28 79.5798 2.55333 79.2998 3.1C79.0198 3.63333 78.8798 4.40667 78.8798 5.42V6.7C78.8798 8.52667 78.9265 10.1333 79.0198 11.52C79.1132 12.8933 79.3465 14.04 79.7198 14.96V15H77.7598C77.3865 14.0533 77.1532 12.9133 77.0598 11.58C76.9665 10.2467 76.9198 8.5 76.9198 6.34V5.38ZM88.7236 11.56C88.7236 12.88 89.3436 13.54 90.5836 13.54C91.1303 13.54 91.5436 13.4133 91.8236 13.16C92.1036 12.9067 92.2769 12.6 92.3436 12.24C92.4236 11.8667 92.4636 11.4133 92.4636 10.88C92.4636 10.3867 92.3836 9.80667 92.2236 9.14C92.1036 8.60667 92.0436 8.2 92.0436 7.92C92.0436 7.6 92.0969 7.3 92.2036 7.02L94.0436 7.04C93.9769 7.34667 93.9436 7.58667 93.9436 7.76C93.9436 8.05333 94.0036 8.41333 94.1236 8.84C94.2169 9.18667 94.2903 9.50667 94.3436 9.8C94.3969 10.0933 94.4236 10.4533 94.4236 10.88C94.4236 12.3467 94.0903 13.44 93.4236 14.16C92.7569 14.88 91.8103 15.24 90.5836 15.24C89.3969 15.24 88.4636 14.92 87.7836 14.28C87.1036 13.6267 86.7636 12.72 86.7636 11.56V0.799999H88.7236V11.56ZM101.243 11.56C101.243 12.88 101.863 13.54 103.103 13.54C103.65 13.54 104.063 13.4133 104.343 13.16C104.623 12.9067 104.796 12.6 104.863 12.24C104.943 11.8667 104.983 11.4133 104.983 10.88C104.983 10.3867 104.903 9.80667 104.743 9.14C104.623 8.60667 104.563 8.2 104.563 7.92C104.563 7.6 104.616 7.3 104.723 7.02L106.563 7.04C106.496 7.34667 106.463 7.58667 106.463 7.76C106.463 8.05333 106.523 8.41333 106.643 8.84C106.736 9.18667 106.81 9.50667 106.863 9.8C106.916 10.0933 106.943 10.4533 106.943 10.88C106.943 12.3467 106.61 13.44 105.943 14.16C105.276 14.88 104.33 15.24 103.103 15.24C101.916 15.24 100.983 14.92 100.303 14.28C99.6231 13.6267 99.2831 12.72 99.2831 11.56V0.799999H101.243V11.56ZM114.277 7.04C114.864 7.44 115.324 7.92667 115.657 8.5C116.004 9.06 116.177 9.85333 116.177 10.88C116.177 12.32 115.824 13.4067 115.117 14.14C114.411 14.8733 113.484 15.24 112.337 15.24C111.097 15.24 110.111 14.88 109.377 14.16C108.657 13.4267 108.297 12.3333 108.297 10.88C108.297 10.24 108.457 9.44 108.777 8.48H110.637C110.544 8.77333 110.457 9.16 110.377 9.64C110.297 10.1067 110.257 10.52 110.257 10.88C110.257 11.6533 110.404 12.2933 110.697 12.8C110.991 13.2933 111.537 13.54 112.337 13.54C113.591 13.54 114.217 12.6533 114.217 10.88C114.217 10.1333 114.104 9.54667 113.877 9.12C113.651 8.68 113.317 8.29333 112.877 7.96C112.811 8.18667 112.777 8.50667 112.777 8.92H111.077C111.077 8.02667 111.191 7.37333 111.417 6.96C110.737 6.49333 110.211 6.00667 109.837 5.5C109.464 4.99333 109.277 4.40667 109.277 3.74C109.277 2.75333 109.564 1.98 110.137 1.42C110.724 0.846666 111.464 0.559999 112.357 0.559999C113.251 0.559999 113.984 0.846666 114.557 1.42C115.144 1.98 115.437 2.75333 115.437 3.74C115.437 4.12667 115.371 4.47333 115.237 4.78C115.117 5.08667 114.991 5.32667 114.857 5.5C114.724 5.66 114.497 5.92 114.177 6.28L113.797 6.7L114.277 7.04ZM112.357 2.16C111.944 2.16 111.631 2.30667 111.417 2.6C111.204 2.89333 111.097 3.27333 111.097 3.74C111.097 4.16667 111.177 4.51333 111.337 4.78C111.511 5.04667 111.811 5.32667 112.237 5.62L112.477 5.8L112.877 5.38C113.371 4.88667 113.617 4.34 113.617 3.74C113.617 3.27333 113.511 2.89333 113.297 2.6C113.084 2.30667 112.771 2.16 112.357 2.16ZM117.535 10.84C117.575 10 117.735 9.21333 118.015 8.48C118.295 7.74667 118.569 7.17333 118.835 6.76C119.102 6.34667 119.489 5.78 119.995 5.06L120.275 4.68C120.742 4.08 121.115 3.48667 121.395 2.9C121.675 2.31333 121.822 1.61333 121.835 0.799999H123.795C123.795 1.50667 123.689 2.16 123.475 2.76C123.262 3.34667 123.009 3.86667 122.715 4.32C122.422 4.76 122.049 5.26 121.595 5.82C121.302 6.18 121.042 6.52 120.815 6.84C120.815 6.84 120.815 6.85333 120.815 6.88C121.109 6.85333 121.322 6.84 121.455 6.84C122.735 6.84 123.709 7.20667 124.375 7.94C125.055 8.66 125.395 9.75333 125.395 11.22C125.395 11.8733 125.349 12.5933 125.255 13.38C125.175 14.1667 125.035 14.7067 124.835 15H122.875V14.96C123.062 14.68 123.195 14.1467 123.275 13.36C123.369 12.5733 123.415 11.86 123.415 11.22C123.415 10.4333 123.282 9.79333 123.015 9.3C122.762 8.80667 122.242 8.56 121.455 8.56C120.762 8.56 120.262 8.82667 119.955 9.36C119.649 9.88 119.495 10.5 119.495 11.22V12.9C119.495 13.82 119.542 14.52 119.635 15H117.675C117.582 14.5333 117.535 13.86 117.535 12.98V10.84ZM126.754 0.559999H127.474C127.914 0.559999 128.321 0.646665 128.694 0.819999C129.068 0.993332 129.334 1.22 129.494 1.5C129.654 1.22 129.921 0.993332 130.294 0.819999C130.668 0.646665 131.074 0.559999 131.514 0.559999C132.514 0.559999 133.261 0.853332 133.754 1.44C134.261 2.02667 134.514 2.85333 134.514 3.92V11.56C134.514 12.72 134.174 13.6267 133.494 14.28C132.814 14.92 131.881 15.24 130.694 15.24C129.468 15.24 128.521 14.88 127.854 14.16C127.188 13.44 126.854 12.3467 126.854 10.88C126.854 10.2267 126.981 9.6 127.234 9H129.134C128.921 9.64 128.814 10.2667 128.814 10.88C128.814 11.6267 128.928 12.26 129.154 12.78C129.394 13.2867 129.908 13.54 130.694 13.54C131.934 13.54 132.554 12.88 132.554 11.56V3.44C132.554 3.06667 132.454 2.78 132.254 2.58C132.054 2.38 131.808 2.28 131.514 2.28C131.208 2.28 130.954 2.38 130.754 2.58C130.568 2.78 130.474 3.06667 130.474 3.44V5.6H128.514V3.44C128.514 3.06667 128.414 2.78 128.214 2.58C128.014 2.38 127.768 2.28 127.474 2.28H126.754V0.559999ZM136.266 11.58C136.266 11.38 136.293 11.04 136.346 10.56H138.306C138.266 10.8533 138.246 11.1733 138.246 11.52C138.246 12.1333 138.366 12.6267 138.606 13C138.846 13.36 139.279 13.54 139.906 13.54C141.146 13.54 141.766 12.88 141.766 11.56V5.06C141.459 4.86 140.993 4.76 140.366 4.76C139.926 4.76 139.579 4.86 139.326 5.06C139.086 5.26 138.966 5.55333 138.966 5.94V6.84H137.006V6.12C137.006 5.52 137.153 4.98667 137.446 4.52C137.753 4.05333 138.159 3.69333 138.666 3.44C139.186 3.17333 139.753 3.04 140.366 3.04C140.899 3.04 141.353 3.10667 141.726 3.24H141.766V0.799999H143.726V11.56C143.726 12.72 143.386 13.6267 142.706 14.28C142.026 14.92 141.093 15.24 139.906 15.24C138.733 15.24 137.833 14.9267 137.206 14.3C136.579 13.6733 136.266 12.7667 136.266 11.58ZM151.465 7.04C152.051 7.44 152.511 7.92667 152.845 8.5C153.191 9.06 153.365 9.85333 153.365 10.88C153.365 12.32 153.011 13.4067 152.305 14.14C151.598 14.8733 150.671 15.24 149.525 15.24C148.285 15.24 147.298 14.88 146.565 14.16C145.845 13.4267 145.485 12.3333 145.485 10.88C145.485 10.24 145.645 9.44 145.965 8.48H147.825C147.731 8.77333 147.645 9.16 147.565 9.64C147.485 10.1067 147.445 10.52 147.445 10.88C147.445 11.6533 147.591 12.2933 147.885 12.8C148.178 13.2933 148.725 13.54 149.525 13.54C150.778 13.54 151.405 12.6533 151.405 10.88C151.405 10.1333 151.291 9.54667 151.065 9.12C150.838 8.68 150.505 8.29333 150.065 7.96C149.998 8.18667 149.965 8.50667 149.965 8.92H148.265C148.265 8.02667 148.378 7.37333 148.605 6.96C147.925 6.49333 147.398 6.00667 147.025 5.5C146.651 4.99333 146.465 4.40667 146.465 3.74C146.465 2.75333 146.751 1.98 147.325 1.42C147.911 0.846666 148.651 0.559999 149.545 0.559999C150.438 0.559999 151.171 0.846666 151.745 1.42C152.331 1.98 152.625 2.75333 152.625 3.74C152.625 4.12667 152.558 4.47333 152.425 4.78C152.305 5.08667 152.178 5.32667 152.045 5.5C151.911 5.66 151.685 5.92 151.365 6.28L150.985 6.7L151.465 7.04ZM149.545 2.16C149.131 2.16 148.818 2.30667 148.605 2.6C148.391 2.89333 148.285 3.27333 148.285 3.74C148.285 4.16667 148.365 4.51333 148.525 4.78C148.698 5.04667 148.998 5.32667 149.425 5.62L149.665 5.8L150.065 5.38C150.558 4.88667 150.805 4.34 150.805 3.74C150.805 3.27333 150.698 2.89333 150.485 2.6C150.271 2.30667 149.958 2.16 149.545 2.16ZM154.723 0.559999H155.443C155.883 0.559999 156.29 0.646665 156.663 0.819999C157.036 0.993332 157.303 1.22 157.463 1.5C157.623 1.22 157.89 0.993332 158.263 0.819999C158.636 0.646665 159.043 0.559999 159.483 0.559999C160.483 0.559999 161.23 0.853332 161.723 1.44C162.23 2.02667 162.483 2.85333 162.483 3.92V11.56C162.483 12.72 162.143 13.6267 161.463 14.28C160.783 14.92 159.85 15.24 158.663 15.24C157.436 15.24 156.49 14.88 155.823 14.16C155.156 13.44 154.823 12.3467 154.823 10.88C154.823 10.2267 154.95 9.6 155.203 9H157.103C156.89 9.64 156.783 10.2667 156.783 10.88C156.783 11.6267 156.896 12.26 157.123 12.78C157.363 13.2867 157.876 13.54 158.663 13.54C159.903 13.54 160.523 12.88 160.523 11.56V3.44C160.523 3.06667 160.423 2.78 160.223 2.58C160.023 2.38 159.776 2.28 159.483 2.28C159.176 2.28 158.923 2.38 158.723 2.58C158.536 2.78 158.443 3.06667 158.443 3.44V5.6H156.483V3.44C156.483 3.06667 156.383 2.78 156.183 2.58C155.983 2.38 155.736 2.28 155.443 2.28H154.723V0.559999ZM164.235 10.84C164.275 10 164.435 9.21333 164.715 8.48C164.995 7.74667 165.268 7.17333 165.535 6.76C165.801 6.34667 166.188 5.78 166.695 5.06L166.975 4.68C167.441 4.08 167.815 3.48667 168.095 2.9C168.375 2.31333 168.521 1.61333 168.535 0.799999H170.495C170.495 1.50667 170.388 2.16 170.175 2.76C169.961 3.34667 169.708 3.86667 169.415 4.32C169.121 4.76 168.748 5.26 168.295 5.82C168.001 6.18 167.741 6.52 167.515 6.84C167.515 6.84 167.515 6.85333 167.515 6.88C167.808 6.85333 168.021 6.84 168.155 6.84C169.435 6.84 170.408 7.20667 171.075 7.94C171.755 8.66 172.095 9.75333 172.095 11.22C172.095 11.8733 172.048 12.5933 171.955 13.38C171.875 14.1667 171.735 14.7067 171.535 15H169.575V14.96C169.761 14.68 169.895 14.1467 169.975 13.36C170.068 12.5733 170.115 11.86 170.115 11.22C170.115 10.4333 169.981 9.79333 169.715 9.3C169.461 8.80667 168.941 8.56 168.155 8.56C167.461 8.56 166.961 8.82667 166.655 9.36C166.348 9.88 166.195 10.5 166.195 11.22V12.9C166.195 13.82 166.241 14.52 166.335 15H164.375C164.281 14.5333 164.235 13.86 164.235 12.98V10.84ZM173.853 5.38C173.853 3.76667 174.213 2.56 174.933 1.76C175.653 0.959999 176.573 0.559999 177.693 0.559999C178.813 0.559999 179.733 0.959999 180.453 1.76C181.173 2.56 181.533 3.76667 181.533 5.38V6.34C181.533 8.5 181.487 10.2467 181.393 11.58C181.3 12.9133 181.067 14.0533 180.693 15H178.733V14.96C179.107 14.04 179.34 12.8933 179.433 11.52C179.527 10.1333 179.573 8.52667 179.573 6.7V5.42C179.573 4.40667 179.433 3.63333 179.153 3.1C178.873 2.55333 178.387 2.28 177.693 2.28C177 2.28 176.513 2.55333 176.233 3.1C175.953 3.63333 175.813 4.40667 175.813 5.42V6.7C175.813 8.52667 175.86 10.1333 175.953 11.52C176.047 12.8933 176.28 14.04 176.653 14.96V15H174.693C174.32 14.0533 174.087 12.9133 173.993 11.58C173.9 10.2467 173.853 8.5 173.853 6.34V5.38ZM185.657 11.56C185.657 12.88 186.277 13.54 187.517 13.54C188.064 13.54 188.477 13.4133 188.757 13.16C189.037 12.9067 189.211 12.6 189.277 12.24C189.357 11.8667 189.397 11.4133 189.397 10.88C189.397 10.3867 189.317 9.80667 189.157 9.14C189.037 8.60667 188.977 8.2 188.977 7.92C188.977 7.6 189.031 7.3 189.137 7.02L190.977 7.04C190.911 7.34667 190.877 7.58667 190.877 7.76C190.877 8.05333 190.937 8.41333 191.057 8.84C191.151 9.18667 191.224 9.50667 191.277 9.8C191.331 10.0933 191.357 10.4533 191.357 10.88C191.357 12.3467 191.024 13.44 190.357 14.16C189.691 14.88 188.744 15.24 187.517 15.24C186.331 15.24 185.397 14.92 184.717 14.28C184.037 13.6267 183.697 12.72 183.697 11.56V0.799999H185.657V11.56ZM193.111 3.64C193.111 3.06667 193.245 2.54667 193.511 2.08C193.791 1.61333 194.171 1.24667 194.651 0.979999C195.131 0.699999 195.671 0.559999 196.271 0.559999C196.698 0.559999 197.105 0.646665 197.491 0.819999C197.878 0.979999 198.198 1.20667 198.451 1.5C198.705 1.22 199.025 0.993332 199.411 0.819999C199.798 0.646665 200.205 0.559999 200.631 0.559999C201.231 0.559999 201.771 0.699999 202.251 0.979999C202.731 1.24667 203.105 1.61333 203.371 2.08C203.651 2.54667 203.791 3.06667 203.791 3.64V11.62C203.791 12.5667 203.738 13.28 203.631 13.76C203.538 14.2267 203.358 14.64 203.091 15H201.131V14.96C201.371 14.6267 201.545 14.2 201.651 13.68C201.771 13.1467 201.831 12.58 201.831 11.98V3.4C201.831 3.06667 201.718 2.8 201.491 2.6C201.265 2.38667 200.978 2.28 200.631 2.28C200.285 2.28 199.998 2.38667 199.771 2.6C199.545 2.8 199.431 3.06667 199.431 3.4V12.16C199.431 12.7333 199.291 13.2533 199.011 13.72C198.745 14.1867 198.371 14.56 197.891 14.84C197.411 15.1067 196.871 15.24 196.271 15.24C195.671 15.24 195.131 15.1067 194.651 14.84C194.171 14.56 193.791 14.1867 193.511 13.72C193.245 13.2533 193.111 12.7333 193.111 12.16V3.64ZM195.071 12.4C195.071 12.7333 195.178 13.0067 195.391 13.22C195.605 13.42 195.898 13.52 196.271 13.52C196.645 13.52 196.938 13.42 197.151 13.22C197.365 13.0067 197.471 12.7333 197.471 12.4V3.4C197.471 3.06667 197.358 2.8 197.131 2.6C196.905 2.38667 196.618 2.28 196.271 2.28C195.925 2.28 195.638 2.38667 195.411 2.6C195.185 2.8 195.071 3.06667 195.071 3.4V12.4ZM207.583 10.56C207.543 10.8533 207.523 11.1733 207.523 11.52C207.523 12.1333 207.643 12.6267 207.883 13C208.123 13.36 208.557 13.54 209.183 13.54C210.423 13.54 211.043 12.88 211.043 11.56V9.52C211.043 8.86667 210.89 8.38 210.583 8.06C210.29 7.72667 209.823 7.56 209.183 7.56H208.843V5.82H209.183C209.823 5.82 210.243 5.68 210.443 5.4C210.657 5.12 210.763 4.60667 210.763 3.86V3.68C210.763 3.29333 210.623 2.96667 210.343 2.7C210.077 2.42 209.75 2.28 209.363 2.28C208.977 2.28 208.643 2.42 208.363 2.7C208.097 2.96667 207.963 3.29333 207.963 3.68V4.5H206.003V3.92C206.003 3.30667 206.15 2.74667 206.443 2.24C206.75 1.72 207.157 1.31333 207.663 1.02C208.183 0.713332 208.75 0.559999 209.363 0.559999C209.977 0.559999 210.537 0.713332 211.043 1.02C211.563 1.31333 211.97 1.72 212.263 2.24C212.57 2.74667 212.723 3.30667 212.723 3.92C212.723 4.64 212.623 5.23333 212.423 5.7C212.223 6.16667 211.83 6.49333 211.243 6.68C211.79 6.88 212.217 7.24667 212.523 7.78C212.843 8.3 213.003 8.88 213.003 9.52V11.56C213.003 12.72 212.663 13.6267 211.983 14.28C211.303 14.92 210.37 15.24 209.183 15.24C208.01 15.24 207.11 14.9267 206.483 14.3C205.857 13.6733 205.543 12.7667 205.543 11.58C205.543 11.38 205.57 11.04 205.623 10.56H207.583ZM214.967 5.38C214.967 3.76667 215.327 2.56 216.047 1.76C216.767 0.959999 217.687 0.559999 218.807 0.559999C219.927 0.559999 220.847 0.959999 221.567 1.76C222.287 2.56 222.647 3.76667 222.647 5.38V6.34C222.647 8.5 222.6 10.2467 222.507 11.58C222.413 12.9133 222.18 14.0533 221.807 15H219.847V14.96C220.22 14.04 220.453 12.8933 220.547 11.52C220.64 10.1333 220.687 8.52667 220.687 6.7V5.42C220.687 4.40667 220.547 3.63333 220.267 3.1C219.987 2.55333 219.5 2.28 218.807 2.28C218.113 2.28 217.627 2.55333 217.347 3.1C217.067 3.63333 216.927 4.40667 216.927 5.42V6.7C216.927 8.52667 216.973 10.1333 217.067 11.52C217.16 12.8933 217.393 14.04 217.767 14.96V15H215.807C215.433 14.0533 215.2 12.9133 215.107 11.58C215.013 10.2467 214.967 8.5 214.967 6.34V5.38ZM226.77 11.56C226.77 12.88 227.39 13.54 228.63 13.54C229.177 13.54 229.59 13.4133 229.87 13.16C230.15 12.9067 230.324 12.6 230.39 12.24C230.47 11.8667 230.51 11.4133 230.51 10.88C230.51 10.3867 230.43 9.80667 230.27 9.14C230.15 8.60667 230.09 8.2 230.09 7.92C230.09 7.6 230.144 7.3 230.25 7.02L232.09 7.04C232.024 7.34667 231.99 7.58667 231.99 7.76C231.99 8.05333 232.05 8.41333 232.17 8.84C232.264 9.18667 232.337 9.50667 232.39 9.8C232.444 10.0933 232.47 10.4533 232.47 10.88C232.47 12.3467 232.137 13.44 231.47 14.16C230.804 14.88 229.857 15.24 228.63 15.24C227.444 15.24 226.51 14.92 225.83 14.28C225.15 13.6267 224.81 12.72 224.81 11.56V0.799999H226.77V11.56ZM242.209 6.72C242.996 6.96 243.596 7.42667 244.009 8.12C244.436 8.8 244.649 9.72 244.649 10.88C244.649 12.3467 244.316 13.44 243.649 14.16C242.982 14.88 242.036 15.24 240.809 15.24C239.582 15.24 238.636 14.88 237.969 14.16C237.302 13.44 236.969 12.3467 236.969 10.88C236.969 9.54667 237.242 8.52667 237.789 7.82C238.349 7.1 239.136 6.68 240.149 6.56C240.669 5.96 241.029 5.37333 241.229 4.8C241.442 4.22667 241.549 3.71333 241.549 3.26V3.1C241.549 2.86 241.482 2.66667 241.349 2.52C241.216 2.36 241.036 2.28 240.809 2.28C240.582 2.28 240.402 2.36 240.269 2.52C240.136 2.66667 240.069 2.85333 240.069 3.08V3.8H238.269V3.08C238.269 2.62667 238.382 2.20667 238.609 1.82C238.836 1.43333 239.142 1.12667 239.529 0.899999C239.929 0.673332 240.356 0.559999 240.809 0.559999C241.262 0.559999 241.682 0.673332 242.069 0.899999C242.469 1.12667 242.782 1.44 243.009 1.84C243.236 2.22667 243.349 2.64667 243.349 3.1V3.26C243.336 3.94 243.229 4.54667 243.029 5.08C242.842 5.6 242.569 6.14667 242.209 6.72ZM240.809 13.54C241.356 13.54 241.769 13.4133 242.049 13.16C242.329 12.9067 242.502 12.6 242.569 12.24C242.649 11.8667 242.689 11.4133 242.689 10.88C242.689 10.3467 242.649 9.9 242.569 9.54C242.502 9.16667 242.329 8.85333 242.049 8.6C241.769 8.34667 241.356 8.22 240.809 8.22C240.262 8.22 239.849 8.34667 239.569 8.6C239.289 8.85333 239.109 9.16667 239.029 9.54C238.962 9.9 238.929 10.3467 238.929 10.88C238.929 11.4133 238.962 11.8667 239.029 12.24C239.109 12.6 239.289 12.9067 239.569 13.16C239.849 13.4133 240.262 13.54 240.809 13.54ZM249.772 0.799999C249.919 1.12 250.112 1.38667 250.352 1.6C250.592 1.8 250.899 2.01333 251.272 2.24C251.485 2.37333 251.645 2.48 251.752 2.56C252.179 2.84 252.519 3.13333 252.772 3.44C253.025 3.73333 253.232 4.17333 253.392 4.76C253.565 5.33333 253.652 6.11333 253.652 7.1V11.56C253.652 12.72 253.312 13.6267 252.632 14.28C251.952 14.92 251.019 15.24 249.832 15.24C248.632 15.24 247.692 14.9133 247.012 14.26C246.345 13.6067 246.012 12.68 246.012 11.48C246.012 10.3733 246.272 9.46667 246.792 8.76L248.752 8.8C248.499 9.21333 248.305 9.63333 248.172 10.06C248.039 10.4867 247.972 10.96 247.972 11.48C247.972 12.04 248.085 12.5267 248.312 12.94C248.552 13.34 249.059 13.54 249.832 13.54C251.072 13.54 251.692 12.88 251.692 11.56V6.88C251.692 6.08 251.572 5.43333 251.332 4.94C251.105 4.43333 250.699 4.00667 250.112 3.66C248.712 2.83333 247.945 1.88 247.812 0.799999H249.772ZM259.391 0.559999C260.538 0.559999 261.438 0.886666 262.091 1.54C262.745 2.19333 263.071 3.1 263.071 4.26V11.56C263.071 12.72 262.731 13.6267 262.051 14.28C261.371 14.92 260.438 15.24 259.251 15.24C258.025 15.24 257.078 14.88 256.411 14.16C255.745 13.44 255.411 12.3467 255.411 10.88C255.411 9.42667 255.745 8.34 256.411 7.62C257.078 6.88667 257.991 6.52 259.151 6.52C259.498 6.52 259.845 6.58 260.191 6.7C260.551 6.80667 260.845 6.95333 261.071 7.14H261.111V4.26C261.111 3.72667 261.005 3.26667 260.791 2.88C260.591 2.48 260.125 2.28 259.391 2.28C258.658 2.28 258.185 2.48 257.971 2.88C257.771 3.26667 257.671 3.72667 257.671 4.26V4.6H255.711V4.26C255.711 3.1 256.038 2.19333 256.691 1.54C257.345 0.886666 258.245 0.559999 259.391 0.559999ZM261.111 10.22C261.111 8.9 260.491 8.24 259.251 8.24C258.705 8.24 258.291 8.36667 258.011 8.62C257.731 8.86 257.551 9.16667 257.471 9.54C257.405 9.9 257.371 10.3467 257.371 10.88C257.371 11.4133 257.405 11.8667 257.471 12.24C257.551 12.6 257.731 12.9067 258.011 13.16C258.291 13.4133 258.705 13.54 259.251 13.54C260.491 13.54 261.111 12.88 261.111 11.56V10.22ZM265.24 3.64C265.24 3.06667 265.373 2.54667 265.64 2.08C265.92 1.61333 266.3 1.24667 266.78 0.979999C267.26 0.699999 267.8 0.559999 268.4 0.559999C268.827 0.559999 269.233 0.646665 269.62 0.819999C270.007 0.979999 270.327 1.20667 270.58 1.5C270.833 1.22 271.153 0.993332 271.54 0.819999C271.927 0.646665 272.333 0.559999 272.76 0.559999C273.36 0.559999 273.9 0.699999 274.38 0.979999C274.86 1.24667 275.233 1.61333 275.5 2.08C275.78 2.54667 275.92 3.06667 275.92 3.64V10.26C275.92 11.3667 275.84 12.3467 275.68 13.2C275.533 14.04 275.34 14.64 275.1 15H273.14V14.96C273.367 14.6267 273.56 14.0267 273.72 13.16C273.88 12.28 273.96 11.4333 273.96 10.62V3.4C273.96 3.06667 273.847 2.8 273.62 2.6C273.393 2.38667 273.107 2.28 272.76 2.28C272.413 2.28 272.127 2.38667 271.9 2.6C271.673 2.8 271.56 3.06667 271.56 3.4V8H269.6V3.4C269.6 3.06667 269.487 2.8 269.26 2.6C269.033 2.38667 268.747 2.28 268.4 2.28C268.053 2.28 267.767 2.38667 267.54 2.6C267.313 2.8 267.2 3.06667 267.2 3.4V10.62C267.2 11.4333 267.28 12.28 267.44 13.16C267.6 14.0267 267.793 14.6267 268.02 14.96V15H266.06C265.82 14.64 265.62 14.04 265.46 13.2C265.313 12.3467 265.24 11.3667 265.24 10.26V3.64ZM279.556 10.56C279.516 10.8533 279.496 11.1733 279.496 11.52C279.496 12.1333 279.616 12.6267 279.856 13C280.096 13.36 280.53 13.54 281.156 13.54C282.396 13.54 283.016 12.88 283.016 11.56V6.82H282.976C282.763 7.00667 282.47 7.14667 282.096 7.24C281.723 7.33333 281.383 7.38 281.076 7.38C279.916 7.38 279.03 7.08 278.416 6.48C277.803 5.88 277.496 5.01333 277.496 3.88C277.496 3.44 277.543 2.98 277.636 2.5C277.743 2.02 277.883 1.45333 278.056 0.799999H280.016C279.656 2.04 279.476 3.00667 279.476 3.7C279.476 5.02 280.036 5.68 281.156 5.68C282.396 5.68 283.016 5.02 283.016 3.7V0.799999H284.976V11.56C284.976 12.72 284.636 13.6267 283.956 14.28C283.276 14.92 282.343 15.24 281.156 15.24C279.983 15.24 279.083 14.9267 278.456 14.3C277.83 13.6733 277.516 12.7667 277.516 11.58C277.516 11.38 277.543 11.04 277.596 10.56H279.556ZM291.035 0.559999C291.648 0.559999 292.208 0.713332 292.715 1.02C293.235 1.31333 293.641 1.72 293.935 2.24C294.241 2.74667 294.395 3.30667 294.395 3.92V11.56C294.395 12.72 294.055 13.6267 293.375 14.28C292.695 14.92 291.761 15.24 290.575 15.24C289.348 15.24 288.401 14.88 287.735 14.16C287.068 13.44 286.735 12.3467 286.735 10.88C286.735 10.4133 286.788 9.98667 286.895 9.6C287.015 9.21333 287.175 8.81333 287.375 8.4H289.255C289.108 8.70667 288.975 9.09333 288.855 9.56C288.748 10.0133 288.695 10.4533 288.695 10.88C288.695 11.6267 288.808 12.26 289.035 12.78C289.275 13.2867 289.788 13.54 290.575 13.54C291.815 13.54 292.435 12.88 292.435 11.56V3.68C292.435 3.29333 292.295 2.96667 292.015 2.7C291.748 2.42 291.421 2.28 291.035 2.28C290.648 2.28 290.315 2.42 290.035 2.7C289.768 2.96667 289.635 3.29333 289.635 3.68V5.04H287.675V3.92C287.675 3.30667 287.821 2.74667 288.115 2.24C288.421 1.72 288.828 1.31333 289.335 1.02C289.855 0.713332 290.421 0.559999 291.035 0.559999ZM299.293 0.559999C299.76 0.559999 300.313 0.613332 300.953 0.719999C301.487 0.8 301.9 0.84 302.193 0.84C302.607 0.84 303.047 0.786666 303.513 0.68V2.46C303.047 2.55333 302.613 2.6 302.213 2.6C301.8 2.6 301.347 2.55333 300.853 2.46C300.32 2.38 299.907 2.34 299.613 2.34C299.213 2.34 298.92 2.41333 298.733 2.56C298.547 2.69333 298.427 2.86667 298.373 3.08C298.333 3.28 298.313 3.55333 298.313 3.9V7.14H298.353C298.58 6.95333 298.867 6.80667 299.213 6.7C299.573 6.58 299.927 6.52 300.273 6.52C301.433 6.52 302.347 6.88667 303.013 7.62C303.68 8.34 304.013 9.42667 304.013 10.88C304.013 12.3467 303.68 13.44 303.013 14.16C302.347 14.88 301.4 15.24 300.173 15.24C298.987 15.24 298.053 14.92 297.373 14.28C296.693 13.6267 296.353 12.72 296.353 11.56V4.26C296.353 3.02 296.567 2.09333 296.993 1.48C297.433 0.866665 298.2 0.559999 299.293 0.559999ZM298.313 11.56C298.313 12.88 298.933 13.54 300.173 13.54C300.72 13.54 301.133 13.4133 301.413 13.16C301.693 12.9067 301.867 12.6 301.933 12.24C302.013 11.8667 302.053 11.4133 302.053 10.88C302.053 10.3467 302.013 9.9 301.933 9.54C301.867 9.16667 301.693 8.86 301.413 8.62C301.133 8.36667 300.72 8.24 300.173 8.24C298.933 8.24 298.313 8.9 298.313 10.22V11.56ZM309.765 0.559999C310.378 0.559999 310.938 0.713332 311.445 1.02C311.965 1.31333 312.372 1.72 312.665 2.24C312.972 2.74667 313.125 3.30667 313.125 3.92V11.56C313.125 12.72 312.785 13.6267 312.105 14.28C311.425 14.92 310.492 15.24 309.305 15.24C308.078 15.24 307.132 14.88 306.465 14.16C305.798 13.44 305.465 12.3467 305.465 10.88C305.465 10.4133 305.518 9.98667 305.625 9.6C305.745 9.21333 305.905 8.81333 306.105 8.4H307.985C307.838 8.70667 307.705 9.09333 307.585 9.56C307.478 10.0133 307.425 10.4533 307.425 10.88C307.425 11.6267 307.538 12.26 307.765 12.78C308.005 13.2867 308.518 13.54 309.305 13.54C310.545 13.54 311.165 12.88 311.165 11.56V3.68C311.165 3.29333 311.025 2.96667 310.745 2.7C310.478 2.42 310.152 2.28 309.765 2.28C309.378 2.28 309.045 2.42 308.765 2.7C308.498 2.96667 308.365 3.29333 308.365 3.68V5.04H306.405V3.92C306.405 3.30667 306.552 2.74667 306.845 2.24C307.152 1.72 307.558 1.31333 308.065 1.02C308.585 0.713332 309.152 0.559999 309.765 0.559999ZM319.784 6.66C320.611 6.88667 321.244 7.35333 321.684 8.06C322.137 8.75333 322.364 9.69333 322.364 10.88C322.364 12.3467 322.031 13.44 321.364 14.16C320.697 14.88 319.751 15.24 318.524 15.24C317.297 15.24 316.351 14.88 315.684 14.16C315.017 13.44 314.684 12.3467 314.684 10.88C314.684 9.56 314.951 8.54667 315.484 7.84C316.031 7.12 316.811 6.69333 317.824 6.56V4.16C317.824 3.8 317.791 3.52667 317.724 3.34C317.671 3.15333 317.571 3.01333 317.424 2.92C317.291 2.82667 317.077 2.74667 316.784 2.68C316.357 2.57333 316.004 2.36667 315.724 2.06C315.444 1.75333 315.304 1.33333 315.304 0.799999H317.244C317.257 0.906666 317.324 0.993333 317.444 1.06C317.564 1.12667 317.757 1.19333 318.024 1.26C318.411 1.35333 318.744 1.48 319.024 1.64C319.357 1.84 319.564 2.10667 319.644 2.44C319.737 2.76 319.784 3.22667 319.784 3.84V6.66ZM318.524 13.54C319.071 13.54 319.484 13.4133 319.764 13.16C320.044 12.9067 320.217 12.6 320.284 12.24C320.364 11.8667 320.404 11.4133 320.404 10.88C320.404 10.3467 320.364 9.9 320.284 9.54C320.217 9.16667 320.044 8.85333 319.764 8.6C319.484 8.34667 319.071 8.22 318.524 8.22C317.977 8.22 317.564 8.34667 317.284 8.6C317.004 8.85333 316.824 9.16667 316.744 9.54C316.677 9.9 316.644 10.3467 316.644 10.88C316.644 11.4133 316.677 11.8667 316.744 12.24C316.824 12.6 317.004 12.9067 317.284 13.16C317.564 13.4133 317.977 13.54 318.524 13.54ZM323.727 0.559999H324.447C324.887 0.559999 325.294 0.646665 325.667 0.819999C326.04 0.993332 326.307 1.22 326.467 1.5C326.627 1.22 326.894 0.993332 327.267 0.819999C327.64 0.646665 328.047 0.559999 328.487 0.559999C329.487 0.559999 330.234 0.853332 330.727 1.44C331.234 2.02667 331.487 2.85333 331.487 3.92V11.56C331.487 12.72 331.147 13.6267 330.467 14.28C329.787 14.92 328.854 15.24 327.667 15.24C326.44 15.24 325.494 14.88 324.827 14.16C324.16 13.44 323.827 12.3467 323.827 10.88C323.827 10.2267 323.954 9.6 324.207 9H326.107C325.894 9.64 325.787 10.2667 325.787 10.88C325.787 11.6267 325.9 12.26 326.127 12.78C326.367 13.2867 326.88 13.54 327.667 13.54C328.907 13.54 329.527 12.88 329.527 11.56V3.44C329.527 3.06667 329.427 2.78 329.227 2.58C329.027 2.38 328.78 2.28 328.487 2.28C328.18 2.28 327.927 2.38 327.727 2.58C327.54 2.78 327.447 3.06667 327.447 3.44V5.6H325.487V3.44C325.487 3.06667 325.387 2.78 325.187 2.58C324.987 2.38 324.74 2.28 324.447 2.28H323.727V0.559999ZM333.439 10.28C333.705 10.28 333.939 10.3067 334.139 10.36C333.672 9.73333 333.439 8.86 333.439 7.74V4.82C333.439 3.38 333.759 2.31333 334.399 1.62C335.039 0.913332 335.945 0.559999 337.119 0.559999C338.292 0.559999 339.199 0.913332 339.839 1.62C340.492 2.31333 340.819 3.38 340.819 4.82C340.819 6.03333 340.632 6.92 340.259 7.48H338.299V7.44C338.659 6.89333 338.839 6.02 338.839 4.82C338.839 4.06 338.719 3.44667 338.479 2.98C338.252 2.51333 337.799 2.28 337.119 2.28C336.439 2.28 335.979 2.51333 335.739 2.98C335.512 3.44667 335.399 4.06 335.399 4.82V8.46C335.399 9.16667 335.525 9.70667 335.779 10.08C336.032 10.44 336.499 10.82 337.179 11.22C338.192 11.74 338.972 12.2933 339.519 12.88C340.065 13.4533 340.425 14.16 340.599 15H338.619C338.499 14.44 338.179 13.9333 337.659 13.48C337.152 13.0133 336.519 12.6533 335.759 12.4C335.012 12.1333 334.239 12 333.439 12V10.28ZM342.584 5.38C342.584 3.76667 342.944 2.56 343.664 1.76C344.384 0.959999 345.304 0.559999 346.424 0.559999C347.544 0.559999 348.464 0.959999 349.184 1.76C349.904 2.56 350.264 3.76667 350.264 5.38V6.34C350.264 8.5 350.217 10.2467 350.124 11.58C350.031 12.9133 349.797 14.0533 349.424 15H347.464V14.96C347.837 14.04 348.071 12.8933 348.164 11.52C348.257 10.1333 348.304 8.52667 348.304 6.7V5.42C348.304 4.40667 348.164 3.63333 347.884 3.1C347.604 2.55333 347.117 2.28 346.424 2.28C345.731 2.28 345.244 2.55333 344.964 3.1C344.684 3.63333 344.544 4.40667 344.544 5.42V6.7C344.544 8.52667 344.591 10.1333 344.684 11.52C344.777 12.8933 345.011 14.04 345.384 14.96V15H343.424C343.051 14.0533 342.817 12.9133 342.724 11.58C342.631 10.2467 342.584 8.5 342.584 6.34V5.38ZM356.953 10.56C356.913 10.8533 356.893 11.1733 356.893 11.52C356.893 12.1333 357.013 12.6267 357.253 13C357.493 13.36 357.926 13.54 358.553 13.54C359.793 13.54 360.413 12.88 360.413 11.56V9.52C360.413 8.2 359.793 7.54 358.553 7.54V5.84C359.086 5.84 359.46 5.73333 359.673 5.52C359.9 5.29333 360.02 5.08667 360.033 4.9C360.06 4.71333 360.073 4.36667 360.073 3.86V3.52C360.073 3.13333 359.946 2.68 359.693 2.16C359.44 1.62667 359.026 1.18 358.453 0.819999V0.779999H360.653C361.106 1.1 361.446 1.51333 361.673 2.02C361.913 2.51333 362.033 3.14667 362.033 3.92C362.033 4.65333 361.973 5.23333 361.853 5.66C361.733 6.07333 361.453 6.41333 361.013 6.68C361.48 6.89333 361.82 7.25333 362.033 7.76C362.26 8.26667 362.373 8.85333 362.373 9.52V11.56C362.373 12.72 362.033 13.6267 361.353 14.28C360.673 14.92 359.74 15.24 358.553 15.24C357.38 15.24 356.48 14.9267 355.853 14.3C355.226 13.6733 354.913 12.7667 354.913 11.58C354.913 11.38 354.94 11.04 354.993 10.56H356.953ZM364.127 3.64C364.127 3.06667 364.26 2.54667 364.527 2.08C364.807 1.61333 365.187 1.24667 365.667 0.979999C366.147 0.699999 366.687 0.559999 367.287 0.559999C367.714 0.559999 368.12 0.646665 368.507 0.819999C368.894 0.979999 369.214 1.20667 369.467 1.5C369.72 1.22 370.04 0.993332 370.427 0.819999C370.814 0.646665 371.22 0.559999 371.647 0.559999C372.247 0.559999 372.787 0.699999 373.267 0.979999C373.747 1.24667 374.12 1.61333 374.387 2.08C374.667 2.54667 374.807 3.06667 374.807 3.64V10.26C374.807 11.3667 374.727 12.3467 374.567 13.2C374.42 14.04 374.227 14.64 373.987 15H372.027V14.96C372.254 14.6267 372.447 14.0267 372.607 13.16C372.767 12.28 372.847 11.4333 372.847 10.62V3.4C372.847 3.06667 372.734 2.8 372.507 2.6C372.28 2.38667 371.994 2.28 371.647 2.28C371.3 2.28 371.014 2.38667 370.787 2.6C370.56 2.8 370.447 3.06667 370.447 3.4V8H368.487V3.4C368.487 3.06667 368.374 2.8 368.147 2.6C367.92 2.38667 367.634 2.28 367.287 2.28C366.94 2.28 366.654 2.38667 366.427 2.6C366.2 2.8 366.087 3.06667 366.087 3.4V10.62C366.087 11.4333 366.167 12.28 366.327 13.16C366.487 14.0267 366.68 14.6267 366.907 14.96V15H364.947C364.707 14.64 364.507 14.04 364.347 13.2C364.2 12.3467 364.127 11.3667 364.127 10.26V3.64ZM379.723 0.559999C380.19 0.559999 380.743 0.613332 381.383 0.719999C381.916 0.8 382.33 0.84 382.623 0.84C383.036 0.84 383.476 0.786666 383.943 0.68V2.46C383.476 2.55333 383.043 2.6 382.643 2.6C382.23 2.6 381.776 2.55333 381.283 2.46C380.75 2.38 380.336 2.34 380.043 2.34C379.643 2.34 379.35 2.41333 379.163 2.56C378.976 2.69333 378.856 2.86667 378.803 3.08C378.763 3.28 378.743 3.55333 378.743 3.9V7.14H378.783C379.01 6.95333 379.296 6.80667 379.643 6.7C380.003 6.58 380.356 6.52 380.703 6.52C381.863 6.52 382.776 6.88667 383.443 7.62C384.11 8.34 384.443 9.42667 384.443 10.88C384.443 12.3467 384.11 13.44 383.443 14.16C382.776 14.88 381.83 15.24 380.603 15.24C379.416 15.24 378.483 14.92 377.803 14.28C377.123 13.6267 376.783 12.72 376.783 11.56V4.26C376.783 3.02 376.996 2.09333 377.423 1.48C377.863 0.866665 378.63 0.559999 379.723 0.559999ZM378.743 11.56C378.743 12.88 379.363 13.54 380.603 13.54C381.15 13.54 381.563 13.4133 381.843 13.16C382.123 12.9067 382.296 12.6 382.363 12.24C382.443 11.8667 382.483 11.4133 382.483 10.88C382.483 10.3467 382.443 9.9 382.363 9.54C382.296 9.16667 382.123 8.86 381.843 8.62C381.563 8.36667 381.15 8.24 380.603 8.24C379.363 8.24 378.743 8.9 378.743 10.22V11.56ZM391.875 7.04C392.462 7.44 392.922 7.92667 393.255 8.5C393.602 9.06 393.775 9.85333 393.775 10.88C393.775 12.32 393.422 13.4067 392.715 14.14C392.008 14.8733 391.082 15.24 389.935 15.24C388.695 15.24 387.708 14.88 386.975 14.16C386.255 13.4267 385.895 12.3333 385.895 10.88C385.895 10.24 386.055 9.44 386.375 8.48H388.235C388.142 8.77333 388.055 9.16 387.975 9.64C387.895 10.1067 387.855 10.52 387.855 10.88C387.855 11.6533 388.002 12.2933 388.295 12.8C388.588 13.2933 389.135 13.54 389.935 13.54C391.188 13.54 391.815 12.6533 391.815 10.88C391.815 10.1333 391.702 9.54667 391.475 9.12C391.248 8.68 390.915 8.29333 390.475 7.96C390.408 8.18667 390.375 8.50667 390.375 8.92H388.675C388.675 8.02667 388.788 7.37333 389.015 6.96C388.335 6.49333 387.808 6.00667 387.435 5.5C387.062 4.99333 386.875 4.40667 386.875 3.74C386.875 2.75333 387.162 1.98 387.735 1.42C388.322 0.846666 389.062 0.559999 389.955 0.559999C390.848 0.559999 391.582 0.846666 392.155 1.42C392.742 1.98 393.035 2.75333 393.035 3.74C393.035 4.12667 392.968 4.47333 392.835 4.78C392.715 5.08667 392.588 5.32667 392.455 5.5C392.322 5.66 392.095 5.92 391.775 6.28L391.395 6.7L391.875 7.04ZM389.955 2.16C389.542 2.16 389.228 2.30667 389.015 2.6C388.802 2.89333 388.695 3.27333 388.695 3.74C388.695 4.16667 388.775 4.51333 388.935 4.78C389.108 5.04667 389.408 5.32667 389.835 5.62L390.075 5.8L390.475 5.38C390.968 4.88667 391.215 4.34 391.215 3.74C391.215 3.27333 391.108 2.89333 390.895 2.6C390.682 2.30667 390.368 2.16 389.955 2.16ZM399.433 0.559999C400.046 0.559999 400.606 0.713332 401.113 1.02C401.633 1.31333 402.04 1.72 402.333 2.24C402.64 2.74667 402.793 3.30667 402.793 3.92V11.56C402.793 12.72 402.453 13.6267 401.773 14.28C401.093 14.92 400.16 15.24 398.973 15.24C397.746 15.24 396.8 14.88 396.133 14.16C395.466 13.44 395.133 12.3467 395.133 10.88C395.133 10.4133 395.186 9.98667 395.293 9.6C395.413 9.21333 395.573 8.81333 395.773 8.4H397.653C397.506 8.70667 397.373 9.09333 397.253 9.56C397.146 10.0133 397.093 10.4533 397.093 10.88C397.093 11.6267 397.206 12.26 397.433 12.78C397.673 13.2867 398.186 13.54 398.973 13.54C400.213 13.54 400.833 12.88 400.833 11.56V3.68C400.833 3.29333 400.693 2.96667 400.413 2.7C400.146 2.42 399.82 2.28 399.433 2.28C399.046 2.28 398.713 2.42 398.433 2.7C398.166 2.96667 398.033 3.29333 398.033 3.68V5.04H396.073V3.92C396.073 3.30667 396.22 2.74667 396.513 2.24C396.82 1.72 397.226 1.31333 397.733 1.02C398.253 0.713332 398.82 0.559999 399.433 0.559999ZM407.692 0.559999C408.159 0.559999 408.712 0.613332 409.352 0.719999C409.885 0.8 410.299 0.84 410.592 0.84C411.005 0.84 411.445 0.786666 411.912 0.68V2.46C411.445 2.55333 411.012 2.6 410.612 2.6C410.199 2.6 409.745 2.55333 409.252 2.46C408.719 2.38 408.305 2.34 408.012 2.34C407.612 2.34 407.319 2.41333 407.132 2.56C406.945 2.69333 406.825 2.86667 406.772 3.08C406.732 3.28 406.712 3.55333 406.712 3.9V7.14H406.752C406.979 6.95333 407.265 6.80667 407.612 6.7C407.972 6.58 408.325 6.52 408.672 6.52C409.832 6.52 410.745 6.88667 411.412 7.62C412.079 8.34 412.412 9.42667 412.412 10.88C412.412 12.3467 412.079 13.44 411.412 14.16C410.745 14.88 409.799 15.24 408.572 15.24C407.385 15.24 406.452 14.92 405.772 14.28C405.092 13.6267 404.752 12.72 404.752 11.56V4.26C404.752 3.02 404.965 2.09333 405.392 1.48C405.832 0.866665 406.599 0.559999 407.692 0.559999ZM406.712 11.56C406.712 12.88 407.332 13.54 408.572 13.54C409.119 13.54 409.532 13.4133 409.812 13.16C410.092 12.9067 410.265 12.6 410.332 12.24C410.412 11.8667 410.452 11.4133 410.452 10.88C410.452 10.3467 410.412 9.9 410.332 9.54C410.265 9.16667 410.092 8.86 409.812 8.62C409.532 8.36667 409.119 8.24 408.572 8.24C407.332 8.24 406.712 8.9 406.712 10.22V11.56ZM419.844 7.04C420.43 7.44 420.89 7.92667 421.224 8.5C421.57 9.06 421.744 9.85333 421.744 10.88C421.744 12.32 421.39 13.4067 420.684 14.14C419.977 14.8733 419.05 15.24 417.904 15.24C416.664 15.24 415.677 14.88 414.944 14.16C414.224 13.4267 413.864 12.3333 413.864 10.88C413.864 10.24 414.024 9.44 414.344 8.48H416.204C416.11 8.77333 416.024 9.16 415.944 9.64C415.864 10.1067 415.824 10.52 415.824 10.88C415.824 11.6533 415.97 12.2933 416.264 12.8C416.557 13.2933 417.104 13.54 417.904 13.54C419.157 13.54 419.784 12.6533 419.784 10.88C419.784 10.1333 419.67 9.54667 419.444 9.12C419.217 8.68 418.884 8.29333 418.444 7.96C418.377 8.18667 418.344 8.50667 418.344 8.92H416.644C416.644 8.02667 416.757 7.37333 416.984 6.96C416.304 6.49333 415.777 6.00667 415.404 5.5C415.03 4.99333 414.844 4.40667 414.844 3.74C414.844 2.75333 415.13 1.98 415.704 1.42C416.29 0.846666 417.03 0.559999 417.924 0.559999C418.817 0.559999 419.55 0.846666 420.124 1.42C420.71 1.98 421.004 2.75333 421.004 3.74C421.004 4.12667 420.937 4.47333 420.804 4.78C420.684 5.08667 420.557 5.32667 420.424 5.5C420.29 5.66 420.064 5.92 419.744 6.28L419.364 6.7L419.844 7.04ZM417.924 2.16C417.51 2.16 417.197 2.30667 416.984 2.6C416.77 2.89333 416.664 3.27333 416.664 3.74C416.664 4.16667 416.744 4.51333 416.904 4.78C417.077 5.04667 417.377 5.32667 417.804 5.62L418.044 5.8L418.444 5.38C418.937 4.88667 419.184 4.34 419.184 3.74C419.184 3.27333 419.077 2.89333 418.864 2.6C418.65 2.30667 418.337 2.16 417.924 2.16ZM423.502 5.38C423.502 3.76667 423.862 2.56 424.582 1.76C425.302 0.959999 426.222 0.559999 427.342 0.559999C428.462 0.559999 429.382 0.959999 430.102 1.76C430.822 2.56 431.182 3.76667 431.182 5.38V6.34C431.182 8.5 431.135 10.2467 431.042 11.58C430.949 12.9133 430.715 14.0533 430.342 15H428.382V14.96C428.755 14.04 428.989 12.8933 429.082 11.52C429.175 10.1333 429.222 8.52667 429.222 6.7V5.42C429.222 4.40667 429.082 3.63333 428.802 3.1C428.522 2.55333 428.035 2.28 427.342 2.28C426.649 2.28 426.162 2.55333 425.882 3.1C425.602 3.63333 425.462 4.40667 425.462 5.42V6.7C425.462 8.52667 425.509 10.1333 425.602 11.52C425.695 12.8933 425.929 14.04 426.302 14.96V15H424.342C423.969 14.0533 423.735 12.9133 423.642 11.58C423.549 10.2467 423.502 8.5 423.502 6.34V5.38Z" fill="#4E6FAE"/>
</svg>
