<svg width="344" height="16" viewBox="0 0 344 16" fill="none" xmlns="http://www.w3.org/2000/svg">
<path d="M2.72 10.56C2.68 10.8533 2.66 11.1733 2.66 11.52C2.66 12.1333 2.78 12.6267 3.02 13C3.26 13.36 3.69333 13.54 4.32 13.54C5.56 13.54 6.18 12.88 6.18 11.56V9.52C6.18 8.86667 6.02667 8.38 5.72 8.06C5.42667 7.72667 4.96 7.56 4.32 7.56H3.98V5.82H4.32C4.96 5.82 5.38 5.68 5.58 5.4C5.79333 5.12 5.9 4.60667 5.9 3.86V3.68C5.9 3.29333 5.76 2.96667 5.48 2.7C5.21333 2.42 4.88667 2.28 4.5 2.28C4.11333 2.28 3.78 2.42 3.5 2.7C3.23333 2.96667 3.1 3.29333 3.1 3.68V4.5H1.14V3.92C1.14 3.30667 1.28667 2.74667 1.58 2.24C1.88667 1.72 2.29333 1.31333 2.8 1.02C3.32 0.713332 3.88667 0.559999 4.5 0.559999C5.11333 0.559999 5.67333 0.713332 6.18 1.02C6.7 1.31333 7.10667 1.72 7.4 2.24C7.70667 2.74667 7.86 3.30667 7.86 3.92C7.86 4.64 7.76 5.23333 7.56 5.7C7.36 6.16667 6.96667 6.49333 6.38 6.68C6.92667 6.88 7.35333 7.24667 7.66 7.78C7.98 8.3 8.14 8.88 8.14 9.52V11.56C8.14 12.72 7.8 13.6267 7.12 14.28C6.44 14.92 5.50667 15.24 4.32 15.24C3.14667 15.24 2.24667 14.9267 1.62 14.3C0.993333 13.6733 0.68 12.7667 0.68 11.58C0.68 11.38 0.706667 11.04 0.76 10.56H2.72ZM10.1034 5.38C10.1034 3.76667 10.4634 2.56 11.1834 1.76C11.9034 0.959999 12.8234 0.559999 13.9434 0.559999C15.0634 0.559999 15.9834 0.959999 16.7034 1.76C17.4234 2.56 17.7834 3.76667 17.7834 5.38V6.34C17.7834 8.5 17.7368 10.2467 17.6434 11.58C17.5501 12.9133 17.3168 14.0533 16.9434 15H14.9834V14.96C15.3568 14.04 15.5901 12.8933 15.6834 11.52C15.7768 10.1333 15.8234 8.52667 15.8234 6.7V5.42C15.8234 4.40667 15.6834 3.63333 15.4034 3.1C15.1234 2.55333 14.6368 2.28 13.9434 2.28C13.2501 2.28 12.7634 2.55333 12.4834 3.1C12.2034 3.63333 12.0634 4.40667 12.0634 5.42V6.7C12.0634 8.52667 12.1101 10.1333 12.2034 11.52C12.2968 12.8933 12.5301 14.04 12.9034 14.96V15H10.9434C10.5701 14.0533 10.3368 12.9133 10.2434 11.58C10.1501 10.2467 10.1034 8.5 10.1034 6.34V5.38ZM22.8872 0.559999C23.3539 0.559999 23.9072 0.613332 24.5472 0.719999C25.0805 0.8 25.4939 0.84 25.7872 0.84C26.2005 0.84 26.6405 0.786666 27.1072 0.68V2.46C26.6405 2.55333 26.2072 2.6 25.8072 2.6C25.3939 2.6 24.9405 2.55333 24.4472 2.46C23.9139 2.38 23.5005 2.34 23.2072 2.34C22.8072 2.34 22.5139 2.41333 22.3272 2.56C22.1405 2.69333 22.0205 2.86667 21.9672 3.08C21.9272 3.28 21.9072 3.55333 21.9072 3.9V7.14H21.9472C22.1739 6.95333 22.4605 6.80667 22.8072 6.7C23.1672 6.58 23.5205 6.52 23.8672 6.52C25.0272 6.52 25.9405 6.88667 26.6072 7.62C27.2739 8.34 27.6072 9.42667 27.6072 10.88C27.6072 12.3467 27.2739 13.44 26.6072 14.16C25.9405 14.88 24.9939 15.24 23.7672 15.24C22.5805 15.24 21.6472 14.92 20.9672 14.28C20.2872 13.6267 19.9472 12.72 19.9472 11.56V4.26C19.9472 3.02 20.1605 2.09333 20.5872 1.48C21.0272 0.866665 21.7939 0.559999 22.8872 0.559999ZM21.9072 11.56C21.9072 12.88 22.5272 13.54 23.7672 13.54C24.3139 13.54 24.7272 13.4133 25.0072 13.16C25.2872 12.9067 25.4605 12.6 25.5272 12.24C25.6072 11.8667 25.6472 11.4133 25.6472 10.88C25.6472 10.3467 25.6072 9.9 25.5272 9.54C25.4605 9.16667 25.2872 8.86 25.0072 8.62C24.7272 8.36667 24.3139 8.24 23.7672 8.24C22.5272 8.24 21.9072 8.9 21.9072 10.22V11.56ZM35.9244 0.799999C36.071 1.12 36.2644 1.38667 36.5044 1.6C36.7444 1.8 37.051 2.01333 37.4244 2.24C37.6377 2.37333 37.7977 2.48 37.9044 2.56C38.331 2.84 38.671 3.13333 38.9244 3.44C39.1777 3.73333 39.3844 4.17333 39.5444 4.76C39.7177 5.33333 39.8044 6.11333 39.8044 7.1V11.56C39.8044 12.72 39.4644 13.6267 38.7844 14.28C38.1044 14.92 37.171 15.24 35.9844 15.24C34.7844 15.24 33.8444 14.9133 33.1644 14.26C32.4977 13.6067 32.1644 12.68 32.1644 11.48C32.1644 10.3733 32.4244 9.46667 32.9444 8.76L34.9044 8.8C34.651 9.21333 34.4577 9.63333 34.3244 10.06C34.191 10.4867 34.1244 10.96 34.1244 11.48C34.1244 12.04 34.2377 12.5267 34.4644 12.94C34.7044 13.34 35.211 13.54 35.9844 13.54C37.2244 13.54 37.8444 12.88 37.8444 11.56V6.88C37.8444 6.08 37.7244 5.43333 37.4844 4.94C37.2577 4.43333 36.851 4.00667 36.2644 3.66C34.8644 2.83333 34.0977 1.88 33.9644 0.799999H35.9244ZM41.3636 10.84C41.4036 10 41.5636 9.21333 41.8436 8.48C42.1236 7.74667 42.3969 7.17333 42.6636 6.76C42.9303 6.34667 43.3169 5.78 43.8236 5.06L44.1036 4.68C44.5703 4.08 44.9436 3.48667 45.2236 2.9C45.5036 2.31333 45.6503 1.61333 45.6636 0.799999H47.6236C47.6236 1.50667 47.5169 2.16 47.3036 2.76C47.0903 3.34667 46.8369 3.86667 46.5436 4.32C46.2503 4.76 45.8769 5.26 45.4236 5.82C45.1303 6.18 44.8703 6.52 44.6436 6.84C44.6436 6.84 44.6436 6.85333 44.6436 6.88C44.9369 6.85333 45.1503 6.84 45.2836 6.84C46.5636 6.84 47.5369 7.20667 48.2036 7.94C48.8836 8.66 49.2236 9.75333 49.2236 11.22C49.2236 11.8733 49.1769 12.5933 49.0836 13.38C49.0036 14.1667 48.8636 14.7067 48.6636 15H46.7036V14.96C46.8903 14.68 47.0236 14.1467 47.1036 13.36C47.1969 12.5733 47.2436 11.86 47.2436 11.22C47.2436 10.4333 47.1103 9.79333 46.8436 9.3C46.5903 8.80667 46.0703 8.56 45.2836 8.56C44.5903 8.56 44.0903 8.82667 43.7836 9.36C43.4769 9.88 43.3236 10.5 43.3236 11.22V12.9C43.3236 13.82 43.3703 14.52 43.4636 15H41.5036C41.4103 14.5333 41.3636 13.86 41.3636 12.98V10.84ZM54.3423 0.799999C54.489 1.12 54.6823 1.38667 54.9223 1.6C55.1623 1.8 55.469 2.01333 55.8423 2.24C56.0557 2.37333 56.2157 2.48 56.3223 2.56C56.749 2.84 57.089 3.13333 57.3423 3.44C57.5957 3.73333 57.8023 4.17333 57.9623 4.76C58.1357 5.33333 58.2223 6.11333 58.2223 7.1V11.56C58.2223 12.72 57.8823 13.6267 57.2023 14.28C56.5223 14.92 55.589 15.24 54.4023 15.24C53.2023 15.24 52.2623 14.9133 51.5823 14.26C50.9157 13.6067 50.5823 12.68 50.5823 11.48C50.5823 10.3733 50.8423 9.46667 51.3623 8.76L53.3223 8.8C53.069 9.21333 52.8757 9.63333 52.7423 10.06C52.609 10.4867 52.5423 10.96 52.5423 11.48C52.5423 12.04 52.6557 12.5267 52.8823 12.94C53.1223 13.34 53.629 13.54 54.4023 13.54C55.6423 13.54 56.2623 12.88 56.2623 11.56V6.88C56.2623 6.08 56.1423 5.43333 55.9023 4.94C55.6757 4.43333 55.269 4.00667 54.6823 3.66C53.2823 2.83333 52.5157 1.88 52.3823 0.799999H54.3423ZM63.1216 0.559999C63.5882 0.559999 64.1416 0.613332 64.7816 0.719999C65.3149 0.8 65.7282 0.84 66.0216 0.84C66.4349 0.84 66.8749 0.786666 67.3416 0.68V2.46C66.8749 2.55333 66.4416 2.6 66.0416 2.6C65.6282 2.6 65.1749 2.55333 64.6816 2.46C64.1482 2.38 63.7349 2.34 63.4416 2.34C63.0416 2.34 62.7482 2.41333 62.5616 2.56C62.3749 2.69333 62.2549 2.86667 62.2016 3.08C62.1616 3.28 62.1416 3.55333 62.1416 3.9V7.14H62.1816C62.4082 6.95333 62.6949 6.80667 63.0416 6.7C63.4016 6.58 63.7549 6.52 64.1016 6.52C65.2616 6.52 66.1749 6.88667 66.8416 7.62C67.5082 8.34 67.8416 9.42667 67.8416 10.88C67.8416 12.3467 67.5082 13.44 66.8416 14.16C66.1749 14.88 65.2282 15.24 64.0016 15.24C62.8149 15.24 61.8816 14.92 61.2016 14.28C60.5216 13.6267 60.1816 12.72 60.1816 11.56V4.26C60.1816 3.02 60.3949 2.09333 60.8216 1.48C61.2616 0.866665 62.0282 0.559999 63.1216 0.559999ZM62.1416 11.56C62.1416 12.88 62.7616 13.54 64.0016 13.54C64.5482 13.54 64.9616 13.4133 65.2416 13.16C65.5216 12.9067 65.6949 12.6 65.7616 12.24C65.8416 11.8667 65.8816 11.4133 65.8816 10.88C65.8816 10.3467 65.8416 9.9 65.7616 9.54C65.6949 9.16667 65.5216 8.86 65.2416 8.62C64.9616 8.36667 64.5482 8.24 64.0016 8.24C62.7616 8.24 62.1416 8.9 62.1416 10.22V11.56ZM76.3388 11.22C77.3521 11.74 78.1321 12.2933 78.6788 12.88C79.2254 13.4533 79.5854 14.16 79.7588 15H77.7788C77.6588 14.44 77.3388 13.9333 76.8188 13.48C76.3121 13.0133 75.6788 12.6533 74.9188 12.4C74.1721 12.1333 73.3988 12 72.5988 12V10.28C72.8654 10.28 73.0988 10.3067 73.2988 10.36C72.8321 9.73333 72.5988 8.86 72.5988 7.74V4.82C72.5988 3.38 72.9188 2.31333 73.5588 1.62C74.1988 0.913332 75.1054 0.559999 76.2788 0.559999C77.4521 0.559999 78.3588 0.913332 78.9988 1.62C79.6521 2.31333 79.9788 3.38 79.9788 4.82C79.9788 6.26 79.6521 7.33333 78.9988 8.04C78.3588 8.73333 77.4521 9.08 76.2788 9.08C75.5054 9.08 74.8988 8.87333 74.4588 8.46H74.4188C74.4188 8.94 74.4854 9.34 74.6188 9.66C74.7654 9.96667 74.9654 10.2333 75.2188 10.46C75.4854 10.6867 75.8588 10.94 76.3388 11.22ZM76.2788 2.28C75.5988 2.28 75.1388 2.51333 74.8988 2.98C74.6721 3.44667 74.5588 4.06 74.5588 4.82C74.5588 5.76667 74.6721 6.42667 74.8988 6.8C75.1388 7.17333 75.5988 7.36 76.2788 7.36C76.9588 7.36 77.4121 7.13333 77.6388 6.68C77.8788 6.21333 77.9988 5.59333 77.9988 4.82C77.9988 4.06 77.8788 3.44667 77.6388 2.98C77.4121 2.51333 76.9588 2.28 76.2788 2.28ZM85.1041 0.799999C85.2507 1.12 85.4441 1.38667 85.6841 1.6C85.9241 1.8 86.2307 2.01333 86.6041 2.24C86.8174 2.37333 86.9774 2.48 87.0841 2.56C87.5107 2.84 87.8507 3.13333 88.1041 3.44C88.3574 3.73333 88.5641 4.17333 88.7241 4.76C88.8974 5.33333 88.9841 6.11333 88.9841 7.1V11.56C88.9841 12.72 88.6441 13.6267 87.9641 14.28C87.2841 14.92 86.3507 15.24 85.1641 15.24C83.9641 15.24 83.0241 14.9133 82.3441 14.26C81.6774 13.6067 81.3441 12.68 81.3441 11.48C81.3441 10.3733 81.6041 9.46667 82.1241 8.76L84.0841 8.8C83.8307 9.21333 83.6374 9.63333 83.5041 10.06C83.3707 10.4867 83.3041 10.96 83.3041 11.48C83.3041 12.04 83.4174 12.5267 83.6441 12.94C83.8841 13.34 84.3907 13.54 85.1641 13.54C86.4041 13.54 87.0241 12.88 87.0241 11.56V6.88C87.0241 6.08 86.9041 5.43333 86.6641 4.94C86.4374 4.43333 86.0307 4.00667 85.4441 3.66C84.0441 2.83333 83.2774 1.88 83.1441 0.799999H85.1041ZM93.6488 10.84C93.6888 10 93.8488 9.21333 94.1288 8.48C94.4088 7.74667 94.6821 7.17333 94.9488 6.76C95.2154 6.34667 95.6021 5.78 96.1088 5.06L96.3888 4.68C96.8554 4.08 97.2288 3.48667 97.5088 2.9C97.7888 2.31333 97.9354 1.61333 97.9488 0.799999H99.9088C99.9088 1.50667 99.8021 2.16 99.5888 2.76C99.3754 3.34667 99.1221 3.86667 98.8288 4.32C98.5354 4.76 98.1621 5.26 97.7088 5.82C97.4154 6.18 97.1554 6.52 96.9288 6.84C96.9288 6.84 96.9288 6.85333 96.9288 6.88C97.2221 6.85333 97.4354 6.84 97.5688 6.84C98.8488 6.84 99.8221 7.20667 100.489 7.94C101.169 8.66 101.509 9.75333 101.509 11.22C101.509 11.8733 101.462 12.5933 101.369 13.38C101.289 14.1667 101.149 14.7067 100.949 15H98.9888V14.96C99.1754 14.68 99.3088 14.1467 99.3888 13.36C99.4821 12.5733 99.5288 11.86 99.5288 11.22C99.5288 10.4333 99.3954 9.79333 99.1288 9.3C98.8754 8.80667 98.3554 8.56 97.5688 8.56C96.8754 8.56 96.3754 8.82667 96.0688 9.36C95.7621 9.88 95.6087 10.5 95.6087 11.22V12.9C95.6087 13.82 95.6554 14.52 95.7488 15H93.7888C93.6954 14.5333 93.6488 13.86 93.6488 12.98V10.84ZM106.628 0.799999C106.774 1.12 106.968 1.38667 107.208 1.6C107.448 1.8 107.754 2.01333 108.128 2.24C108.341 2.37333 108.501 2.48 108.608 2.56C109.034 2.84 109.374 3.13333 109.628 3.44C109.881 3.73333 110.088 4.17333 110.248 4.76C110.421 5.33333 110.508 6.11333 110.508 7.1V11.56C110.508 12.72 110.168 13.6267 109.488 14.28C108.808 14.92 107.874 15.24 106.688 15.24C105.488 15.24 104.548 14.9133 103.868 14.26C103.201 13.6067 102.868 12.68 102.868 11.48C102.868 10.3733 103.128 9.46667 103.648 8.76L105.608 8.8C105.354 9.21333 105.161 9.63333 105.028 10.06C104.894 10.4867 104.827 10.96 104.827 11.48C104.827 12.04 104.941 12.5267 105.168 12.94C105.408 13.34 105.914 13.54 106.688 13.54C107.928 13.54 108.548 12.88 108.548 11.56V6.88C108.548 6.08 108.428 5.43333 108.188 4.94C107.961 4.43333 107.554 4.00667 106.968 3.66C105.568 2.83333 104.801 1.88 104.668 0.799999H106.628ZM114.427 11.56C114.427 12.88 115.047 13.54 116.287 13.54C116.833 13.54 117.247 13.4133 117.527 13.16C117.807 12.9067 117.98 12.6 118.047 12.24C118.127 11.8667 118.167 11.4133 118.167 10.88C118.167 10.3867 118.087 9.80667 117.927 9.14C117.807 8.60667 117.747 8.2 117.747 7.92C117.747 7.6 117.8 7.3 117.907 7.02L119.747 7.04C119.68 7.34667 119.647 7.58667 119.647 7.76C119.647 8.05333 119.707 8.41333 119.827 8.84C119.92 9.18667 119.993 9.50667 120.047 9.8C120.1 10.0933 120.127 10.4533 120.127 10.88C120.127 12.3467 119.793 13.44 119.127 14.16C118.46 14.88 117.513 15.24 116.287 15.24C115.1 15.24 114.167 14.92 113.487 14.28C112.807 13.6267 112.467 12.72 112.467 11.56V0.799999H114.427V11.56ZM128.346 0.799999C128.493 1.12 128.686 1.38667 128.926 1.6C129.166 1.8 129.473 2.01333 129.846 2.24C130.06 2.37333 130.22 2.48 130.326 2.56C130.753 2.84 131.093 3.13333 131.346 3.44C131.6 3.73333 131.806 4.17333 131.966 4.76C132.14 5.33333 132.226 6.11333 132.226 7.1V11.56C132.226 12.72 131.886 13.6267 131.206 14.28C130.526 14.92 129.593 15.24 128.406 15.24C127.206 15.24 126.266 14.9133 125.586 14.26C124.92 13.6067 124.586 12.68 124.586 11.48C124.586 10.3733 124.846 9.46667 125.366 8.76L127.326 8.8C127.073 9.21333 126.88 9.63333 126.746 10.06C126.613 10.4867 126.546 10.96 126.546 11.48C126.546 12.04 126.66 12.5267 126.886 12.94C127.126 13.34 127.633 13.54 128.406 13.54C129.646 13.54 130.266 12.88 130.266 11.56V6.88C130.266 6.08 130.146 5.43333 129.906 4.94C129.68 4.43333 129.273 4.00667 128.686 3.66C127.286 2.83333 126.52 1.88 126.386 0.799999H128.346ZM135.605 10.56C135.565 10.8533 135.545 11.1733 135.545 11.52C135.545 12.1333 135.665 12.6267 135.905 13C136.145 13.36 136.579 13.54 137.205 13.54C138.445 13.54 139.065 12.88 139.065 11.56V9.52C139.065 8.2 138.445 7.54 137.205 7.54V5.84C137.739 5.84 138.112 5.73333 138.325 5.52C138.552 5.29333 138.672 5.08667 138.685 4.9C138.712 4.71333 138.725 4.36667 138.725 3.86V3.52C138.725 3.13333 138.599 2.68 138.345 2.16C138.092 1.62667 137.679 1.18 137.105 0.819999V0.779999H139.305C139.759 1.1 140.099 1.51333 140.325 2.02C140.565 2.51333 140.685 3.14667 140.685 3.92C140.685 4.65333 140.625 5.23333 140.505 5.66C140.385 6.07333 140.105 6.41333 139.665 6.68C140.132 6.89333 140.472 7.25333 140.685 7.76C140.912 8.26667 141.025 8.85333 141.025 9.52V11.56C141.025 12.72 140.685 13.6267 140.005 14.28C139.325 14.92 138.392 15.24 137.205 15.24C136.032 15.24 135.132 14.9267 134.505 14.3C133.879 13.6733 133.565 12.7667 133.565 11.58C133.565 11.38 133.592 11.04 133.645 10.56H135.605ZM146.679 0.559999C147.293 0.559999 147.853 0.713332 148.359 1.02C148.879 1.31333 149.286 1.72 149.579 2.24C149.886 2.74667 150.039 3.30667 150.039 3.92V11.56C150.039 12.72 149.699 13.6267 149.019 14.28C148.339 14.92 147.406 15.24 146.219 15.24C144.993 15.24 144.046 14.88 143.379 14.16C142.713 13.44 142.379 12.3467 142.379 10.88C142.379 10.4133 142.433 9.98667 142.539 9.6C142.659 9.21333 142.819 8.81333 143.019 8.4H144.899C144.753 8.70667 144.619 9.09333 144.499 9.56C144.393 10.0133 144.339 10.4533 144.339 10.88C144.339 11.6267 144.453 12.26 144.679 12.78C144.919 13.2867 145.433 13.54 146.219 13.54C147.459 13.54 148.079 12.88 148.079 11.56V3.68C148.079 3.29333 147.939 2.96667 147.659 2.7C147.393 2.42 147.066 2.28 146.679 2.28C146.293 2.28 145.959 2.42 145.679 2.7C145.413 2.96667 145.279 3.29333 145.279 3.68V5.04H143.319V3.92C143.319 3.30667 143.466 2.74667 143.759 2.24C144.066 1.72 144.473 1.31333 144.979 1.02C145.499 0.713332 146.066 0.559999 146.679 0.559999ZM151.998 3.64C151.998 3.06667 152.131 2.54667 152.398 2.08C152.678 1.61333 153.058 1.24667 153.538 0.979999C154.018 0.699999 154.558 0.559999 155.158 0.559999C155.585 0.559999 155.991 0.646665 156.378 0.819999C156.765 0.979999 157.085 1.20667 157.338 1.5C157.591 1.22 157.911 0.993332 158.298 0.819999C158.685 0.646665 159.091 0.559999 159.518 0.559999C160.118 0.559999 160.658 0.699999 161.138 0.979999C161.618 1.24667 161.991 1.61333 162.258 2.08C162.538 2.54667 162.678 3.06667 162.678 3.64V11.62C162.678 12.5667 162.625 13.28 162.518 13.76C162.425 14.2267 162.245 14.64 161.978 15H160.018V14.96C160.258 14.6267 160.431 14.2 160.538 13.68C160.658 13.1467 160.718 12.58 160.718 11.98V3.4C160.718 3.06667 160.605 2.8 160.378 2.6C160.151 2.38667 159.865 2.28 159.518 2.28C159.171 2.28 158.885 2.38667 158.658 2.6C158.431 2.8 158.318 3.06667 158.318 3.4V12.16C158.318 12.7333 158.178 13.2533 157.898 13.72C157.631 14.1867 157.258 14.56 156.778 14.84C156.298 15.1067 155.758 15.24 155.158 15.24C154.558 15.24 154.018 15.1067 153.538 14.84C153.058 14.56 152.678 14.1867 152.398 13.72C152.131 13.2533 151.998 12.7333 151.998 12.16V3.64ZM153.958 12.4C153.958 12.7333 154.065 13.0067 154.278 13.22C154.491 13.42 154.785 13.52 155.158 13.52C155.531 13.52 155.825 13.42 156.038 13.22C156.251 13.0067 156.358 12.7333 156.358 12.4V3.4C156.358 3.06667 156.245 2.8 156.018 2.6C155.791 2.38667 155.505 2.28 155.158 2.28C154.811 2.28 154.525 2.38667 154.298 2.6C154.071 2.8 153.958 3.06667 153.958 3.4V12.4ZM168.73 0.559999C169.343 0.559999 169.903 0.713332 170.41 1.02C170.93 1.31333 171.337 1.72 171.63 2.24C171.937 2.74667 172.09 3.30667 172.09 3.92V11.56C172.09 12.72 171.75 13.6267 171.07 14.28C170.39 14.92 169.457 15.24 168.27 15.24C167.043 15.24 166.097 14.88 165.43 14.16C164.763 13.44 164.43 12.3467 164.43 10.88C164.43 10.4133 164.483 9.98667 164.59 9.6C164.71 9.21333 164.87 8.81333 165.07 8.4H166.95C166.803 8.70667 166.67 9.09333 166.55 9.56C166.443 10.0133 166.39 10.4533 166.39 10.88C166.39 11.6267 166.503 12.26 166.73 12.78C166.97 13.2867 167.483 13.54 168.27 13.54C169.51 13.54 170.13 12.88 170.13 11.56V3.68C170.13 3.29333 169.99 2.96667 169.71 2.7C169.443 2.42 169.117 2.28 168.73 2.28C168.343 2.28 168.01 2.42 167.73 2.7C167.463 2.96667 167.33 3.29333 167.33 3.68V5.04H165.37V3.92C165.37 3.30667 165.517 2.74667 165.81 2.24C166.117 1.72 166.523 1.31333 167.03 1.02C167.55 0.713332 168.117 0.559999 168.73 0.559999ZM178.749 6.66C179.575 6.88667 180.209 7.35333 180.649 8.06C181.102 8.75333 181.329 9.69333 181.329 10.88C181.329 12.3467 180.995 13.44 180.329 14.16C179.662 14.88 178.715 15.24 177.489 15.24C176.262 15.24 175.315 14.88 174.649 14.16C173.982 13.44 173.649 12.3467 173.649 10.88C173.649 9.56 173.915 8.54667 174.449 7.84C174.995 7.12 175.775 6.69333 176.789 6.56V4.16C176.789 3.8 176.755 3.52667 176.689 3.34C176.635 3.15333 176.535 3.01333 176.389 2.92C176.255 2.82667 176.042 2.74667 175.749 2.68C175.322 2.57333 174.969 2.36667 174.689 2.06C174.409 1.75333 174.269 1.33333 174.269 0.799999H176.209C176.222 0.906666 176.289 0.993333 176.409 1.06C176.529 1.12667 176.722 1.19333 176.989 1.26C177.375 1.35333 177.709 1.48 177.989 1.64C178.322 1.84 178.529 2.10667 178.609 2.44C178.702 2.76 178.749 3.22667 178.749 3.84V6.66ZM177.489 13.54C178.035 13.54 178.449 13.4133 178.729 13.16C179.009 12.9067 179.182 12.6 179.249 12.24C179.329 11.8667 179.369 11.4133 179.369 10.88C179.369 10.3467 179.329 9.9 179.249 9.54C179.182 9.16667 179.009 8.85333 178.729 8.6C178.449 8.34667 178.035 8.22 177.489 8.22C176.942 8.22 176.529 8.34667 176.249 8.6C175.969 8.85333 175.789 9.16667 175.709 9.54C175.642 9.9 175.609 10.3467 175.609 10.88C175.609 11.4133 175.642 11.8667 175.709 12.24C175.789 12.6 175.969 12.9067 176.249 13.16C176.529 13.4133 176.942 13.54 177.489 13.54ZM186.992 0.559999C187.605 0.559999 188.165 0.713332 188.672 1.02C189.192 1.31333 189.598 1.72 189.892 2.24C190.198 2.74667 190.352 3.30667 190.352 3.92V11.56C190.352 12.72 190.012 13.6267 189.332 14.28C188.652 14.92 187.718 15.24 186.532 15.24C185.305 15.24 184.358 14.88 183.692 14.16C183.025 13.44 182.692 12.3467 182.692 10.88C182.692 10.4133 182.745 9.98667 182.852 9.6C182.972 9.21333 183.132 8.81333 183.332 8.4H185.212C185.065 8.70667 184.932 9.09333 184.812 9.56C184.705 10.0133 184.652 10.4533 184.652 10.88C184.652 11.6267 184.765 12.26 184.992 12.78C185.232 13.2867 185.745 13.54 186.532 13.54C187.772 13.54 188.392 12.88 188.392 11.56V3.68C188.392 3.29333 188.252 2.96667 187.972 2.7C187.705 2.42 187.378 2.28 186.992 2.28C186.605 2.28 186.272 2.42 185.992 2.7C185.725 2.96667 185.592 3.29333 185.592 3.68V5.04H183.632V3.92C183.632 3.30667 183.778 2.74667 184.072 2.24C184.378 1.72 184.785 1.31333 185.292 1.02C185.812 0.713332 186.378 0.559999 186.992 0.559999ZM195.25 0.559999C195.717 0.559999 196.27 0.613332 196.91 0.719999C197.444 0.8 197.857 0.84 198.15 0.84C198.564 0.84 199.004 0.786666 199.47 0.68V2.46C199.004 2.55333 198.57 2.6 198.17 2.6C197.757 2.6 197.304 2.55333 196.81 2.46C196.277 2.38 195.864 2.34 195.57 2.34C195.17 2.34 194.877 2.41333 194.69 2.56C194.504 2.69333 194.384 2.86667 194.33 3.08C194.29 3.28 194.27 3.55333 194.27 3.9V7.14H194.31C194.537 6.95333 194.824 6.80667 195.17 6.7C195.53 6.58 195.884 6.52 196.23 6.52C197.39 6.52 198.304 6.88667 198.97 7.62C199.637 8.34 199.97 9.42667 199.97 10.88C199.97 12.3467 199.637 13.44 198.97 14.16C198.304 14.88 197.357 15.24 196.13 15.24C194.944 15.24 194.01 14.92 193.33 14.28C192.65 13.6267 192.31 12.72 192.31 11.56V4.26C192.31 3.02 192.524 2.09333 192.95 1.48C193.39 0.866665 194.157 0.559999 195.25 0.559999ZM194.27 11.56C194.27 12.88 194.89 13.54 196.13 13.54C196.677 13.54 197.09 13.4133 197.37 13.16C197.65 12.9067 197.824 12.6 197.89 12.24C197.97 11.8667 198.01 11.4133 198.01 10.88C198.01 10.3467 197.97 9.9 197.89 9.54C197.824 9.16667 197.65 8.86 197.37 8.62C197.09 8.36667 196.677 8.24 196.13 8.24C194.89 8.24 194.27 8.9 194.27 10.22V11.56ZM206.568 10.56C206.528 10.8533 206.508 11.1733 206.508 11.52C206.508 12.1333 206.628 12.6267 206.868 13C207.108 13.36 207.541 13.54 208.168 13.54C209.408 13.54 210.028 12.88 210.028 11.56V9.52C210.028 8.86667 209.874 8.38 209.568 8.06C209.274 7.72667 208.808 7.56 208.168 7.56H207.828V5.82H208.168C208.808 5.82 209.228 5.68 209.428 5.4C209.641 5.12 209.748 4.60667 209.748 3.86V3.68C209.748 3.29333 209.608 2.96667 209.328 2.7C209.061 2.42 208.734 2.28 208.348 2.28C207.961 2.28 207.628 2.42 207.348 2.7C207.081 2.96667 206.948 3.29333 206.948 3.68V4.5H204.988V3.92C204.988 3.30667 205.134 2.74667 205.428 2.24C205.734 1.72 206.141 1.31333 206.648 1.02C207.168 0.713332 207.734 0.559999 208.348 0.559999C208.961 0.559999 209.521 0.713332 210.028 1.02C210.548 1.31333 210.954 1.72 211.248 2.24C211.554 2.74667 211.708 3.30667 211.708 3.92C211.708 4.64 211.608 5.23333 211.408 5.7C211.208 6.16667 210.814 6.49333 210.228 6.68C210.774 6.88 211.201 7.24667 211.508 7.78C211.828 8.3 211.988 8.88 211.988 9.52V11.56C211.988 12.72 211.648 13.6267 210.968 14.28C210.288 14.92 209.354 15.24 208.168 15.24C206.994 15.24 206.094 14.9267 205.468 14.3C204.841 13.6733 204.528 12.7667 204.528 11.58C204.528 11.38 204.554 11.04 204.608 10.56H206.568ZM217.851 0.559999C218.464 0.559999 219.024 0.713332 219.531 1.02C220.051 1.31333 220.458 1.72 220.751 2.24C221.058 2.74667 221.211 3.30667 221.211 3.92V11.56C221.211 12.72 220.871 13.6267 220.191 14.28C219.511 14.92 218.578 15.24 217.391 15.24C216.164 15.24 215.218 14.88 214.551 14.16C213.884 13.44 213.551 12.3467 213.551 10.88C213.551 10.4133 213.604 9.98667 213.711 9.6C213.831 9.21333 213.991 8.81333 214.191 8.4H216.071C215.924 8.70667 215.791 9.09333 215.671 9.56C215.564 10.0133 215.511 10.4533 215.511 10.88C215.511 11.6267 215.624 12.26 215.851 12.78C216.091 13.2867 216.604 13.54 217.391 13.54C218.631 13.54 219.251 12.88 219.251 11.56V3.68C219.251 3.29333 219.111 2.96667 218.831 2.7C218.564 2.42 218.238 2.28 217.851 2.28C217.464 2.28 217.131 2.42 216.851 2.7C216.584 2.96667 216.451 3.29333 216.451 3.68V5.04H214.491V3.92C214.491 3.30667 214.638 2.74667 214.931 2.24C215.238 1.72 215.644 1.31333 216.151 1.02C216.671 0.713332 217.238 0.559999 217.851 0.559999ZM227.87 6.66C228.697 6.88667 229.33 7.35333 229.77 8.06C230.223 8.75333 230.45 9.69333 230.45 10.88C230.45 12.3467 230.117 13.44 229.45 14.16C228.783 14.88 227.837 15.24 226.61 15.24C225.383 15.24 224.437 14.88 223.77 14.16C223.103 13.44 222.77 12.3467 222.77 10.88C222.77 9.56 223.037 8.54667 223.57 7.84C224.117 7.12 224.897 6.69333 225.91 6.56V4.16C225.91 3.8 225.877 3.52667 225.81 3.34C225.757 3.15333 225.657 3.01333 225.51 2.92C225.377 2.82667 225.163 2.74667 224.87 2.68C224.443 2.57333 224.09 2.36667 223.81 2.06C223.53 1.75333 223.39 1.33333 223.39 0.799999H225.33C225.343 0.906666 225.41 0.993333 225.53 1.06C225.65 1.12667 225.843 1.19333 226.11 1.26C226.497 1.35333 226.83 1.48 227.11 1.64C227.443 1.84 227.65 2.10667 227.73 2.44C227.823 2.76 227.87 3.22667 227.87 3.84V6.66ZM226.61 13.54C227.157 13.54 227.57 13.4133 227.85 13.16C228.13 12.9067 228.303 12.6 228.37 12.24C228.45 11.8667 228.49 11.4133 228.49 10.88C228.49 10.3467 228.45 9.9 228.37 9.54C228.303 9.16667 228.13 8.85333 227.85 8.6C227.57 8.34667 227.157 8.22 226.61 8.22C226.063 8.22 225.65 8.34667 225.37 8.6C225.09 8.85333 224.91 9.16667 224.83 9.54C224.763 9.9 224.73 10.3467 224.73 10.88C224.73 11.4133 224.763 11.8667 224.83 12.24C224.91 12.6 225.09 12.9067 225.37 13.16C225.65 13.4133 226.063 13.54 226.61 13.54ZM235.753 11.22C236.766 11.74 237.546 12.2933 238.093 12.88C238.639 13.4533 238.999 14.16 239.173 15H237.193C237.073 14.44 236.753 13.9333 236.233 13.48C235.726 13.0133 235.093 12.6533 234.333 12.4C233.586 12.1333 232.813 12 232.013 12V10.28C232.279 10.28 232.513 10.3067 232.713 10.36C232.246 9.73333 232.013 8.86 232.013 7.74V4.82C232.013 3.38 232.333 2.31333 232.973 1.62C233.613 0.913332 234.519 0.559999 235.693 0.559999C236.866 0.559999 237.773 0.913332 238.413 1.62C239.066 2.31333 239.393 3.38 239.393 4.82C239.393 6.26 239.066 7.33333 238.413 8.04C237.773 8.73333 236.866 9.08 235.693 9.08C234.919 9.08 234.313 8.87333 233.873 8.46H233.833C233.833 8.94 233.899 9.34 234.033 9.66C234.179 9.96667 234.379 10.2333 234.633 10.46C234.899 10.6867 235.273 10.94 235.753 11.22ZM235.693 2.28C235.013 2.28 234.553 2.51333 234.313 2.98C234.086 3.44667 233.973 4.06 233.973 4.82C233.973 5.76667 234.086 6.42667 234.313 6.8C234.553 7.17333 235.013 7.36 235.693 7.36C236.373 7.36 236.826 7.13333 237.053 6.68C237.293 6.21333 237.413 5.59333 237.413 4.82C237.413 4.06 237.293 3.44667 237.053 2.98C236.826 2.51333 236.373 2.28 235.693 2.28ZM245.058 0.559999C245.671 0.559999 246.231 0.713332 246.738 1.02C247.258 1.31333 247.665 1.72 247.958 2.24C248.265 2.74667 248.418 3.30667 248.418 3.92V11.56C248.418 12.72 248.078 13.6267 247.398 14.28C246.718 14.92 245.785 15.24 244.598 15.24C243.371 15.24 242.425 14.88 241.758 14.16C241.091 13.44 240.758 12.3467 240.758 10.88C240.758 10.4133 240.811 9.98667 240.918 9.6C241.038 9.21333 241.198 8.81333 241.398 8.4H243.278C243.131 8.70667 242.998 9.09333 242.878 9.56C242.771 10.0133 242.718 10.4533 242.718 10.88C242.718 11.6267 242.831 12.26 243.058 12.78C243.298 13.2867 243.811 13.54 244.598 13.54C245.838 13.54 246.458 12.88 246.458 11.56V3.68C246.458 3.29333 246.318 2.96667 246.038 2.7C245.771 2.42 245.445 2.28 245.058 2.28C244.671 2.28 244.338 2.42 244.058 2.7C243.791 2.96667 243.658 3.29333 243.658 3.68V5.04H241.698V3.92C241.698 3.30667 241.845 2.74667 242.138 2.24C242.445 1.72 242.851 1.31333 243.358 1.02C243.878 0.713332 244.445 0.559999 245.058 0.559999ZM252.017 10.56C251.977 10.8533 251.957 11.1733 251.957 11.52C251.957 12.1333 252.077 12.6267 252.317 13C252.557 13.36 252.99 13.54 253.617 13.54C254.857 13.54 255.477 12.88 255.477 11.56V9.52C255.477 8.86667 255.324 8.38 255.017 8.06C254.724 7.72667 254.257 7.56 253.617 7.56H253.277V5.82H253.617C254.257 5.82 254.677 5.68 254.877 5.4C255.09 5.12 255.197 4.60667 255.197 3.86V3.68C255.197 3.29333 255.057 2.96667 254.777 2.7C254.51 2.42 254.184 2.28 253.797 2.28C253.41 2.28 253.077 2.42 252.797 2.7C252.53 2.96667 252.397 3.29333 252.397 3.68V4.5H250.437V3.92C250.437 3.30667 250.584 2.74667 250.877 2.24C251.184 1.72 251.59 1.31333 252.097 1.02C252.617 0.713332 253.184 0.559999 253.797 0.559999C254.41 0.559999 254.97 0.713332 255.477 1.02C255.997 1.31333 256.404 1.72 256.697 2.24C257.004 2.74667 257.157 3.30667 257.157 3.92C257.157 4.64 257.057 5.23333 256.857 5.7C256.657 6.16667 256.264 6.49333 255.677 6.68C256.224 6.88 256.65 7.24667 256.957 7.78C257.277 8.3 257.437 8.88 257.437 9.52V11.56C257.437 12.72 257.097 13.6267 256.417 14.28C255.737 14.92 254.804 15.24 253.617 15.24C252.444 15.24 251.544 14.9267 250.917 14.3C250.29 13.6733 249.977 12.7667 249.977 11.58C249.977 11.38 250.004 11.04 250.057 10.56H252.017ZM263.3 0.559999C263.914 0.559999 264.474 0.713332 264.98 1.02C265.5 1.31333 265.907 1.72 266.2 2.24C266.507 2.74667 266.66 3.30667 266.66 3.92V11.56C266.66 12.72 266.32 13.6267 265.64 14.28C264.96 14.92 264.027 15.24 262.84 15.24C261.614 15.24 260.667 14.88 260 14.16C259.334 13.44 259 12.3467 259 10.88C259 10.4133 259.054 9.98667 259.16 9.6C259.28 9.21333 259.44 8.81333 259.64 8.4H261.52C261.374 8.70667 261.24 9.09333 261.12 9.56C261.014 10.0133 260.96 10.4533 260.96 10.88C260.96 11.6267 261.074 12.26 261.3 12.78C261.54 13.2867 262.054 13.54 262.84 13.54C264.08 13.54 264.7 12.88 264.7 11.56V3.68C264.7 3.29333 264.56 2.96667 264.28 2.7C264.014 2.42 263.687 2.28 263.3 2.28C262.914 2.28 262.58 2.42 262.3 2.7C262.034 2.96667 261.9 3.29333 261.9 3.68V5.04H259.94V3.92C259.94 3.30667 260.087 2.74667 260.38 2.24C260.687 1.72 261.094 1.31333 261.6 1.02C262.12 0.713332 262.687 0.559999 263.3 0.559999ZM268.419 10.28C268.686 10.28 268.919 10.3067 269.119 10.36C268.652 9.73333 268.419 8.86 268.419 7.74V4.82C268.419 3.38 268.739 2.31333 269.379 1.62C270.019 0.913332 270.926 0.559999 272.099 0.559999C273.272 0.559999 274.179 0.913332 274.819 1.62C275.472 2.31333 275.799 3.38 275.799 4.82C275.799 6.03333 275.612 6.92 275.239 7.48H273.279V7.44C273.639 6.89333 273.819 6.02 273.819 4.82C273.819 4.06 273.699 3.44667 273.459 2.98C273.232 2.51333 272.779 2.28 272.099 2.28C271.419 2.28 270.959 2.51333 270.719 2.98C270.492 3.44667 270.379 4.06 270.379 4.82V8.46C270.379 9.16667 270.506 9.70667 270.759 10.08C271.012 10.44 271.479 10.82 272.159 11.22C273.172 11.74 273.952 12.2933 274.499 12.88C275.046 13.4533 275.406 14.16 275.579 15H273.599C273.479 14.44 273.159 13.9333 272.639 13.48C272.132 13.0133 271.499 12.6533 270.739 12.4C269.992 12.1333 269.219 12 268.419 12V10.28ZM277.564 3.64C277.564 3.06667 277.698 2.54667 277.964 2.08C278.244 1.61333 278.624 1.24667 279.104 0.979999C279.584 0.699999 280.124 0.559999 280.724 0.559999C281.151 0.559999 281.558 0.646665 281.944 0.819999C282.331 0.979999 282.651 1.20667 282.904 1.5C283.158 1.22 283.478 0.993332 283.864 0.819999C284.251 0.646665 284.658 0.559999 285.084 0.559999C285.684 0.559999 286.224 0.699999 286.704 0.979999C287.184 1.24667 287.558 1.61333 287.824 2.08C288.104 2.54667 288.244 3.06667 288.244 3.64V10.26C288.244 11.3667 288.164 12.3467 288.004 13.2C287.858 14.04 287.664 14.64 287.424 15H285.464V14.96C285.691 14.6267 285.884 14.0267 286.044 13.16C286.204 12.28 286.284 11.4333 286.284 10.62V3.4C286.284 3.06667 286.171 2.8 285.944 2.6C285.718 2.38667 285.431 2.28 285.084 2.28C284.738 2.28 284.451 2.38667 284.224 2.6C283.998 2.8 283.884 3.06667 283.884 3.4V8H281.924V3.4C281.924 3.06667 281.811 2.8 281.584 2.6C281.358 2.38667 281.071 2.28 280.724 2.28C280.378 2.28 280.091 2.38667 279.864 2.6C279.638 2.8 279.524 3.06667 279.524 3.4V10.62C279.524 11.4333 279.604 12.28 279.764 13.16C279.924 14.0267 280.118 14.6267 280.344 14.96V15H278.384C278.144 14.64 277.944 14.04 277.784 13.2C277.638 12.3467 277.564 11.3667 277.564 10.26V3.64ZM291.661 10.56C291.621 10.8533 291.601 11.1733 291.601 11.52C291.601 12.1333 291.721 12.6267 291.961 13C292.201 13.36 292.634 13.54 293.261 13.54C294.501 13.54 295.121 12.88 295.121 11.56V10.44C295.121 9.12 294.501 8.46 293.261 8.46H292.841V6.76H293.261C293.794 6.76 294.174 6.67333 294.401 6.5C294.627 6.31333 294.754 6.13333 294.781 5.96C294.807 5.78667 294.821 5.50667 294.821 5.12C294.821 4.49333 294.461 3.93333 293.741 3.44C293.074 2.97333 292.607 2.55333 292.341 2.18C292.074 1.80667 291.921 1.34667 291.881 0.799999H293.841C293.894 1.09333 294.001 1.33333 294.161 1.52C294.334 1.69333 294.601 1.90667 294.961 2.16L295.401 2.48C295.827 2.8 296.161 3.16667 296.401 3.58C296.654 3.99333 296.781 4.49333 296.781 5.08C296.781 5.69333 296.714 6.2 296.581 6.6C296.447 7 296.161 7.33333 295.721 7.6C296.187 7.81333 296.527 8.17333 296.741 8.68C296.967 9.18667 297.081 9.77333 297.081 10.44V11.56C297.081 12.72 296.741 13.6267 296.061 14.28C295.381 14.92 294.447 15.24 293.261 15.24C292.087 15.24 291.187 14.9267 290.561 14.3C289.934 13.6733 289.621 12.7667 289.621 11.58C289.621 11.38 289.647 11.04 289.701 10.56H291.661ZM302.734 0.559999C303.347 0.559999 303.907 0.713332 304.414 1.02C304.934 1.31333 305.341 1.72 305.634 2.24C305.941 2.74667 306.094 3.30667 306.094 3.92V11.56C306.094 12.72 305.754 13.6267 305.074 14.28C304.394 14.92 303.461 15.24 302.274 15.24C301.047 15.24 300.101 14.88 299.434 14.16C298.767 13.44 298.434 12.3467 298.434 10.88C298.434 10.4133 298.487 9.98667 298.594 9.6C298.714 9.21333 298.874 8.81333 299.074 8.4H300.954C300.807 8.70667 300.674 9.09333 300.554 9.56C300.447 10.0133 300.394 10.4533 300.394 10.88C300.394 11.6267 300.507 12.26 300.734 12.78C300.974 13.2867 301.487 13.54 302.274 13.54C303.514 13.54 304.134 12.88 304.134 11.56V3.68C304.134 3.29333 303.994 2.96667 303.714 2.7C303.447 2.42 303.121 2.28 302.734 2.28C302.347 2.28 302.014 2.42 301.734 2.7C301.467 2.96667 301.334 3.29333 301.334 3.68V5.04H299.374V3.92C299.374 3.30667 299.521 2.74667 299.814 2.24C300.121 1.72 300.527 1.31333 301.034 1.02C301.554 0.713332 302.121 0.559999 302.734 0.559999ZM307.653 10.84C307.693 10 307.853 9.21333 308.133 8.48C308.413 7.74667 308.686 7.17333 308.953 6.76C309.219 6.34667 309.606 5.78 310.113 5.06L310.393 4.68C310.859 4.08 311.233 3.48667 311.513 2.9C311.793 2.31333 311.939 1.61333 311.953 0.799999H313.913C313.913 1.50667 313.806 2.16 313.593 2.76C313.379 3.34667 313.126 3.86667 312.833 4.32C312.539 4.76 312.166 5.26 311.713 5.82C311.419 6.18 311.159 6.52 310.933 6.84C310.933 6.84 310.933 6.85333 310.933 6.88C311.226 6.85333 311.439 6.84 311.573 6.84C312.853 6.84 313.826 7.20667 314.493 7.94C315.173 8.66 315.513 9.75333 315.513 11.22C315.513 11.8733 315.466 12.5933 315.373 13.38C315.293 14.1667 315.153 14.7067 314.953 15H312.993V14.96C313.179 14.68 313.313 14.1467 313.393 13.36C313.486 12.5733 313.533 11.86 313.533 11.22C313.533 10.4333 313.399 9.79333 313.133 9.3C312.879 8.80667 312.359 8.56 311.573 8.56C310.879 8.56 310.379 8.82667 310.073 9.36C309.766 9.88 309.613 10.5 309.613 11.22V12.9C309.613 13.82 309.659 14.52 309.753 15H307.793C307.699 14.5333 307.653 13.86 307.653 12.98V10.84ZM321.171 0.559999C321.785 0.559999 322.345 0.713332 322.851 1.02C323.371 1.31333 323.778 1.72 324.071 2.24C324.378 2.74667 324.531 3.30667 324.531 3.92V11.56C324.531 12.72 324.191 13.6267 323.511 14.28C322.831 14.92 321.898 15.24 320.711 15.24C319.485 15.24 318.538 14.88 317.871 14.16C317.205 13.44 316.871 12.3467 316.871 10.88C316.871 10.4133 316.925 9.98667 317.031 9.6C317.151 9.21333 317.311 8.81333 317.511 8.4H319.391C319.245 8.70667 319.111 9.09333 318.991 9.56C318.885 10.0133 318.831 10.4533 318.831 10.88C318.831 11.6267 318.945 12.26 319.171 12.78C319.411 13.2867 319.925 13.54 320.711 13.54C321.951 13.54 322.571 12.88 322.571 11.56V3.68C322.571 3.29333 322.431 2.96667 322.151 2.7C321.885 2.42 321.558 2.28 321.171 2.28C320.785 2.28 320.451 2.42 320.171 2.7C319.905 2.96667 319.771 3.29333 319.771 3.68V5.04H317.811V3.92C317.811 3.30667 317.958 2.74667 318.251 2.24C318.558 1.72 318.965 1.31333 319.471 1.02C319.991 0.713332 320.558 0.559999 321.171 0.559999ZM331.19 6.66C332.017 6.88667 332.65 7.35333 333.09 8.06C333.543 8.75333 333.77 9.69333 333.77 10.88C333.77 12.3467 333.437 13.44 332.77 14.16C332.103 14.88 331.157 15.24 329.93 15.24C328.703 15.24 327.757 14.88 327.09 14.16C326.423 13.44 326.09 12.3467 326.09 10.88C326.09 9.56 326.357 8.54667 326.89 7.84C327.437 7.12 328.217 6.69333 329.23 6.56V4.16C329.23 3.8 329.197 3.52667 329.13 3.34C329.077 3.15333 328.977 3.01333 328.83 2.92C328.697 2.82667 328.483 2.74667 328.19 2.68C327.763 2.57333 327.41 2.36667 327.13 2.06C326.85 1.75333 326.71 1.33333 326.71 0.799999H328.65C328.663 0.906666 328.73 0.993333 328.85 1.06C328.97 1.12667 329.163 1.19333 329.43 1.26C329.817 1.35333 330.15 1.48 330.43 1.64C330.763 1.84 330.97 2.10667 331.05 2.44C331.143 2.76 331.19 3.22667 331.19 3.84V6.66ZM329.93 13.54C330.477 13.54 330.89 13.4133 331.17 13.16C331.45 12.9067 331.623 12.6 331.69 12.24C331.77 11.8667 331.81 11.4133 331.81 10.88C331.81 10.3467 331.77 9.9 331.69 9.54C331.623 9.16667 331.45 8.85333 331.17 8.6C330.89 8.34667 330.477 8.22 329.93 8.22C329.383 8.22 328.97 8.34667 328.69 8.6C328.41 8.85333 328.23 9.16667 328.15 9.54C328.083 9.9 328.05 10.3467 328.05 10.88C328.05 11.4133 328.083 11.8667 328.15 12.24C328.23 12.6 328.41 12.9067 328.69 13.16C328.97 13.4133 329.383 13.54 329.93 13.54ZM335.533 5.38C335.533 3.76667 335.893 2.56 336.613 1.76C337.333 0.959999 338.253 0.559999 339.373 0.559999C340.493 0.559999 341.413 0.959999 342.133 1.76C342.853 2.56 343.213 3.76667 343.213 5.38V6.34C343.213 8.5 343.166 10.2467 343.073 11.58C342.98 12.9133 342.746 14.0533 342.373 15H340.413V14.96C340.786 14.04 341.02 12.8933 341.113 11.52C341.206 10.1333 341.253 8.52667 341.253 6.7V5.42C341.253 4.40667 341.113 3.63333 340.833 3.1C340.553 2.55333 340.066 2.28 339.373 2.28C338.68 2.28 338.193 2.55333 337.913 3.1C337.633 3.63333 337.493 4.40667 337.493 5.42V6.7C337.493 8.52667 337.54 10.1333 337.633 11.52C337.726 12.8933 337.96 14.04 338.333 14.96V15H336.373C336 14.0533 335.766 12.9133 335.673 11.58C335.58 10.2467 335.533 8.5 335.533 6.34V5.38Z" fill="#4E6FAE"/>
</svg>
