<svg width="247" height="16" viewBox="0 0 247 16" fill="none" xmlns="http://www.w3.org/2000/svg">
<path d="M2.72 10.56C2.68 10.8533 2.66 11.1733 2.66 11.52C2.66 12.1333 2.78 12.6267 3.02 13C3.26 13.36 3.69333 13.54 4.32 13.54C5.56 13.54 6.18 12.88 6.18 11.56V9.52C6.18 8.86667 6.02667 8.38 5.72 8.06C5.42667 7.72667 4.96 7.56 4.32 7.56H3.98V5.82H4.32C4.96 5.82 5.38 5.68 5.58 5.4C5.79333 5.12 5.9 4.60667 5.9 3.86V3.68C5.9 3.29333 5.76 2.96667 5.48 2.7C5.21333 2.42 4.88667 2.28 4.5 2.28C4.11333 2.28 3.78 2.42 3.5 2.7C3.23333 2.96667 3.1 3.29333 3.1 3.68V4.5H1.14V3.92C1.14 3.30667 1.28667 2.74667 1.58 2.24C1.88667 1.72 2.29333 1.31333 2.8 1.02C3.32 0.713332 3.88667 0.559999 4.5 0.559999C5.11333 0.559999 5.67333 0.713332 6.18 1.02C6.7 1.31333 7.10667 1.72 7.4 2.24C7.70667 2.74667 7.86 3.30667 7.86 3.92C7.86 4.64 7.76 5.23333 7.56 5.7C7.36 6.16667 6.96667 6.49333 6.38 6.68C6.92667 6.88 7.35333 7.24667 7.66 7.78C7.98 8.3 8.14 8.88 8.14 9.52V11.56C8.14 12.72 7.8 13.6267 7.12 14.28C6.44 14.92 5.50667 15.24 4.32 15.24C3.14667 15.24 2.24667 14.9267 1.62 14.3C0.993333 13.6733 0.68 12.7667 0.68 11.58C0.68 11.38 0.706667 11.04 0.76 10.56H2.72ZM14.0034 0.559999C14.6168 0.559999 15.1768 0.713332 15.6834 1.02C16.2034 1.31333 16.6101 1.72 16.9034 2.24C17.2101 2.74667 17.3634 3.30667 17.3634 3.92V11.56C17.3634 12.72 17.0234 13.6267 16.3434 14.28C15.6634 14.92 14.7301 15.24 13.5434 15.24C12.3168 15.24 11.3701 14.88 10.7034 14.16C10.0368 13.44 9.70344 12.3467 9.70344 10.88C9.70344 10.4133 9.75677 9.98667 9.86344 9.6C9.98344 9.21333 10.1434 8.81333 10.3434 8.4H12.2234C12.0768 8.70667 11.9434 9.09333 11.8234 9.56C11.7168 10.0133 11.6634 10.4533 11.6634 10.88C11.6634 11.6267 11.7768 12.26 12.0034 12.78C12.2434 13.2867 12.7568 13.54 13.5434 13.54C14.7834 13.54 15.4034 12.88 15.4034 11.56V3.68C15.4034 3.29333 15.2634 2.96667 14.9834 2.7C14.7168 2.42 14.3901 2.28 14.0034 2.28C13.6168 2.28 13.2834 2.42 13.0034 2.7C12.7368 2.96667 12.6034 3.29333 12.6034 3.68V5.04H10.6434V3.92C10.6434 3.30667 10.7901 2.74667 11.0834 2.24C11.3901 1.72 11.7968 1.31333 12.3034 1.02C12.8234 0.713332 13.3901 0.559999 14.0034 0.559999ZM24.0222 6.66C24.8489 6.88667 25.4822 7.35333 25.9222 8.06C26.3755 8.75333 26.6022 9.69333 26.6022 10.88C26.6022 12.3467 26.2689 13.44 25.6022 14.16C24.9355 14.88 23.9889 15.24 22.7622 15.24C21.5355 15.24 20.5889 14.88 19.9222 14.16C19.2555 13.44 18.9222 12.3467 18.9222 10.88C18.9222 9.56 19.1889 8.54667 19.7222 7.84C20.2689 7.12 21.0489 6.69333 22.0622 6.56V4.16C22.0622 3.8 22.0289 3.52667 21.9622 3.34C21.9089 3.15333 21.8089 3.01333 21.6622 2.92C21.5289 2.82667 21.3155 2.74667 21.0222 2.68C20.5955 2.57333 20.2422 2.36667 19.9622 2.06C19.6822 1.75333 19.5422 1.33333 19.5422 0.799999H21.4822C21.4955 0.906666 21.5622 0.993333 21.6822 1.06C21.8022 1.12667 21.9955 1.19333 22.2622 1.26C22.6489 1.35333 22.9822 1.48 23.2622 1.64C23.5955 1.84 23.8022 2.10667 23.8822 2.44C23.9755 2.76 24.0222 3.22667 24.0222 3.84V6.66ZM22.7622 13.54C23.3089 13.54 23.7222 13.4133 24.0022 13.16C24.2822 12.9067 24.4555 12.6 24.5222 12.24C24.6022 11.8667 24.6422 11.4133 24.6422 10.88C24.6422 10.3467 24.6022 9.9 24.5222 9.54C24.4555 9.16667 24.2822 8.85333 24.0022 8.6C23.7222 8.34667 23.3089 8.22 22.7622 8.22C22.2155 8.22 21.8022 8.34667 21.5222 8.6C21.2422 8.85333 21.0622 9.16667 20.9822 9.54C20.9155 9.9 20.8822 10.3467 20.8822 10.88C20.8822 11.4133 20.9155 11.8667 20.9822 12.24C21.0622 12.6 21.2422 12.9067 21.5222 13.16C21.8022 13.4133 22.2155 13.54 22.7622 13.54ZM31.9052 11.22C32.9185 11.74 33.6985 12.2933 34.2452 12.88C34.7918 13.4533 35.1518 14.16 35.3252 15H33.3452C33.2252 14.44 32.9052 13.9333 32.3852 13.48C31.8785 13.0133 31.2452 12.6533 30.4852 12.4C29.7385 12.1333 28.9652 12 28.1652 12V10.28C28.4318 10.28 28.6652 10.3067 28.8652 10.36C28.3985 9.73333 28.1652 8.86 28.1652 7.74V4.82C28.1652 3.38 28.4852 2.31333 29.1252 1.62C29.7652 0.913332 30.6718 0.559999 31.8452 0.559999C33.0185 0.559999 33.9252 0.913332 34.5652 1.62C35.2185 2.31333 35.5452 3.38 35.5452 4.82C35.5452 6.26 35.2185 7.33333 34.5652 8.04C33.9252 8.73333 33.0185 9.08 31.8452 9.08C31.0718 9.08 30.4652 8.87333 30.0252 8.46H29.9852C29.9852 8.94 30.0518 9.34 30.1852 9.66C30.3318 9.96667 30.5318 10.2333 30.7852 10.46C31.0518 10.6867 31.4252 10.94 31.9052 11.22ZM31.8452 2.28C31.1652 2.28 30.7052 2.51333 30.4652 2.98C30.2385 3.44667 30.1252 4.06 30.1252 4.82C30.1252 5.76667 30.2385 6.42667 30.4652 6.8C30.7052 7.17333 31.1652 7.36 31.8452 7.36C32.5252 7.36 32.9785 7.13333 33.2052 6.68C33.4452 6.21333 33.5652 5.59333 33.5652 4.82C33.5652 4.06 33.4452 3.44667 33.2052 2.98C32.9785 2.51333 32.5252 2.28 31.8452 2.28ZM41.2105 0.559999C41.8238 0.559999 42.3838 0.713332 42.8905 1.02C43.4105 1.31333 43.8171 1.72 44.1105 2.24C44.4171 2.74667 44.5705 3.30667 44.5705 3.92V11.56C44.5705 12.72 44.2305 13.6267 43.5505 14.28C42.8705 14.92 41.9371 15.24 40.7505 15.24C39.5238 15.24 38.5771 14.88 37.9105 14.16C37.2438 13.44 36.9105 12.3467 36.9105 10.88C36.9105 10.4133 36.9638 9.98667 37.0705 9.6C37.1905 9.21333 37.3505 8.81333 37.5505 8.4H39.4305C39.2838 8.70667 39.1505 9.09333 39.0305 9.56C38.9238 10.0133 38.8705 10.4533 38.8705 10.88C38.8705 11.6267 38.9838 12.26 39.2105 12.78C39.4505 13.2867 39.9638 13.54 40.7505 13.54C41.9905 13.54 42.6105 12.88 42.6105 11.56V3.68C42.6105 3.29333 42.4705 2.96667 42.1905 2.7C41.9238 2.42 41.5971 2.28 41.2105 2.28C40.8238 2.28 40.4905 2.42 40.2105 2.7C39.9438 2.96667 39.8105 3.29333 39.8105 3.68V5.04H37.8505V3.92C37.8505 3.30667 37.9971 2.74667 38.2905 2.24C38.5971 1.72 39.0038 1.31333 39.5105 1.02C40.0305 0.713332 40.5971 0.559999 41.2105 0.559999ZM48.1692 10.56C48.1292 10.8533 48.1092 11.1733 48.1092 11.52C48.1092 12.1333 48.2292 12.6267 48.4692 13C48.7092 13.36 49.1426 13.54 49.7692 13.54C51.0092 13.54 51.6292 12.88 51.6292 11.56V9.52C51.6292 8.86667 51.4759 8.38 51.1692 8.06C50.8759 7.72667 50.4092 7.56 49.7692 7.56H49.4292V5.82H49.7692C50.4092 5.82 50.8292 5.68 51.0292 5.4C51.2426 5.12 51.3492 4.60667 51.3492 3.86V3.68C51.3492 3.29333 51.2092 2.96667 50.9292 2.7C50.6626 2.42 50.3359 2.28 49.9492 2.28C49.5626 2.28 49.2292 2.42 48.9492 2.7C48.6826 2.96667 48.5492 3.29333 48.5492 3.68V4.5H46.5892V3.92C46.5892 3.30667 46.7359 2.74667 47.0292 2.24C47.3359 1.72 47.7426 1.31333 48.2492 1.02C48.7692 0.713332 49.3359 0.559999 49.9492 0.559999C50.5626 0.559999 51.1226 0.713332 51.6292 1.02C52.1492 1.31333 52.5559 1.72 52.8492 2.24C53.1559 2.74667 53.3092 3.30667 53.3092 3.92C53.3092 4.64 53.2092 5.23333 53.0092 5.7C52.8092 6.16667 52.4159 6.49333 51.8292 6.68C52.3759 6.88 52.8026 7.24667 53.1092 7.78C53.4292 8.3 53.5892 8.88 53.5892 9.52V11.56C53.5892 12.72 53.2492 13.6267 52.5692 14.28C51.8892 14.92 50.9559 15.24 49.7692 15.24C48.5959 15.24 47.6959 14.9267 47.0692 14.3C46.4426 13.6733 46.1292 12.7667 46.1292 11.58C46.1292 11.38 46.1559 11.04 46.2092 10.56H48.1692ZM59.4527 0.559999C60.066 0.559999 60.626 0.713332 61.1327 1.02C61.6527 1.31333 62.0593 1.72 62.3527 2.24C62.6593 2.74667 62.8127 3.30667 62.8127 3.92V11.56C62.8127 12.72 62.4727 13.6267 61.7927 14.28C61.1127 14.92 60.1793 15.24 58.9927 15.24C57.766 15.24 56.8193 14.88 56.1527 14.16C55.486 13.44 55.1527 12.3467 55.1527 10.88C55.1527 10.4133 55.206 9.98667 55.3127 9.6C55.4327 9.21333 55.5927 8.81333 55.7927 8.4H57.6727C57.526 8.70667 57.3927 9.09333 57.2727 9.56C57.166 10.0133 57.1127 10.4533 57.1127 10.88C57.1127 11.6267 57.226 12.26 57.4527 12.78C57.6927 13.2867 58.206 13.54 58.9927 13.54C60.2327 13.54 60.8527 12.88 60.8527 11.56V3.68C60.8527 3.29333 60.7127 2.96667 60.4327 2.7C60.166 2.42 59.8393 2.28 59.4527 2.28C59.066 2.28 58.7327 2.42 58.4527 2.7C58.186 2.96667 58.0527 3.29333 58.0527 3.68V5.04H56.0927V3.92C56.0927 3.30667 56.2393 2.74667 56.5327 2.24C56.8393 1.72 57.246 1.31333 57.7527 1.02C58.2727 0.713332 58.8393 0.559999 59.4527 0.559999ZM64.5714 10.28C64.8381 10.28 65.0714 10.3067 65.2714 10.36C64.8047 9.73333 64.5714 8.86 64.5714 7.74V4.82C64.5714 3.38 64.8914 2.31333 65.5314 1.62C66.1714 0.913332 67.0781 0.559999 68.2514 0.559999C69.4247 0.559999 70.3314 0.913332 70.9714 1.62C71.6247 2.31333 71.9514 3.38 71.9514 4.82C71.9514 6.03333 71.7647 6.92 71.3914 7.48H69.4314V7.44C69.7914 6.89333 69.9714 6.02 69.9714 4.82C69.9714 4.06 69.8514 3.44667 69.6114 2.98C69.3847 2.51333 68.9314 2.28 68.2514 2.28C67.5714 2.28 67.1114 2.51333 66.8714 2.98C66.6447 3.44667 66.5314 4.06 66.5314 4.82V8.46C66.5314 9.16667 66.6581 9.70667 66.9114 10.08C67.1647 10.44 67.6314 10.82 68.3114 11.22C69.3247 11.74 70.1047 12.2933 70.6514 12.88C71.1981 13.4533 71.5581 14.16 71.7314 15H69.7514C69.6314 14.44 69.3114 13.9333 68.7914 13.48C68.2847 13.0133 67.6514 12.6533 66.8914 12.4C66.1447 12.1333 65.3714 12 64.5714 12V10.28ZM73.7167 3.64C73.7167 3.06667 73.8501 2.54667 74.1167 2.08C74.3967 1.61333 74.7767 1.24667 75.2567 0.979999C75.7367 0.699999 76.2767 0.559999 76.8767 0.559999C77.3034 0.559999 77.7101 0.646665 78.0967 0.819999C78.4834 0.979999 78.8034 1.20667 79.0567 1.5C79.3101 1.22 79.6301 0.993332 80.0167 0.819999C80.4034 0.646665 80.8101 0.559999 81.2367 0.559999C81.8367 0.559999 82.3767 0.699999 82.8567 0.979999C83.3367 1.24667 83.7101 1.61333 83.9767 2.08C84.2567 2.54667 84.3967 3.06667 84.3967 3.64V10.26C84.3967 11.3667 84.3167 12.3467 84.1567 13.2C84.0101 14.04 83.8167 14.64 83.5767 15H81.6167V14.96C81.8434 14.6267 82.0367 14.0267 82.1967 13.16C82.3567 12.28 82.4367 11.4333 82.4367 10.62V3.4C82.4367 3.06667 82.3234 2.8 82.0967 2.6C81.8701 2.38667 81.5834 2.28 81.2367 2.28C80.8901 2.28 80.6034 2.38667 80.3767 2.6C80.1501 2.8 80.0367 3.06667 80.0367 3.4V8H78.0767V3.4C78.0767 3.06667 77.9634 2.8 77.7367 2.6C77.5101 2.38667 77.2234 2.28 76.8767 2.28C76.5301 2.28 76.2434 2.38667 76.0167 2.6C75.7901 2.8 75.6767 3.06667 75.6767 3.4V10.62C75.6767 11.4333 75.7567 12.28 75.9167 13.16C76.0767 14.0267 76.2701 14.6267 76.4967 14.96V15H74.5367C74.2967 14.64 74.0967 14.04 73.9367 13.2C73.7901 12.3467 73.7167 11.3667 73.7167 10.26V3.64ZM87.813 10.56C87.773 10.8533 87.753 11.1733 87.753 11.52C87.753 12.1333 87.873 12.6267 88.113 13C88.353 13.36 88.7863 13.54 89.413 13.54C90.653 13.54 91.273 12.88 91.273 11.56V10.44C91.273 9.12 90.653 8.46 89.413 8.46H88.993V6.76H89.413C89.9463 6.76 90.3263 6.67333 90.553 6.5C90.7796 6.31333 90.9063 6.13333 90.933 5.96C90.9596 5.78667 90.973 5.50667 90.973 5.12C90.973 4.49333 90.613 3.93333 89.893 3.44C89.2263 2.97333 88.7596 2.55333 88.493 2.18C88.2263 1.80667 88.073 1.34667 88.033 0.799999H89.993C90.0463 1.09333 90.153 1.33333 90.313 1.52C90.4863 1.69333 90.753 1.90667 91.113 2.16L91.553 2.48C91.9796 2.8 92.313 3.16667 92.553 3.58C92.8063 3.99333 92.933 4.49333 92.933 5.08C92.933 5.69333 92.8663 6.2 92.733 6.6C92.5996 7 92.313 7.33333 91.873 7.6C92.3396 7.81333 92.6796 8.17333 92.893 8.68C93.1196 9.18667 93.233 9.77333 93.233 10.44V11.56C93.233 12.72 92.893 13.6267 92.213 14.28C91.533 14.92 90.5996 15.24 89.413 15.24C88.2396 15.24 87.3396 14.9267 86.713 14.3C86.0863 13.6733 85.773 12.7667 85.773 11.58C85.773 11.38 85.7996 11.04 85.853 10.56H87.813ZM98.7663 0.559999C99.9129 0.559999 100.813 0.886666 101.466 1.54C102.12 2.19333 102.446 3.1 102.446 4.26V11.56C102.446 12.72 102.106 13.6267 101.426 14.28C100.746 14.92 99.8129 15.24 98.6263 15.24C97.3996 15.24 96.4529 14.88 95.7863 14.16C95.1196 13.44 94.7863 12.3467 94.7863 10.88C94.7863 9.42667 95.1196 8.34 95.7863 7.62C96.4529 6.88667 97.3663 6.52 98.5263 6.52C98.8729 6.52 99.2196 6.58 99.5663 6.7C99.9263 6.80667 100.22 6.95333 100.446 7.14H100.486V4.26C100.486 3.72667 100.38 3.26667 100.166 2.88C99.9663 2.48 99.4996 2.28 98.7663 2.28C98.0329 2.28 97.5596 2.48 97.3463 2.88C97.1463 3.26667 97.0463 3.72667 97.0463 4.26V4.6H95.0863V4.26C95.0863 3.1 95.4129 2.19333 96.0663 1.54C96.7196 0.886666 97.6196 0.559999 98.7663 0.559999ZM100.486 10.22C100.486 8.9 99.8663 8.24 98.6263 8.24C98.0796 8.24 97.6663 8.36667 97.3863 8.62C97.1063 8.86 96.9263 9.16667 96.8462 9.54C96.7796 9.9 96.7463 10.3467 96.7463 10.88C96.7463 11.4133 96.7796 11.8667 96.8462 12.24C96.9263 12.6 97.1063 12.9067 97.3863 13.16C97.6663 13.4133 98.0796 13.54 98.6263 13.54C99.8663 13.54 100.486 12.88 100.486 11.56V10.22ZM108.515 0.559999C109.128 0.559999 109.688 0.713332 110.195 1.02C110.715 1.31333 111.122 1.72 111.415 2.24C111.722 2.74667 111.875 3.30667 111.875 3.92V11.56C111.875 12.72 111.535 13.6267 110.855 14.28C110.175 14.92 109.242 15.24 108.055 15.24C106.828 15.24 105.882 14.88 105.215 14.16C104.548 13.44 104.215 12.3467 104.215 10.88C104.215 10.4133 104.268 9.98667 104.375 9.6C104.495 9.21333 104.655 8.81333 104.855 8.4H106.735C106.588 8.70667 106.455 9.09333 106.335 9.56C106.228 10.0133 106.175 10.4533 106.175 10.88C106.175 11.6267 106.288 12.26 106.515 12.78C106.755 13.2867 107.268 13.54 108.055 13.54C109.295 13.54 109.915 12.88 109.915 11.56V3.68C109.915 3.29333 109.775 2.96667 109.495 2.7C109.228 2.42 108.902 2.28 108.515 2.28C108.128 2.28 107.795 2.42 107.515 2.7C107.248 2.96667 107.115 3.29333 107.115 3.68V5.04H105.155V3.92C105.155 3.30667 105.302 2.74667 105.595 2.24C105.902 1.72 106.308 1.31333 106.815 1.02C107.335 0.713332 107.902 0.559999 108.515 0.559999ZM116.774 0.559999C117.241 0.559999 117.794 0.613332 118.434 0.719999C118.967 0.8 119.381 0.84 119.674 0.84C120.087 0.84 120.527 0.786666 120.994 0.68V2.46C120.527 2.55333 120.094 2.6 119.694 2.6C119.281 2.6 118.827 2.55333 118.334 2.46C117.801 2.38 117.387 2.34 117.094 2.34C116.694 2.34 116.401 2.41333 116.214 2.56C116.027 2.69333 115.907 2.86667 115.854 3.08C115.814 3.28 115.794 3.55333 115.794 3.9V7.14H115.834C116.061 6.95333 116.347 6.80667 116.694 6.7C117.054 6.58 117.407 6.52 117.754 6.52C118.914 6.52 119.827 6.88667 120.494 7.62C121.161 8.34 121.494 9.42667 121.494 10.88C121.494 12.3467 121.161 13.44 120.494 14.16C119.827 14.88 118.881 15.24 117.654 15.24C116.467 15.24 115.534 14.92 114.854 14.28C114.174 13.6267 113.834 12.72 113.834 11.56V4.26C113.834 3.02 114.047 2.09333 114.474 1.48C114.914 0.866665 115.681 0.559999 116.774 0.559999ZM115.794 11.56C115.794 12.88 116.414 13.54 117.654 13.54C118.201 13.54 118.614 13.4133 118.894 13.16C119.174 12.9067 119.347 12.6 119.414 12.24C119.494 11.8667 119.534 11.4133 119.534 10.88C119.534 10.3467 119.494 9.9 119.414 9.54C119.347 9.16667 119.174 8.86 118.894 8.62C118.614 8.36667 118.201 8.24 117.654 8.24C116.414 8.24 115.794 8.9 115.794 10.22V11.56ZM128.926 7.04C129.512 7.44 129.972 7.92667 130.306 8.5C130.652 9.06 130.826 9.85333 130.826 10.88C130.826 12.32 130.472 13.4067 129.766 14.14C129.059 14.8733 128.132 15.24 126.986 15.24C125.746 15.24 124.759 14.88 124.026 14.16C123.306 13.4267 122.946 12.3333 122.946 10.88C122.946 10.24 123.106 9.44 123.426 8.48H125.286C125.192 8.77333 125.106 9.16 125.026 9.64C124.946 10.1067 124.906 10.52 124.906 10.88C124.906 11.6533 125.052 12.2933 125.346 12.8C125.639 13.2933 126.186 13.54 126.986 13.54C128.239 13.54 128.866 12.6533 128.866 10.88C128.866 10.1333 128.752 9.54667 128.526 9.12C128.299 8.68 127.966 8.29333 127.526 7.96C127.459 8.18667 127.426 8.50667 127.426 8.92H125.726C125.726 8.02667 125.839 7.37333 126.066 6.96C125.386 6.49333 124.859 6.00667 124.486 5.5C124.112 4.99333 123.926 4.40667 123.926 3.74C123.926 2.75333 124.212 1.98 124.786 1.42C125.372 0.846666 126.112 0.559999 127.006 0.559999C127.899 0.559999 128.632 0.846666 129.206 1.42C129.792 1.98 130.086 2.75333 130.086 3.74C130.086 4.12667 130.019 4.47333 129.886 4.78C129.766 5.08667 129.639 5.32667 129.506 5.5C129.372 5.66 129.146 5.92 128.826 6.28L128.446 6.7L128.926 7.04ZM127.006 2.16C126.592 2.16 126.279 2.30667 126.066 2.6C125.852 2.89333 125.746 3.27333 125.746 3.74C125.746 4.16667 125.826 4.51333 125.986 4.78C126.159 5.04667 126.459 5.32667 126.886 5.62L127.126 5.8L127.526 5.38C128.019 4.88667 128.266 4.34 128.266 3.74C128.266 3.27333 128.159 2.89333 127.946 2.6C127.732 2.30667 127.419 2.16 127.006 2.16ZM132.584 5.38C132.584 3.76667 132.944 2.56 133.664 1.76C134.384 0.959999 135.304 0.559999 136.424 0.559999C137.544 0.559999 138.464 0.959999 139.184 1.76C139.904 2.56 140.264 3.76667 140.264 5.38V6.34C140.264 8.5 140.217 10.2467 140.124 11.58C140.031 12.9133 139.797 14.0533 139.424 15H137.464V14.96C137.837 14.04 138.071 12.8933 138.164 11.52C138.257 10.1333 138.304 8.52667 138.304 6.7V5.42C138.304 4.40667 138.164 3.63333 137.884 3.1C137.604 2.55333 137.117 2.28 136.424 2.28C135.731 2.28 135.244 2.55333 134.964 3.1C134.684 3.63333 134.544 4.40667 134.544 5.42V6.7C134.544 8.52667 134.591 10.1333 134.684 11.52C134.777 12.8933 135.011 14.04 135.384 14.96V15H133.424C133.051 14.0533 132.817 12.9133 132.724 11.58C132.631 10.2467 132.584 8.5 132.584 6.34V5.38ZM144.388 11.56C144.388 12.88 145.008 13.54 146.248 13.54C146.794 13.54 147.208 13.4133 147.488 13.16C147.768 12.9067 147.941 12.6 148.008 12.24C148.088 11.8667 148.128 11.4133 148.128 10.88C148.128 10.3867 148.048 9.80667 147.888 9.14C147.768 8.60667 147.708 8.2 147.708 7.92C147.708 7.6 147.761 7.3 147.868 7.02L149.708 7.04C149.641 7.34667 149.608 7.58667 149.608 7.76C149.608 8.05333 149.668 8.41333 149.788 8.84C149.881 9.18667 149.954 9.50667 150.008 9.8C150.061 10.0933 150.088 10.4533 150.088 10.88C150.088 12.3467 149.754 13.44 149.088 14.16C148.421 14.88 147.474 15.24 146.248 15.24C145.061 15.24 144.128 14.92 143.448 14.28C142.768 13.6267 142.428 12.72 142.428 11.56V0.799999H144.388V11.56ZM156.907 11.56C156.907 12.88 157.527 13.54 158.767 13.54C159.314 13.54 159.727 13.4133 160.007 13.16C160.287 12.9067 160.461 12.6 160.527 12.24C160.607 11.8667 160.647 11.4133 160.647 10.88C160.647 10.3867 160.567 9.80667 160.407 9.14C160.287 8.60667 160.227 8.2 160.227 7.92C160.227 7.6 160.281 7.3 160.387 7.02L162.227 7.04C162.161 7.34667 162.127 7.58667 162.127 7.76C162.127 8.05333 162.187 8.41333 162.307 8.84C162.401 9.18667 162.474 9.50667 162.527 9.8C162.581 10.0933 162.607 10.4533 162.607 10.88C162.607 12.3467 162.274 13.44 161.607 14.16C160.941 14.88 159.994 15.24 158.767 15.24C157.581 15.24 156.647 14.92 155.967 14.28C155.287 13.6267 154.947 12.72 154.947 11.56V0.799999H156.907V11.56ZM167.721 0.799999C167.868 1.12 168.061 1.38667 168.301 1.6C168.541 1.8 168.848 2.01333 169.221 2.24C169.435 2.37333 169.595 2.48 169.701 2.56C170.128 2.84 170.468 3.13333 170.721 3.44C170.975 3.73333 171.181 4.17333 171.341 4.76C171.515 5.33333 171.601 6.11333 171.601 7.1V11.56C171.601 12.72 171.261 13.6267 170.581 14.28C169.901 14.92 168.968 15.24 167.781 15.24C166.581 15.24 165.641 14.9133 164.961 14.26C164.295 13.6067 163.961 12.68 163.961 11.48C163.961 10.3733 164.221 9.46667 164.741 8.76L166.701 8.8C166.448 9.21333 166.255 9.63333 166.121 10.06C165.988 10.4867 165.921 10.96 165.921 11.48C165.921 12.04 166.035 12.5267 166.261 12.94C166.501 13.34 167.008 13.54 167.781 13.54C169.021 13.54 169.641 12.88 169.641 11.56V6.88C169.641 6.08 169.521 5.43333 169.281 4.94C169.055 4.43333 168.648 4.00667 168.061 3.66C166.661 2.83333 165.895 1.88 165.761 0.799999H167.721ZM172.76 3.34C172.76 2.43333 173.007 1.74667 173.5 1.28C174.007 0.799999 174.66 0.559999 175.46 0.559999C175.86 0.559999 176.22 0.633332 176.54 0.779999C176.874 0.926666 177.134 1.13333 177.32 1.4C177.494 1.14667 177.734 0.946666 178.04 0.799999C178.36 0.639999 178.694 0.559999 179.04 0.559999C180 0.559999 180.687 0.846666 181.1 1.42C181.527 1.99333 181.74 2.82667 181.74 3.92V4.48C181.74 5.16 181.607 5.71333 181.34 6.14C181.074 6.56667 180.694 6.92667 180.2 7.22C181.227 7.67333 181.74 8.63333 181.74 10.1V11.56C181.74 12.72 181.4 13.6267 180.72 14.28C180.04 14.92 179.107 15.24 177.92 15.24C176.747 15.24 175.847 14.9267 175.22 14.3C174.594 13.6733 174.28 12.7667 174.28 11.58C174.28 11.38 174.307 11.04 174.36 10.56H176.32C176.28 10.8533 176.26 11.1733 176.26 11.52C176.26 12.1333 176.38 12.6267 176.62 13C176.86 13.36 177.294 13.54 177.92 13.54C179.16 13.54 179.78 12.88 179.78 11.56V9.7C179.78 9.3 179.667 8.94 179.44 8.62C179.227 8.28667 178.84 8.12 178.28 8.12H177.92V6.42H178.24C178.827 6.42 179.227 6.21333 179.44 5.8C179.667 5.38667 179.78 4.94667 179.78 4.48V3.3C179.78 2.91333 179.694 2.61333 179.52 2.4C179.36 2.18667 179.14 2.08 178.86 2.08C178.687 2.08 178.534 2.12 178.4 2.2C178.267 2.26667 178.174 2.35333 178.12 2.46C178.147 2.72667 178.16 2.95333 178.16 3.14V3.74C178.16 5.59333 177.26 6.52 175.46 6.52C174.66 6.52 174.007 6.28667 173.5 5.82C173.007 5.34 172.76 4.64667 172.76 3.74V3.34ZM174.32 3.74C174.32 4.11333 174.414 4.42 174.6 4.66C174.787 4.88667 175.074 5 175.46 5C175.847 5 176.134 4.88667 176.32 4.66C176.507 4.42 176.6 4.11333 176.6 3.74V3.34C176.6 2.96667 176.507 2.66667 176.32 2.44C176.134 2.2 175.847 2.08 175.46 2.08C175.074 2.08 174.787 2.2 174.6 2.44C174.414 2.66667 174.32 2.96667 174.32 3.34V3.74ZM183.102 0.559999H183.822C184.262 0.559999 184.669 0.646665 185.042 0.819999C185.415 0.993332 185.682 1.22 185.842 1.5C186.002 1.22 186.269 0.993332 186.642 0.819999C187.015 0.646665 187.422 0.559999 187.862 0.559999C188.862 0.559999 189.609 0.853332 190.102 1.44C190.609 2.02667 190.862 2.85333 190.862 3.92V11.56C190.862 12.72 190.522 13.6267 189.842 14.28C189.162 14.92 188.229 15.24 187.042 15.24C185.815 15.24 184.869 14.88 184.202 14.16C183.535 13.44 183.202 12.3467 183.202 10.88C183.202 10.2267 183.329 9.6 183.582 9H185.482C185.269 9.64 185.162 10.2667 185.162 10.88C185.162 11.6267 185.275 12.26 185.502 12.78C185.742 13.2867 186.255 13.54 187.042 13.54C188.282 13.54 188.902 12.88 188.902 11.56V3.44C188.902 3.06667 188.802 2.78 188.602 2.58C188.402 2.38 188.155 2.28 187.862 2.28C187.555 2.28 187.302 2.38 187.102 2.58C186.915 2.78 186.822 3.06667 186.822 3.44V5.6H184.862V3.44C184.862 3.06667 184.762 2.78 184.562 2.58C184.362 2.38 184.115 2.28 183.822 2.28H183.102V0.559999ZM199.754 0.559999C200.1 1.2 200.274 2.32667 200.274 3.94V11.56C200.274 12.72 199.934 13.6267 199.254 14.28C198.574 14.92 197.64 15.24 196.454 15.24C193.894 15.24 192.614 13.6867 192.614 10.58C192.614 8.99333 192.94 7.82 193.594 7.06C194.26 6.3 195.18 5.92 196.354 5.92C196.7 5.92 197.047 5.98 197.394 6.1C197.754 6.20667 198.047 6.35333 198.274 6.54H198.314V3.94C198.314 3.22 198.274 2.56 198.194 1.96C198.127 1.36 198.02 0.893333 197.874 0.559999H199.754ZM198.314 9.62C198.314 8.3 197.694 7.64 196.454 7.64C195.894 7.64 195.474 7.77333 195.194 8.04C194.927 8.29333 194.754 8.62 194.674 9.02C194.607 9.42 194.574 9.94 194.574 10.58C194.574 11.22 194.607 11.7467 194.674 12.16C194.754 12.56 194.927 12.8933 195.194 13.16C195.474 13.4133 195.894 13.54 196.454 13.54C197.694 13.54 198.314 12.88 198.314 11.56V9.62ZM204.068 10.56C204.028 10.8533 204.008 11.1733 204.008 11.52C204.008 12.1333 204.128 12.6267 204.368 13C204.608 13.36 205.041 13.54 205.668 13.54C206.908 13.54 207.528 12.88 207.528 11.56V9.52C207.528 8.86667 207.374 8.38 207.068 8.06C206.774 7.72667 206.308 7.56 205.668 7.56H205.328V5.82H205.668C206.308 5.82 206.728 5.68 206.928 5.4C207.141 5.12 207.248 4.60667 207.248 3.86V3.68C207.248 3.29333 207.108 2.96667 206.828 2.7C206.561 2.42 206.234 2.28 205.848 2.28C205.461 2.28 205.128 2.42 204.848 2.7C204.581 2.96667 204.448 3.29333 204.448 3.68V4.5H202.488V3.92C202.488 3.30667 202.634 2.74667 202.928 2.24C203.234 1.72 203.641 1.31333 204.148 1.02C204.668 0.713332 205.234 0.559999 205.848 0.559999C206.461 0.559999 207.021 0.713332 207.528 1.02C208.048 1.31333 208.454 1.72 208.748 2.24C209.054 2.74667 209.208 3.30667 209.208 3.92C209.208 4.64 209.108 5.23333 208.908 5.7C208.708 6.16667 208.314 6.49333 207.728 6.68C208.274 6.88 208.701 7.24667 209.008 7.78C209.328 8.3 209.488 8.88 209.488 9.52V11.56C209.488 12.72 209.148 13.6267 208.468 14.28C207.788 14.92 206.854 15.24 205.668 15.24C204.494 15.24 203.594 14.9267 202.968 14.3C202.341 13.6733 202.028 12.7667 202.028 11.58C202.028 11.38 202.054 11.04 202.108 10.56H204.068ZM211.251 10.28C211.518 10.28 211.751 10.3067 211.951 10.36C211.484 9.73333 211.251 8.86 211.251 7.74V4.82C211.251 3.38 211.571 2.31333 212.211 1.62C212.851 0.913332 213.758 0.559999 214.931 0.559999C216.104 0.559999 217.011 0.913332 217.651 1.62C218.304 2.31333 218.631 3.38 218.631 4.82C218.631 6.03333 218.444 6.92 218.071 7.48H216.111V7.44C216.471 6.89333 216.651 6.02 216.651 4.82C216.651 4.06 216.531 3.44667 216.291 2.98C216.064 2.51333 215.611 2.28 214.931 2.28C214.251 2.28 213.791 2.51333 213.551 2.98C213.324 3.44667 213.211 4.06 213.211 4.82V8.46C213.211 9.16667 213.338 9.70667 213.591 10.08C213.844 10.44 214.311 10.82 214.991 11.22C216.004 11.74 216.784 12.2933 217.331 12.88C217.878 13.4533 218.238 14.16 218.411 15H216.431C216.311 14.44 215.991 13.9333 215.471 13.48C214.964 13.0133 214.331 12.6533 213.571 12.4C212.824 12.1333 212.051 12 211.251 12V10.28ZM224.296 0.559999C224.91 0.559999 225.47 0.713332 225.976 1.02C226.496 1.31333 226.903 1.72 227.196 2.24C227.503 2.74667 227.656 3.30667 227.656 3.92V11.56C227.656 12.72 227.316 13.6267 226.636 14.28C225.956 14.92 225.023 15.24 223.836 15.24C222.61 15.24 221.663 14.88 220.996 14.16C220.33 13.44 219.996 12.3467 219.996 10.88C219.996 10.4133 220.05 9.98667 220.156 9.6C220.276 9.21333 220.436 8.81333 220.636 8.4H222.516C222.37 8.70667 222.236 9.09333 222.116 9.56C222.01 10.0133 221.956 10.4533 221.956 10.88C221.956 11.6267 222.07 12.26 222.296 12.78C222.536 13.2867 223.05 13.54 223.836 13.54C225.076 13.54 225.696 12.88 225.696 11.56V3.68C225.696 3.29333 225.556 2.96667 225.276 2.7C225.01 2.42 224.683 2.28 224.296 2.28C223.91 2.28 223.576 2.42 223.296 2.7C223.03 2.96667 222.896 3.29333 222.896 3.68V5.04H220.936V3.92C220.936 3.30667 221.083 2.74667 221.376 2.24C221.683 1.72 222.09 1.31333 222.596 1.02C223.116 0.713332 223.683 0.559999 224.296 0.559999ZM234.315 6.66C235.142 6.88667 235.775 7.35333 236.215 8.06C236.668 8.75333 236.895 9.69333 236.895 10.88C236.895 12.3467 236.562 13.44 235.895 14.16C235.228 14.88 234.282 15.24 233.055 15.24C231.828 15.24 230.882 14.88 230.215 14.16C229.548 13.44 229.215 12.3467 229.215 10.88C229.215 9.56 229.482 8.54667 230.015 7.84C230.562 7.12 231.342 6.69333 232.355 6.56V4.16C232.355 3.8 232.322 3.52667 232.255 3.34C232.202 3.15333 232.102 3.01333 231.955 2.92C231.822 2.82667 231.608 2.74667 231.315 2.68C230.888 2.57333 230.535 2.36667 230.255 2.06C229.975 1.75333 229.835 1.33333 229.835 0.799999H231.775C231.788 0.906666 231.855 0.993333 231.975 1.06C232.095 1.12667 232.288 1.19333 232.555 1.26C232.942 1.35333 233.275 1.48 233.555 1.64C233.888 1.84 234.095 2.10667 234.175 2.44C234.268 2.76 234.315 3.22667 234.315 3.84V6.66ZM233.055 13.54C233.602 13.54 234.015 13.4133 234.295 13.16C234.575 12.9067 234.748 12.6 234.815 12.24C234.895 11.8667 234.935 11.4133 234.935 10.88C234.935 10.3467 234.895 9.9 234.815 9.54C234.748 9.16667 234.575 8.85333 234.295 8.6C234.015 8.34667 233.602 8.22 233.055 8.22C232.508 8.22 232.095 8.34667 231.815 8.6C231.535 8.85333 231.355 9.16667 231.275 9.54C231.208 9.9 231.175 10.3467 231.175 10.88C231.175 11.4133 231.208 11.8667 231.275 12.24C231.355 12.6 231.535 12.9067 231.815 13.16C232.095 13.4133 232.508 13.54 233.055 13.54ZM238.658 5.38C238.658 3.76667 239.018 2.56 239.738 1.76C240.458 0.959999 241.378 0.559999 242.498 0.559999C243.618 0.559999 244.538 0.959999 245.258 1.76C245.978 2.56 246.338 3.76667 246.338 5.38V6.34C246.338 8.5 246.291 10.2467 246.198 11.58C246.105 12.9133 245.871 14.0533 245.498 15H243.538V14.96C243.911 14.04 244.145 12.8933 244.238 11.52C244.331 10.1333 244.378 8.52667 244.378 6.7V5.42C244.378 4.40667 244.238 3.63333 243.958 3.1C243.678 2.55333 243.191 2.28 242.498 2.28C241.805 2.28 241.318 2.55333 241.038 3.1C240.758 3.63333 240.618 4.40667 240.618 5.42V6.7C240.618 8.52667 240.665 10.1333 240.758 11.52C240.851 12.8933 241.085 14.04 241.458 14.96V15H239.498C239.125 14.0533 238.891 12.9133 238.798 11.58C238.705 10.2467 238.658 8.5 238.658 6.34V5.38Z" fill="#4E6FAE"/>
</svg>
