<svg width="143" height="26" viewBox="0 0 143 26" fill="none" xmlns="http://www.w3.org/2000/svg">
<path d="M0.274 0.707999L4.382 0.239999V13.89C4.382 15.086 4.564 15.9787 4.928 16.568C5.292 17.1573 5.88133 17.452 6.696 17.452C7.44133 17.452 8.00467 17.1833 8.386 16.646C8.78467 16.1087 8.984 15.3027 8.984 14.228C8.984 13.3787 8.88 12.6593 8.672 12.07C8.48133 11.4633 8.18667 10.7787 7.788 10.016C7.40667 9.30533 7.12067 8.68133 6.93 8.144C6.75667 7.58933 6.67 6.93933 6.67 6.194H10.752C10.7867 6.74867 10.8907 7.26 11.064 7.728C11.2373 8.17867 11.4887 8.716 11.818 9.34C12.2687 10.2067 12.6067 10.9867 12.832 11.68C13.0747 12.3733 13.196 13.2227 13.196 14.228C13.196 15.4587 12.936 16.542 12.416 17.478C11.9133 18.414 11.168 19.1507 10.18 19.688C9.20933 20.208 8.03933 20.468 6.67 20.468C4.59 20.468 3.004 19.9047 1.912 18.778C0.82 17.6513 0.274 15.996 0.274 13.812V0.707999ZM14.9933 12.616C14.9933 10.4493 15.5739 8.768 16.7353 7.572C17.8966 6.35867 19.4826 5.752 21.4933 5.752C23.5039 5.752 25.0813 6.35 26.2253 7.546C27.3866 8.742 27.9673 10.432 27.9673 12.616C27.9673 14.9733 27.4559 17.4347 26.4333 20H22.4813C23.3479 17.244 23.7813 14.7913 23.7813 12.642C23.7813 11.29 23.5906 10.3107 23.2093 9.704C22.8279 9.08 22.2559 8.768 21.4933 8.768C20.7133 8.768 20.1326 9.08 19.7513 9.704C19.3699 10.3107 19.1793 11.29 19.1793 12.642C19.1793 13.838 19.2919 15.0253 19.5173 16.204C19.7426 17.3653 20.0633 18.6307 20.4793 20H16.5533C15.5133 17.4693 14.9933 15.008 14.9933 12.616ZM37.6975 6.194C37.7322 6.74867 37.8969 7.26867 38.1915 7.754C38.4862 8.222 38.9282 8.81133 39.5175 9.522C40.0549 10.1633 40.4882 10.7267 40.8175 11.212C41.1469 11.68 41.4242 12.2347 41.6495 12.876C41.8922 13.5173 42.0135 14.228 42.0135 15.008C42.0135 16.0827 41.7535 17.036 41.2335 17.868C40.7135 18.7 39.9769 19.3413 39.0235 19.792C38.0875 20.2427 36.9955 20.468 35.7475 20.468C34.4822 20.468 33.3815 20.234 32.4455 19.766C31.5269 19.2807 30.8249 18.6307 30.3395 17.816C29.8542 17.0013 29.6115 16.0827 29.6115 15.06C29.6115 13.9853 29.8715 12.9887 30.3915 12.07L33.9535 13.006C33.7629 13.6127 33.6675 14.2887 33.6675 15.034C33.6675 15.7793 33.8409 16.3687 34.1875 16.802C34.5515 17.218 35.0715 17.426 35.7475 17.426C36.4409 17.426 36.9522 17.218 37.2815 16.802C37.6282 16.3687 37.8015 15.814 37.8015 15.138C37.8015 14.4273 37.6455 13.812 37.3335 13.292C37.0389 12.7547 36.5709 12.1133 35.9295 11.368C35.4095 10.7613 34.9935 10.25 34.6815 9.834C34.3869 9.40067 34.1269 8.88067 33.9015 8.274C33.6935 7.66733 33.5895 6.974 33.5895 6.194H37.6975ZM51.6636 5.752C52.7903 5.752 53.7609 6.064 54.5756 6.688C55.3903 7.312 56.0056 8.17 56.4216 9.262C56.8549 10.354 57.0716 11.602 57.0716 13.006C57.0716 15.4327 56.4996 17.2873 55.3556 18.57C54.2289 19.8353 52.6169 20.468 50.5196 20.468C48.4569 20.468 46.8709 19.87 45.7616 18.674C44.6696 17.478 44.1236 15.736 44.1236 13.448V0.707999L48.2316 0.239999V7.104C49.1676 6.20267 50.3116 5.752 51.6636 5.752ZM50.5196 17.426C51.2823 17.426 51.8543 17.0967 52.2356 16.438C52.6343 15.7793 52.8336 14.6353 52.8336 13.006C52.8336 10.1633 52.1143 8.742 50.6756 8.742C49.7743 8.742 48.9596 9.14933 48.2316 9.964V13.214C48.2316 14.7047 48.4136 15.7793 48.7776 16.438C49.1416 17.0967 49.7223 17.426 50.5196 17.426ZM78.7292 5.752C80.3239 5.752 81.5979 6.28933 82.5512 7.364C83.5219 8.42133 84.0072 9.95533 84.0072 11.966C84.0072 13.3353 83.8945 14.5487 83.6692 15.606C83.4612 16.646 83.1232 17.634 82.6552 18.57L79.0672 17.452C79.3272 16.6373 79.5179 15.8227 79.6392 15.008C79.7605 14.176 79.8212 13.2313 79.8212 12.174C79.8212 10.978 79.6652 10.1113 79.3532 9.574C79.0585 9.03667 78.6512 8.768 78.1312 8.768C77.7152 8.768 77.3772 8.924 77.1172 9.236C76.8572 9.548 76.7272 10.016 76.7272 10.64V15.268L72.9312 15.684V10.666C72.9312 9.40067 72.4632 8.768 71.5272 8.768C71.0765 8.768 70.7212 8.924 70.4612 9.236C70.2012 9.548 70.0712 10.0247 70.0712 10.666V15.242L66.2492 15.684V10.64C66.2492 9.392 65.7985 8.768 64.8972 8.768C64.3079 8.768 63.8745 9.07133 63.5972 9.678C63.3199 10.2847 63.1812 11.264 63.1812 12.616C63.1812 13.9853 63.4845 15.1033 64.0912 15.97C64.6979 16.8367 65.4519 17.504 66.3532 17.972C67.2719 18.44 68.4072 18.882 69.7592 19.298C71.5272 19.818 73.0179 20.3987 74.2312 21.04C75.4619 21.6813 76.4932 22.5307 77.3252 23.588L74.6992 25.798C73.9365 24.8793 73.0179 24.1513 71.9432 23.614C70.8859 23.094 69.6639 22.834 68.2772 22.834C67.2892 22.834 66.3965 22.9727 65.5992 23.25C64.8019 23.5273 63.9785 23.926 63.1292 24.446L62.1672 21.534C63.2765 20.9967 64.5505 20.728 65.9892 20.728C63.9439 20.208 62.2625 19.2633 60.9452 17.894C59.6452 16.5073 58.9952 14.67 58.9952 12.382C58.9952 10.146 59.4545 8.482 60.3732 7.39C61.3092 6.298 62.5919 5.752 64.2212 5.752C66.3012 5.752 67.6012 6.714 68.1212 8.638C68.3119 7.66733 68.6932 6.948 69.2652 6.48C69.8545 5.99467 70.6085 5.752 71.5272 5.752C72.4112 5.752 73.1479 5.99467 73.7372 6.48C74.3265 6.96533 74.7079 7.68467 74.8812 8.638C75.1065 7.702 75.5399 6.99133 76.1812 6.506C76.8399 6.00333 77.6892 5.752 78.7292 5.752ZM92.0187 5.752C93.856 5.752 95.3033 6.246 96.3607 7.234C97.418 8.222 97.9467 9.58267 97.9467 11.316V19.792C97.9467 20.9533 97.704 21.9847 97.2187 22.886C96.7507 23.7873 96.0487 24.498 95.1127 25.018C94.194 25.538 93.0847 25.798 91.7847 25.798C89.8607 25.798 88.3613 25.278 87.2867 24.238C86.212 23.198 85.6747 21.8287 85.6747 20.13C85.6747 18.882 85.952 17.7207 86.5067 16.646L90.1467 17.53C89.8867 18.3793 89.7567 19.246 89.7567 20.13C89.7567 20.962 89.9213 21.612 90.2507 22.08C90.5973 22.548 91.1087 22.782 91.7847 22.782C93.154 22.782 93.8387 21.8633 93.8387 20.026V11.134C93.8387 9.55667 93.2233 8.768 91.9927 8.768C91.3687 8.768 90.892 8.95867 90.5627 9.34C90.2507 9.704 90.0947 10.172 90.0947 10.744C90.0947 11.4027 90.1813 12.044 90.3547 12.668L86.6107 13.318C86.2293 12.434 86.0387 11.5933 86.0387 10.796C86.0387 9.79067 86.2813 8.91533 86.7667 8.17C87.2693 7.40733 87.9713 6.818 88.8727 6.402C89.774 5.96867 90.8227 5.752 92.0187 5.752ZM106.288 5.752C108.126 5.752 109.573 6.246 110.63 7.234C111.688 8.222 112.216 9.58267 112.216 11.316V19.792C112.216 20.9533 111.974 21.9847 111.488 22.886C111.02 23.7873 110.318 24.498 109.382 25.018C108.464 25.538 107.354 25.798 106.054 25.798C104.13 25.798 102.631 25.278 101.556 24.238C100.482 23.198 99.9442 21.8287 99.9442 20.13C99.9442 18.882 100.222 17.7207 100.776 16.646L104.416 17.53C104.156 18.3793 104.026 19.246 104.026 20.13C104.026 20.962 104.191 21.612 104.52 22.08C104.867 22.548 105.378 22.782 106.054 22.782C107.424 22.782 108.108 21.8633 108.108 20.026V11.134C108.108 9.55667 107.493 8.768 106.262 8.768C105.638 8.768 105.162 8.95867 104.832 9.34C104.52 9.704 104.364 10.172 104.364 10.744C104.364 11.4027 104.451 12.044 104.624 12.668L100.88 13.318C100.499 12.434 100.308 11.5933 100.308 10.796C100.308 9.79067 100.551 8.91533 101.036 8.17C101.539 7.40733 102.241 6.818 103.142 6.402C104.044 5.96867 105.092 5.752 106.288 5.752ZM123.132 5.96C124.64 6.30667 125.801 7.104 126.616 8.352C127.448 9.58267 127.864 11.1687 127.864 13.11C127.864 14.5833 127.586 15.8747 127.032 16.984C126.494 18.076 125.714 18.9253 124.692 19.532C123.686 20.1387 122.49 20.442 121.104 20.442C119.006 20.442 117.351 19.8007 116.138 18.518C114.942 17.218 114.344 15.4067 114.344 13.084C114.344 11.1773 114.794 9.59133 115.696 8.326C116.597 7.04333 117.845 6.23733 119.44 5.908C119.509 5.7 119.544 5.40533 119.544 5.024C119.544 4.712 119.466 4.452 119.31 4.244C119.171 4.01867 118.946 3.75867 118.634 3.464C118.2 3.048 117.862 2.64933 117.62 2.268C117.394 1.88667 117.282 1.36667 117.282 0.707999L121.182 0.292C121.199 0.655999 121.294 0.976666 121.468 1.254C121.641 1.514 121.901 1.826 122.248 2.19C122.629 2.57133 122.924 2.944 123.132 3.308C123.34 3.65467 123.444 4.088 123.444 4.608C123.444 5.05867 123.34 5.50933 123.132 5.96ZM121.104 17.426C121.936 17.426 122.56 17.0793 122.976 16.386C123.392 15.6753 123.6 14.5833 123.6 13.11C123.6 11.5673 123.392 10.4493 122.976 9.756C122.577 9.04533 121.953 8.69 121.104 8.69C120.254 8.69 119.622 9.04533 119.206 9.756C118.807 10.4493 118.608 11.5587 118.608 13.084C118.608 14.592 118.807 15.6927 119.206 16.386C119.622 17.0793 120.254 17.426 121.104 17.426ZM129.657 12.616C129.657 10.4493 130.238 8.768 131.399 7.572C132.561 6.35867 134.147 5.752 136.157 5.752C138.168 5.752 139.745 6.35 140.889 7.546C142.051 8.742 142.631 10.432 142.631 12.616C142.631 14.9733 142.12 17.4347 141.097 20H137.145C138.012 17.244 138.445 14.7913 138.445 12.642C138.445 11.29 138.255 10.3107 137.873 9.704C137.492 9.08 136.92 8.768 136.157 8.768C135.377 8.768 134.797 9.08 134.415 9.704C134.034 10.3107 133.843 11.29 133.843 12.642C133.843 13.838 133.956 15.0253 134.181 16.204C134.407 17.3653 134.727 18.6307 135.143 20H131.217C130.177 17.4693 129.657 15.008 129.657 12.616Z" fill="#4E6FAE"/>
</svg>
