<svg width="470" height="26" viewBox="0 0 470 26" fill="none" xmlns="http://www.w3.org/2000/svg">
<path d="M0.612 12.434C0.612 11.1687 0.837333 10.0507 1.288 9.08C1.73867 8.10933 2.38 7.35533 3.212 6.818C4.06133 6.26333 5.058 5.986 6.202 5.986C7.93533 5.986 9.28733 6.56667 10.258 7.728C11.246 8.88933 11.74 10.458 11.74 12.434C11.74 13.8727 11.584 15.2073 11.272 16.438C10.9773 17.6513 10.5873 18.8387 10.102 20H7.736C8.256 18.6133 8.646 17.3133 8.906 16.1C9.18333 14.8693 9.322 13.6473 9.322 12.434C9.322 10.926 9.04467 9.79933 8.49 9.054C7.93533 8.29133 7.17267 7.91 6.202 7.91C5.214 7.91 4.434 8.29133 3.862 9.054C3.30733 9.79933 3.03 10.926 3.03 12.434C3.03 13.6473 3.16 14.8693 3.42 16.1C3.69733 17.3133 4.096 18.6133 4.616 20H2.25C1.76467 18.8387 1.366 17.6513 1.054 16.438C0.759333 15.2073 0.612 13.8727 0.612 12.434ZM21.6917 5.986C23.3384 5.986 24.6037 6.64467 25.4877 7.962C26.3717 9.262 26.8137 10.9607 26.8137 13.058C26.8137 15.346 26.311 17.14 25.3057 18.44C24.3004 19.7227 22.879 20.364 21.0417 20.364C19.291 20.364 17.9217 19.8007 16.9337 18.674C15.9457 17.53 15.4517 15.866 15.4517 13.682V0.785999L17.8437 0.421999V7.728C18.9357 6.56667 20.2184 5.986 21.6917 5.986ZM21.0417 18.44C22.1164 18.44 22.9137 17.998 23.4337 17.114C23.971 16.23 24.2397 14.878 24.2397 13.058C24.2397 9.626 23.2517 7.91 21.2757 7.91C19.9584 7.91 18.8144 8.52533 17.8437 9.756V13.474C17.8437 15.2073 18.1037 16.4727 18.6237 17.27C19.1437 18.05 19.9497 18.44 21.0417 18.44ZM30.0397 12.434C30.0397 11.1687 30.2651 10.0507 30.7157 9.08C31.1664 8.10933 31.8077 7.35533 32.6397 6.818C33.4891 6.26333 34.4857 5.986 35.6297 5.986C37.3631 5.986 38.7151 6.56667 39.6857 7.728C40.6737 8.88933 41.1677 10.458 41.1677 12.434C41.1677 13.8727 41.0117 15.2073 40.6997 16.438C40.4051 17.6513 40.0151 18.8387 39.5297 20H37.1637C37.6837 18.6133 38.0737 17.3133 38.3337 16.1C38.6111 14.8693 38.7497 13.6473 38.7497 12.434C38.7497 10.926 38.4724 9.79933 37.9177 9.054C37.3631 8.29133 36.6004 7.91 35.6297 7.91C34.6417 7.91 33.8617 8.29133 33.2897 9.054C32.7351 9.79933 32.4577 10.926 32.4577 12.434C32.4577 13.6473 32.5877 14.8693 32.8477 16.1C33.1251 17.3133 33.5237 18.6133 34.0437 20H31.6777C31.1924 18.8387 30.7937 17.6513 30.4817 16.438C30.1871 15.2073 30.0397 13.8727 30.0397 12.434ZM62.9234 5.986C63.7901 5.986 64.5874 6.21133 65.3154 6.662C66.0434 7.11267 66.6241 7.78867 67.0574 8.69C67.5081 9.59133 67.7334 10.692 67.7334 11.992C67.7334 13.3267 67.6381 14.4967 67.4474 15.502C67.2568 16.49 66.9708 17.4 66.5894 18.232L64.5094 17.686C64.7868 16.75 64.9861 15.8487 65.1074 14.982C65.2461 14.1153 65.3154 13.1273 65.3154 12.018C65.3154 10.51 65.0728 9.45267 64.5874 8.846C64.1021 8.222 63.4868 7.91 62.7414 7.91C62.0828 7.91 61.5541 8.144 61.1554 8.612C60.7568 9.06267 60.5574 9.756 60.5574 10.692V15.58L58.2694 15.788V10.692C58.2694 9.756 58.0701 9.06267 57.6714 8.612C57.2728 8.144 56.7354 7.91 56.0594 7.91C55.3834 7.91 54.8374 8.144 54.4214 8.612C54.0228 9.06267 53.8234 9.756 53.8234 10.692V15.528L51.5354 15.788V10.692C51.5354 9.756 51.3361 9.06267 50.9374 8.612C50.5388 8.144 50.0014 7.91 49.3254 7.91C48.5108 7.91 47.8781 8.29133 47.4274 9.054C46.9941 9.79933 46.7774 10.8913 46.7774 12.33C46.7774 14.046 47.1501 15.4327 47.8954 16.49C48.6408 17.5473 49.5074 18.336 50.4954 18.856C51.5008 19.376 52.7661 19.8873 54.2914 20.39C55.9034 20.9273 57.2988 21.482 58.4774 22.054C59.6561 22.6433 60.5748 23.406 61.2334 24.342L59.7254 25.616C58.7374 24.524 57.7408 23.7527 56.7354 23.302C55.7474 22.8687 54.6814 22.652 53.5374 22.652C52.6361 22.652 51.7868 22.7733 50.9894 23.016C50.1921 23.276 49.3861 23.6487 48.5714 24.134L47.8694 21.976C48.5454 21.6813 49.1954 21.4647 49.8194 21.326C50.4434 21.2047 51.1801 21.144 52.0294 21.144C49.7934 20.6587 47.9561 19.6967 46.5174 18.258C45.0961 16.8193 44.3854 14.8173 44.3854 12.252C44.3854 10.1547 44.8274 8.586 45.7114 7.546C46.5954 6.506 47.7134 5.986 49.0654 5.986C51.0241 5.986 52.2374 6.95667 52.7054 8.898C52.8788 7.94467 53.2428 7.22533 53.7974 6.74C54.3694 6.23733 55.1061 5.986 56.0074 5.986C56.9781 5.986 57.7321 6.22 58.2694 6.688C58.8068 7.156 59.1968 7.89267 59.4394 8.898C59.6128 7.94467 60.0028 7.22533 60.6094 6.74C61.2161 6.23733 61.9874 5.986 62.9234 5.986ZM76.3254 5.986C77.3134 5.986 78.1974 6.194 78.9774 6.61C79.7748 7.026 80.3901 7.624 80.8234 8.404C81.2741 9.184 81.4994 10.094 81.4994 11.134V19.896C81.4994 21.0053 81.2828 21.9933 80.8494 22.86C80.4334 23.7267 79.8181 24.4027 79.0034 24.888C78.2061 25.3733 77.2528 25.616 76.1434 25.616C74.9301 25.616 73.9161 25.3733 73.1014 24.888C72.2868 24.4027 71.6801 23.7613 71.2814 22.964C70.9001 22.184 70.7094 21.3347 70.7094 20.416C70.7094 19.272 70.9954 18.128 71.5674 16.984L73.6214 17.53C73.2921 18.4833 73.1274 19.4453 73.1274 20.416C73.1274 21.4213 73.3874 22.2187 73.9074 22.808C74.4274 23.3973 75.1728 23.692 76.1434 23.692C77.1834 23.692 77.9374 23.328 78.4054 22.6C78.8734 21.872 79.1074 20.8753 79.1074 19.61V11.29C79.1074 10.2673 78.8821 9.45267 78.4314 8.846C77.9808 8.222 77.2788 7.91 76.3254 7.91C75.3721 7.91 74.6614 8.17867 74.1934 8.716C73.7428 9.236 73.5174 9.87733 73.5174 10.64C73.5174 11.316 73.6301 12.0093 73.8554 12.72L71.6974 13.162C71.2814 12.2953 71.0734 11.446 71.0734 10.614C71.0734 9.71267 71.3074 8.91533 71.7754 8.222C72.2434 7.51133 72.8761 6.96533 73.6734 6.584C74.4708 6.18533 75.3548 5.986 76.3254 5.986ZM98.5516 5.986C100.129 5.986 101.368 6.54067 102.27 7.65C103.171 8.75933 103.622 10.38 103.622 12.512C103.622 13.9333 103.474 15.242 103.18 16.438C102.885 17.6167 102.495 18.804 102.01 20H99.6176C100.172 18.5093 100.571 17.192 100.814 16.048C101.074 14.904 101.204 13.734 101.204 12.538C101.204 10.874 100.952 9.68667 100.45 8.976C99.9469 8.26533 99.2449 7.91 98.3436 7.91C97.2862 7.91 96.3589 8.30867 95.5616 9.106C96.0469 10.2327 96.2896 11.576 96.2896 13.136C96.2896 15.3373 95.7956 17.088 94.8076 18.388C93.8369 19.6707 92.4849 20.312 90.7516 20.312C89.0009 20.312 87.6402 19.6793 86.6696 18.414C85.6989 17.1487 85.2136 15.398 85.2136 13.162C85.2136 10.9607 85.7076 9.21867 86.6956 7.936C87.6836 6.636 89.0442 5.986 90.7776 5.986C92.4069 5.986 93.7069 6.54933 94.6776 7.676C95.7176 6.54933 97.0089 5.986 98.5516 5.986ZM90.7516 18.388C91.7222 18.388 92.4676 17.9547 92.9876 17.088C93.5076 16.2213 93.7676 14.904 93.7676 13.136C93.7676 11.3853 93.5076 10.0767 92.9876 9.21C92.4676 8.34333 91.7309 7.91 90.7776 7.91C89.8069 7.91 89.0529 8.352 88.5156 9.236C87.9956 10.1027 87.7356 11.4113 87.7356 13.162C87.7356 14.9127 87.9956 16.2213 88.5156 17.088C89.0356 17.9547 89.7809 18.388 90.7516 18.388ZM126.597 20C125.453 20 124.465 19.714 123.633 19.142C122.801 18.57 122.16 17.764 121.709 16.724C121.276 15.684 121.059 14.488 121.059 13.136C121.059 11.5413 121.302 10.2067 121.787 9.132C120.973 8.31733 120.071 7.91 119.083 7.91C118.251 7.91 117.549 8.274 116.977 9.002C116.405 9.71267 116.119 10.9953 116.119 12.85C116.119 14.878 116.587 16.464 117.523 17.608C118.477 18.752 119.777 19.688 121.423 20.416C122.463 20.8667 123.261 21.2307 123.815 21.508C124.387 21.8027 124.977 22.1927 125.583 22.678C126.207 23.1807 126.753 23.7787 127.221 24.472L125.479 25.616C124.942 24.784 124.231 24.082 123.347 23.51C122.481 22.938 121.536 22.652 120.513 22.652C119.057 22.652 117.584 23.0507 116.093 23.848L115.391 21.69C116.483 21.326 117.74 21.144 119.161 21.144C118.069 20.624 117.133 20.0347 116.353 19.376C115.573 18.7 114.941 17.8073 114.455 16.698C113.97 15.5713 113.727 14.176 113.727 12.512C113.727 11.0387 113.961 9.81667 114.429 8.846C114.897 7.87533 115.513 7.156 116.275 6.688C117.055 6.22 117.905 5.986 118.823 5.986C119.499 5.986 120.167 6.13333 120.825 6.428C121.501 6.70533 122.108 7.13 122.645 7.702C123.599 6.558 124.907 5.986 126.571 5.986C128.305 5.986 129.665 6.636 130.653 7.936C131.641 9.21867 132.135 10.9607 132.135 13.162C132.135 15.2593 131.641 16.9233 130.653 18.154C129.683 19.3847 128.331 20 126.597 20ZM126.571 7.91C125.618 7.91 124.881 8.34333 124.361 9.21C123.841 10.0767 123.581 11.3853 123.581 13.136C123.581 14.748 123.841 15.9787 124.361 16.828C124.899 17.66 125.644 18.076 126.597 18.076C127.551 18.076 128.287 17.66 128.807 16.828C129.345 15.996 129.613 14.774 129.613 13.162C129.613 11.4113 129.345 10.1027 128.807 9.236C128.287 8.352 127.542 7.91 126.571 7.91ZM140.716 5.986C141.704 5.986 142.588 6.194 143.368 6.61C144.165 7.026 144.781 7.624 145.214 8.404C145.665 9.184 145.89 10.094 145.89 11.134V19.896C145.89 21.0053 145.673 21.9933 145.24 22.86C144.824 23.7267 144.209 24.4027 143.394 24.888C142.597 25.3733 141.643 25.616 140.534 25.616C139.321 25.616 138.307 25.3733 137.492 24.888C136.677 24.4027 136.071 23.7613 135.672 22.964C135.291 22.184 135.1 21.3347 135.1 20.416C135.1 19.272 135.386 18.128 135.958 16.984L138.012 17.53C137.683 18.4833 137.518 19.4453 137.518 20.416C137.518 21.4213 137.778 22.2187 138.298 22.808C138.818 23.3973 139.563 23.692 140.534 23.692C141.574 23.692 142.328 23.328 142.796 22.6C143.264 21.872 143.498 20.8753 143.498 19.61V11.29C143.498 10.2673 143.273 9.45267 142.822 8.846C142.371 8.222 141.669 7.91 140.716 7.91C139.763 7.91 139.052 8.17867 138.584 8.716C138.133 9.236 137.908 9.87733 137.908 10.64C137.908 11.316 138.021 12.0093 138.246 12.72L136.088 13.162C135.672 12.2953 135.464 11.446 135.464 10.614C135.464 9.71267 135.698 8.91533 136.166 8.222C136.634 7.51133 137.267 6.96533 138.064 6.584C138.861 6.18533 139.745 5.986 140.716 5.986ZM149.604 15.762C149.604 12.902 150.202 10.64 151.398 8.976C152.594 7.29467 154.241 6.30667 156.338 6.012C156.252 5.232 156.208 4.296 156.208 3.204H158.6C158.635 4.244 158.592 5.18 158.47 6.012C160.585 6.272 162.24 7.22533 163.436 8.872C164.65 10.5187 165.256 12.8067 165.256 15.736C165.256 17.8333 164.927 19.6187 164.268 21.092C163.627 22.5827 162.717 23.7093 161.538 24.472C160.36 25.2347 158.99 25.616 157.43 25.616C155.87 25.616 154.501 25.2433 153.322 24.498C152.161 23.7527 151.251 22.6433 150.592 21.17C149.934 19.6967 149.604 17.894 149.604 15.762ZM152.178 15.762C152.178 18.518 152.646 20.5287 153.582 21.794C154.518 23.0593 155.801 23.692 157.43 23.692C160.932 23.692 162.682 21.04 162.682 15.736C162.682 13.24 162.327 11.368 161.616 10.12C160.906 8.85467 159.848 8.08333 158.444 7.806C158.548 8.222 158.6 8.73333 158.6 9.34V15.528L156.208 15.788V9.392C156.208 8.75067 156.26 8.23067 156.364 7.832C154.995 8.10933 153.955 8.88067 153.244 10.146C152.534 11.4113 152.178 13.2833 152.178 15.762ZM174.371 6.298C174.371 6.90467 174.527 7.47667 174.839 8.014C175.151 8.534 175.628 9.19267 176.269 9.99C177.084 10.9953 177.708 11.888 178.141 12.668C178.575 13.448 178.791 14.3493 178.791 15.372C178.791 16.3773 178.549 17.2613 178.063 18.024C177.595 18.7693 176.954 19.35 176.139 19.766C175.325 20.1647 174.406 20.364 173.383 20.364C172.239 20.364 171.26 20.1387 170.445 19.688C169.648 19.2373 169.041 18.6567 168.625 17.946C168.227 17.218 168.027 16.438 168.027 15.606C168.027 14.6353 168.27 13.708 168.755 12.824L170.783 13.37C170.558 14.046 170.445 14.7653 170.445 15.528C170.445 16.412 170.705 17.1227 171.225 17.66C171.745 18.18 172.465 18.44 173.383 18.44C174.354 18.44 175.073 18.154 175.541 17.582C176.027 17.01 176.269 16.256 176.269 15.32C176.269 14.54 176.105 13.8727 175.775 13.318C175.463 12.746 174.961 12.044 174.267 11.212C173.765 10.6227 173.357 10.12 173.045 9.704C172.751 9.27067 172.499 8.77667 172.291 8.222C172.083 7.65 171.979 7.00867 171.979 6.298H174.371ZM200.414 5.986C201.28 5.986 202.078 6.21133 202.806 6.662C203.534 7.11267 204.114 7.78867 204.548 8.69C204.998 9.59133 205.224 10.692 205.224 11.992C205.224 13.3267 205.128 14.4967 204.938 15.502C204.747 16.49 204.461 17.4 204.08 18.232L202 17.686C202.277 16.75 202.476 15.8487 202.598 14.982C202.736 14.1153 202.806 13.1273 202.806 12.018C202.806 10.51 202.563 9.45267 202.078 8.846C201.592 8.222 200.977 7.91 200.232 7.91C199.573 7.91 199.044 8.144 198.646 8.612C198.247 9.06267 198.048 9.756 198.048 10.692V15.58L195.76 15.788V10.692C195.76 9.756 195.56 9.06267 195.162 8.612C194.763 8.144 194.226 7.91 193.55 7.91C192.874 7.91 192.328 8.144 191.912 8.612C191.513 9.06267 191.314 9.756 191.314 10.692V15.528L189.026 15.788V10.692C189.026 9.756 188.826 9.06267 188.428 8.612C188.029 8.144 187.492 7.91 186.816 7.91C186.001 7.91 185.368 8.29133 184.918 9.054C184.484 9.79933 184.268 10.8913 184.268 12.33C184.268 14.046 184.64 15.4327 185.386 16.49C186.131 17.5473 186.998 18.336 187.986 18.856C188.991 19.376 190.256 19.8873 191.782 20.39C193.394 20.9273 194.789 21.482 195.968 22.054C197.146 22.6433 198.065 23.406 198.724 24.342L197.216 25.616C196.228 24.524 195.231 23.7527 194.226 23.302C193.238 22.8687 192.172 22.652 191.028 22.652C190.126 22.652 189.277 22.7733 188.48 23.016C187.682 23.276 186.876 23.6487 186.062 24.134L185.36 21.976C186.036 21.6813 186.686 21.4647 187.31 21.326C187.934 21.2047 188.67 21.144 189.52 21.144C187.284 20.6587 185.446 19.6967 184.008 18.258C182.586 16.8193 181.876 14.8173 181.876 12.252C181.876 10.1547 182.318 8.586 183.202 7.546C184.086 6.506 185.204 5.986 186.556 5.986C188.514 5.986 189.728 6.95667 190.196 8.898C190.369 7.94467 190.733 7.22533 191.288 6.74C191.86 6.23733 192.596 5.986 193.498 5.986C194.468 5.986 195.222 6.22 195.76 6.688C196.297 7.156 196.687 7.89267 196.93 8.898C197.103 7.94467 197.493 7.22533 198.1 6.74C198.706 6.23733 199.478 5.986 200.414 5.986ZM215.122 5.986C216.214 5.986 217.132 6.31533 217.878 6.974C218.623 7.63267 218.996 8.62933 218.996 9.964V20C218.996 21.092 218.77 22.0627 218.32 22.912C217.869 23.7613 217.219 24.42 216.37 24.888C215.538 25.3733 214.558 25.616 213.432 25.616H213.406C212.21 25.616 211.204 25.3733 210.39 24.888C209.575 24.4027 208.968 23.7613 208.57 22.964C208.188 22.184 207.998 21.3347 207.998 20.416C207.998 19.272 208.284 18.128 208.856 16.984L210.91 17.53C210.58 18.4833 210.416 19.4453 210.416 20.416C210.416 21.4213 210.676 22.2187 211.196 22.808C211.716 23.3973 212.452 23.692 213.406 23.692C214.48 23.692 215.278 23.3453 215.798 22.652C216.335 21.9587 216.604 20.9967 216.604 19.766V10.016C216.604 9.27067 216.456 8.72467 216.162 8.378C215.884 8.03133 215.468 7.858 214.914 7.858C214.359 7.858 213.934 8.02267 213.64 8.352C213.345 8.68133 213.198 9.184 213.198 9.86V13.058L210.91 13.318V9.496C210.91 8.99333 210.806 8.62933 210.598 8.404C210.39 8.17867 210.078 8.066 209.662 8.066L209.09 8.092C208.812 8.12667 208.613 8.144 208.492 8.144C208.006 8.144 207.59 8.02267 207.244 7.78L207.504 5.986C207.816 6.09 208.084 6.142 208.31 6.142C208.535 6.142 208.76 6.116 208.986 6.064C209.506 6.012 209.809 5.986 209.896 5.986C211.109 5.986 211.846 6.67067 212.106 8.04C212.348 7.26 212.721 6.72267 213.224 6.428C213.744 6.13333 214.376 5.986 215.122 5.986ZM224.29 20C223.804 18.804 223.414 17.5907 223.12 16.36C222.842 15.112 222.704 13.656 222.704 11.992C222.704 9.21867 223.146 7.06067 224.03 5.518C224.914 3.97533 226.344 2.87467 228.32 2.216C228.822 2.06 229.706 1.83467 230.972 1.54C231.838 1.36667 232.54 1.202 233.078 1.046C233.632 0.889999 234.092 0.699332 234.456 0.473999L235.47 2.268C234.984 2.54533 234.447 2.77067 233.858 2.944C233.286 3.1 232.558 3.26467 231.674 3.438C230.512 3.66333 229.568 3.89733 228.84 4.14C228.025 4.41733 227.254 4.85067 226.526 5.44C225.798 6.02933 225.269 6.85267 224.94 7.91C225.373 7.286 225.815 6.86133 226.266 6.636C226.734 6.41067 227.245 6.298 227.8 6.298C229.585 6.298 230.703 7.312 231.154 9.34C231.552 7.312 232.757 6.298 234.768 6.298C235.652 6.298 236.458 6.52333 237.186 6.974C237.914 7.40733 238.486 8.07467 238.902 8.976C239.335 9.86 239.552 10.952 239.552 12.252C239.552 13.7947 239.404 15.1727 239.11 16.386C238.815 17.5993 238.425 18.804 237.94 20H235.548C236.12 18.492 236.527 17.1573 236.77 15.996C237.012 14.8347 237.134 13.5953 237.134 12.278C237.134 10.8047 236.882 9.76467 236.38 9.158C235.894 8.534 235.288 8.222 234.56 8.222C233.034 8.222 232.272 9.25333 232.272 11.316V15.528L229.984 15.788V11.316C229.984 10.1547 229.784 9.34867 229.386 8.898C229.004 8.44733 228.467 8.222 227.774 8.222C226.006 8.222 225.122 9.64333 225.122 12.486C225.122 13.734 225.234 14.93 225.46 16.074C225.702 17.218 226.101 18.5267 226.656 20H224.29ZM248.69 6.298C248.69 6.90467 248.846 7.47667 249.158 8.014C249.47 8.534 249.946 9.19267 250.588 9.99C251.402 10.9953 252.026 11.888 252.46 12.668C252.893 13.448 253.11 14.3493 253.11 15.372C253.11 16.3773 252.867 17.2613 252.382 18.024C251.914 18.7693 251.272 19.35 250.458 19.766C249.643 20.1647 248.724 20.364 247.702 20.364C246.558 20.364 245.578 20.1387 244.764 19.688C243.966 19.2373 243.36 18.6567 242.944 17.946C242.545 17.218 242.346 16.438 242.346 15.606C242.346 14.6353 242.588 13.708 243.074 12.824L245.102 13.37C244.876 14.046 244.764 14.7653 244.764 15.528C244.764 16.412 245.024 17.1227 245.544 17.66C246.064 18.18 246.783 18.44 247.702 18.44C248.672 18.44 249.392 18.154 249.86 17.582C250.345 17.01 250.588 16.256 250.588 15.32C250.588 14.54 250.423 13.8727 250.094 13.318C249.782 12.746 249.279 12.044 248.586 11.212C248.083 10.6227 247.676 10.12 247.364 9.704C247.069 9.27067 246.818 8.77667 246.61 8.222C246.402 7.65 246.298 7.00867 246.298 6.298H248.69ZM269.064 20C267.92 20 266.932 19.714 266.1 19.142C265.268 18.57 264.627 17.764 264.176 16.724C263.743 15.684 263.526 14.488 263.526 13.136C263.526 11.5413 263.769 10.2067 264.254 9.132C263.439 8.31733 262.538 7.91 261.55 7.91C260.718 7.91 260.016 8.274 259.444 9.002C258.872 9.71267 258.586 10.9953 258.586 12.85C258.586 14.878 259.054 16.464 259.99 17.608C260.943 18.752 262.243 19.688 263.89 20.416C264.93 20.8667 265.727 21.2307 266.282 21.508C266.854 21.8027 267.443 22.1927 268.05 22.678C268.674 23.1807 269.22 23.7787 269.688 24.472L267.946 25.616C267.409 24.784 266.698 24.082 265.814 23.51C264.947 22.938 264.003 22.652 262.98 22.652C261.524 22.652 260.051 23.0507 258.56 23.848L257.858 21.69C258.95 21.326 260.207 21.144 261.628 21.144C260.536 20.624 259.6 20.0347 258.82 19.376C258.04 18.7 257.407 17.8073 256.922 16.698C256.437 15.5713 256.194 14.176 256.194 12.512C256.194 11.0387 256.428 9.81667 256.896 8.846C257.364 7.87533 257.979 7.156 258.742 6.688C259.522 6.22 260.371 5.986 261.29 5.986C261.966 5.986 262.633 6.13333 263.292 6.428C263.968 6.70533 264.575 7.13 265.112 7.702C266.065 6.558 267.374 5.986 269.038 5.986C270.771 5.986 272.132 6.636 273.12 7.936C274.108 9.21867 274.602 10.9607 274.602 13.162C274.602 15.2593 274.108 16.9233 273.12 18.154C272.149 19.3847 270.797 20 269.064 20ZM269.038 7.91C268.085 7.91 267.348 8.34333 266.828 9.21C266.308 10.0767 266.048 11.3853 266.048 13.136C266.048 14.748 266.308 15.9787 266.828 16.828C267.365 17.66 268.111 18.076 269.064 18.076C270.017 18.076 270.754 17.66 271.274 16.828C271.811 15.996 272.08 14.774 272.08 13.162C272.08 11.4113 271.811 10.1027 271.274 9.236C270.754 8.352 270.009 7.91 269.038 7.91ZM295.238 6.298V20.156C295.238 21.144 295.03 22.054 294.614 22.886C294.198 23.718 293.582 24.3767 292.768 24.862C291.953 25.3647 290.991 25.616 289.882 25.616C288.703 25.616 287.706 25.3993 286.892 24.966C286.077 24.5327 285.462 23.952 285.046 23.224C284.647 22.5133 284.448 21.742 284.448 20.91C284.448 20.0087 284.673 19.1507 285.124 18.336L287.152 18.882C286.961 19.4887 286.866 20.13 286.866 20.806C286.866 21.69 287.126 22.392 287.646 22.912C288.183 23.432 288.928 23.692 289.882 23.692C290.904 23.692 291.65 23.328 292.118 22.6C292.603 21.8893 292.846 21.0227 292.846 20V15.268C292.378 15.7533 291.858 16.126 291.286 16.386C290.731 16.6287 290.072 16.75 289.31 16.75C288.443 16.75 287.646 16.542 286.918 16.126C286.19 15.6927 285.609 15.0687 285.176 14.254C284.742 13.422 284.526 12.434 284.526 11.29C284.526 10.302 284.63 9.418 284.838 8.638C285.063 7.84067 285.366 7.06067 285.748 6.298H288.036C287.342 7.99667 286.996 9.63467 286.996 11.212C286.996 12.3213 287.221 13.2053 287.672 13.864C288.122 14.5053 288.816 14.826 289.752 14.826C290.965 14.826 291.996 14.306 292.846 13.266V6.298H295.238ZM306.485 14.618C307.577 14.8087 308.496 15.3547 309.241 16.256C310.004 17.14 310.385 18.3533 310.385 19.896C310.385 20.9533 310.151 21.9153 309.683 22.782C309.232 23.6487 308.565 24.3333 307.681 24.836C306.797 25.356 305.766 25.616 304.587 25.616C303.356 25.616 302.316 25.382 301.467 24.914C300.618 24.4633 299.985 23.8567 299.569 23.094C299.17 22.3313 298.971 21.4907 298.971 20.572C298.971 20.0347 299.032 19.5407 299.153 19.09C299.292 18.622 299.491 18.1453 299.751 17.66L301.779 18.206C301.519 19.0207 301.389 19.792 301.389 20.52C301.389 21.4907 301.658 22.262 302.195 22.834C302.75 23.406 303.547 23.692 304.587 23.692C305.731 23.692 306.563 23.3193 307.083 22.574C307.603 21.8287 307.863 20.8407 307.863 19.61C307.863 18.4833 307.586 17.556 307.031 16.828C306.476 16.0827 305.644 15.71 304.535 15.71H303.443L303.599 13.786H304.587C305.367 13.786 306.026 13.526 306.563 13.006C307.118 12.4687 307.395 11.7233 307.395 10.77C307.395 9.938 307.152 9.25333 306.667 8.716C306.182 8.17867 305.462 7.91 304.509 7.91C303.556 7.91 302.828 8.17 302.325 8.69C301.84 9.19267 301.597 9.84267 301.597 10.64C301.597 11.0907 301.675 11.628 301.831 12.252L299.673 12.642C299.344 11.9313 299.179 11.212 299.179 10.484C299.179 9.63467 299.404 8.872 299.855 8.196C300.323 7.50267 300.956 6.96533 301.753 6.584C302.568 6.18533 303.486 5.986 304.509 5.986C305.549 5.986 306.476 6.194 307.291 6.61C308.106 7.00867 308.738 7.56333 309.189 8.274C309.64 8.96733 309.865 9.74733 309.865 10.614C309.865 11.6887 309.553 12.564 308.929 13.24C308.322 13.916 307.508 14.3753 306.485 14.618ZM318.704 5.986C319.692 5.986 320.576 6.194 321.356 6.61C322.154 7.026 322.769 7.624 323.202 8.404C323.653 9.184 323.878 10.094 323.878 11.134V19.896C323.878 21.0053 323.662 21.9933 323.228 22.86C322.812 23.7267 322.197 24.4027 321.382 24.888C320.585 25.3733 319.632 25.616 318.522 25.616C317.309 25.616 316.295 25.3733 315.48 24.888C314.666 24.4027 314.059 23.7613 313.66 22.964C313.279 22.184 313.088 21.3347 313.088 20.416C313.088 19.272 313.374 18.128 313.946 16.984L316 17.53C315.671 18.4833 315.506 19.4453 315.506 20.416C315.506 21.4213 315.766 22.2187 316.286 22.808C316.806 23.3973 317.552 23.692 318.522 23.692C319.562 23.692 320.316 23.328 320.784 22.6C321.252 21.872 321.486 20.8753 321.486 19.61V11.29C321.486 10.2673 321.261 9.45267 320.81 8.846C320.36 8.222 319.658 7.91 318.704 7.91C317.751 7.91 317.04 8.17867 316.572 8.716C316.122 9.236 315.896 9.87733 315.896 10.64C315.896 11.316 316.009 12.0093 316.234 12.72L314.076 13.162C313.66 12.2953 313.452 11.446 313.452 10.614C313.452 9.71267 313.686 8.91533 314.154 8.222C314.622 7.51133 315.255 6.96533 316.052 6.584C316.85 6.18533 317.734 5.986 318.704 5.986ZM346.13 5.986C346.997 5.986 347.794 6.21133 348.522 6.662C349.25 7.11267 349.831 7.78867 350.264 8.69C350.715 9.59133 350.94 10.692 350.94 11.992C350.94 13.3267 350.845 14.4967 350.654 15.502C350.464 16.49 350.178 17.4 349.796 18.232L347.716 17.686C347.994 16.75 348.193 15.8487 348.314 14.982C348.453 14.1153 348.522 13.1273 348.522 12.018C348.522 10.51 348.28 9.45267 347.794 8.846C347.309 8.222 346.694 7.91 345.948 7.91C345.29 7.91 344.761 8.144 344.362 8.612C343.964 9.06267 343.764 9.756 343.764 10.692V15.58L341.476 15.788V10.692C341.476 9.756 341.277 9.06267 340.878 8.612C340.48 8.144 339.942 7.91 339.266 7.91C338.59 7.91 338.044 8.144 337.628 8.612C337.23 9.06267 337.03 9.756 337.03 10.692V15.528L334.742 15.788V10.692C334.742 9.756 334.543 9.06267 334.144 8.612C333.746 8.144 333.208 7.91 332.532 7.91C331.718 7.91 331.085 8.29133 330.634 9.054C330.201 9.79933 329.984 10.8913 329.984 12.33C329.984 14.046 330.357 15.4327 331.102 16.49C331.848 17.5473 332.714 18.336 333.702 18.856C334.708 19.376 335.973 19.8873 337.498 20.39C339.11 20.9273 340.506 21.482 341.684 22.054C342.863 22.6433 343.782 23.406 344.44 24.342L342.932 25.616C341.944 24.524 340.948 23.7527 339.942 23.302C338.954 22.8687 337.888 22.652 336.744 22.652C335.843 22.652 334.994 22.7733 334.196 23.016C333.399 23.276 332.593 23.6487 331.778 24.134L331.076 21.976C331.752 21.6813 332.402 21.4647 333.026 21.326C333.65 21.2047 334.387 21.144 335.236 21.144C333 20.6587 331.163 19.6967 329.724 18.258C328.303 16.8193 327.592 14.8173 327.592 12.252C327.592 10.1547 328.034 8.586 328.918 7.546C329.802 6.506 330.92 5.986 332.272 5.986C334.231 5.986 335.444 6.95667 335.912 8.898C336.086 7.94467 336.45 7.22533 337.004 6.74C337.576 6.23733 338.313 5.986 339.214 5.986C340.185 5.986 340.939 6.22 341.476 6.688C342.014 7.156 342.404 7.89267 342.646 8.898C342.82 7.94467 343.21 7.22533 343.816 6.74C344.423 6.23733 345.194 5.986 346.13 5.986ZM360.078 6.298C360.078 6.90467 360.234 7.47667 360.546 8.014C360.858 8.534 361.335 9.19267 361.976 9.99C362.791 10.9953 363.415 11.888 363.848 12.668C364.282 13.448 364.498 14.3493 364.498 15.372C364.498 16.3773 364.256 17.2613 363.77 18.024C363.302 18.7693 362.661 19.35 361.846 19.766C361.032 20.1647 360.113 20.364 359.09 20.364C357.946 20.364 356.967 20.1387 356.152 19.688C355.355 19.2373 354.748 18.6567 354.332 17.946C353.934 17.218 353.734 16.438 353.734 15.606C353.734 14.6353 353.977 13.708 354.462 12.824L356.49 13.37C356.265 14.046 356.152 14.7653 356.152 15.528C356.152 16.412 356.412 17.1227 356.932 17.66C357.452 18.18 358.172 18.44 359.09 18.44C360.061 18.44 360.78 18.154 361.248 17.582C361.734 17.01 361.976 16.256 361.976 15.32C361.976 14.54 361.812 13.8727 361.482 13.318C361.17 12.746 360.668 12.044 359.974 11.212C359.472 10.6227 359.064 10.12 358.752 9.704C358.458 9.27067 358.206 8.77667 357.998 8.222C357.79 7.65 357.686 7.00867 357.686 6.298H360.078ZM374.958 0.785999L377.35 0.421999V13.578C377.35 15.2073 377.601 16.438 378.104 17.27C378.606 18.0847 379.438 18.492 380.6 18.492C381.622 18.492 382.402 18.128 382.94 17.4C383.477 16.672 383.746 15.6927 383.746 14.462C383.746 13.578 383.616 12.824 383.356 12.2C383.096 11.576 382.714 10.8827 382.212 10.12C381.726 9.34 381.371 8.69 381.146 8.17C380.92 7.65 380.808 7.026 380.808 6.298H383.2C383.2 6.80067 383.295 7.26 383.486 7.676C383.694 8.092 384.006 8.612 384.422 9.236C385.011 10.1027 385.453 10.9087 385.748 11.654C386.06 12.3993 386.216 13.3353 386.216 14.462C386.216 15.554 386.008 16.5507 385.592 17.452C385.176 18.336 384.543 19.0467 383.694 19.584C382.844 20.104 381.804 20.364 380.574 20.364C378.736 20.364 377.341 19.8093 376.388 18.7C375.434 17.5733 374.958 15.9267 374.958 13.76V0.785999ZM389.317 12.434C389.317 11.1687 389.542 10.0507 389.993 9.08C390.444 8.10933 391.085 7.35533 391.917 6.818C392.766 6.26333 393.763 5.986 394.907 5.986C396.64 5.986 397.992 6.56667 398.963 7.728C399.951 8.88933 400.445 10.458 400.445 12.434C400.445 13.8727 400.289 15.2073 399.977 16.438C399.682 17.6513 399.292 18.8387 398.807 20H396.441C396.961 18.6133 397.351 17.3133 397.611 16.1C397.888 14.8693 398.027 13.6473 398.027 12.434C398.027 10.926 397.75 9.79933 397.195 9.054C396.64 8.29133 395.878 7.91 394.907 7.91C393.919 7.91 393.139 8.29133 392.567 9.054C392.012 9.79933 391.735 10.926 391.735 12.434C391.735 13.6473 391.865 14.8693 392.125 16.1C392.402 17.3133 392.801 18.6133 393.321 20H390.955C390.47 18.8387 390.071 17.6513 389.759 16.438C389.464 15.2073 389.317 13.8727 389.317 12.434ZM409.565 6.298C409.565 6.90467 409.721 7.47667 410.033 8.014C410.345 8.534 410.821 9.19267 411.463 9.99C412.277 10.9953 412.901 11.888 413.335 12.668C413.768 13.448 413.985 14.3493 413.985 15.372C413.985 16.3773 413.742 17.2613 413.257 18.024C412.789 18.7693 412.147 19.35 411.333 19.766C410.518 20.1647 409.599 20.364 408.577 20.364C407.433 20.364 406.453 20.1387 405.639 19.688C404.841 19.2373 404.235 18.6567 403.819 17.946C403.42 17.218 403.221 16.438 403.221 15.606C403.221 14.6353 403.463 13.708 403.949 12.824L405.977 13.37C405.751 14.046 405.639 14.7653 405.639 15.528C405.639 16.412 405.899 17.1227 406.419 17.66C406.939 18.18 407.658 18.44 408.577 18.44C409.547 18.44 410.267 18.154 410.735 17.582C411.22 17.01 411.463 16.256 411.463 15.32C411.463 14.54 411.298 13.8727 410.969 13.318C410.657 12.746 410.154 12.044 409.461 11.212C408.958 10.6227 408.551 10.12 408.239 9.704C407.944 9.27067 407.693 8.77667 407.485 8.222C407.277 7.65 407.173 7.00867 407.173 6.298H409.565ZM423.803 5.986C425.45 5.986 426.715 6.64467 427.599 7.962C428.483 9.262 428.925 10.9607 428.925 13.058C428.925 15.346 428.422 17.14 427.417 18.44C426.412 19.7227 424.99 20.364 423.153 20.364C421.402 20.364 420.033 19.8007 419.045 18.674C418.057 17.53 417.563 15.866 417.563 13.682V0.785999L419.955 0.421999V7.728C421.047 6.56667 422.33 5.986 423.803 5.986ZM423.153 18.44C424.228 18.44 425.025 17.998 425.545 17.114C426.082 16.23 426.351 14.878 426.351 13.058C426.351 9.626 425.363 7.91 423.387 7.91C422.07 7.91 420.926 8.52533 419.955 9.756V13.474C419.955 15.2073 420.215 16.4727 420.735 17.27C421.255 18.05 422.061 18.44 423.153 18.44ZM450.689 5.986C451.556 5.986 452.353 6.21133 453.081 6.662C453.809 7.11267 454.39 7.78867 454.823 8.69C455.274 9.59133 455.499 10.692 455.499 11.992C455.499 13.3267 455.404 14.4967 455.213 15.502C455.022 16.49 454.736 17.4 454.355 18.232L452.275 17.686C452.552 16.75 452.752 15.8487 452.873 14.982C453.012 14.1153 453.081 13.1273 453.081 12.018C453.081 10.51 452.838 9.45267 452.353 8.846C451.868 8.222 451.252 7.91 450.507 7.91C449.848 7.91 449.32 8.144 448.921 8.612C448.522 9.06267 448.323 9.756 448.323 10.692V15.58L446.035 15.788V10.692C446.035 9.756 445.836 9.06267 445.437 8.612C445.038 8.144 444.501 7.91 443.825 7.91C443.149 7.91 442.603 8.144 442.187 8.612C441.788 9.06267 441.589 9.756 441.589 10.692V15.528L439.301 15.788V10.692C439.301 9.756 439.102 9.06267 438.703 8.612C438.304 8.144 437.767 7.91 437.091 7.91C436.276 7.91 435.644 8.29133 435.193 9.054C434.76 9.79933 434.543 10.8913 434.543 12.33C434.543 14.046 434.916 15.4327 435.661 16.49C436.406 17.5473 437.273 18.336 438.261 18.856C439.266 19.376 440.532 19.8873 442.057 20.39C443.669 20.9273 445.064 21.482 446.243 22.054C447.422 22.6433 448.34 23.406 448.999 24.342L447.491 25.616C446.503 24.524 445.506 23.7527 444.501 23.302C443.513 22.8687 442.447 22.652 441.303 22.652C440.402 22.652 439.552 22.7733 438.755 23.016C437.958 23.276 437.152 23.6487 436.337 24.134L435.635 21.976C436.311 21.6813 436.961 21.4647 437.585 21.326C438.209 21.2047 438.946 21.144 439.795 21.144C437.559 20.6587 435.722 19.6967 434.283 18.258C432.862 16.8193 432.151 14.8173 432.151 12.252C432.151 10.1547 432.593 8.586 433.477 7.546C434.361 6.506 435.479 5.986 436.831 5.986C438.79 5.986 440.003 6.95667 440.471 8.898C440.644 7.94467 441.008 7.22533 441.563 6.74C442.135 6.23733 442.872 5.986 443.773 5.986C444.744 5.986 445.498 6.22 446.035 6.688C446.572 7.156 446.962 7.89267 447.205 8.898C447.378 7.94467 447.768 7.22533 448.375 6.74C448.982 6.23733 449.753 5.986 450.689 5.986ZM464.091 5.986C465.079 5.986 465.963 6.194 466.743 6.61C467.54 7.026 468.156 7.624 468.589 8.404C469.04 9.184 469.265 10.094 469.265 11.134V19.896C469.265 21.0053 469.048 21.9933 468.615 22.86C468.199 23.7267 467.584 24.4027 466.769 24.888C465.972 25.3733 465.018 25.616 463.909 25.616C462.696 25.616 461.682 25.3733 460.867 24.888C460.052 24.4027 459.446 23.7613 459.047 22.964C458.666 22.184 458.475 21.3347 458.475 20.416C458.475 19.272 458.761 18.128 459.333 16.984L461.387 17.53C461.058 18.4833 460.893 19.4453 460.893 20.416C460.893 21.4213 461.153 22.2187 461.673 22.808C462.193 23.3973 462.938 23.692 463.909 23.692C464.949 23.692 465.703 23.328 466.171 22.6C466.639 21.872 466.873 20.8753 466.873 19.61V11.29C466.873 10.2673 466.648 9.45267 466.197 8.846C465.746 8.222 465.044 7.91 464.091 7.91C463.138 7.91 462.427 8.17867 461.959 8.716C461.508 9.236 461.283 9.87733 461.283 10.64C461.283 11.316 461.396 12.0093 461.621 12.72L459.463 13.162C459.047 12.2953 458.839 11.446 458.839 10.614C458.839 9.71267 459.073 8.91533 459.541 8.222C460.009 7.51133 460.642 6.96533 461.439 6.584C462.236 6.18533 463.12 5.986 464.091 5.986Z" fill="#4E6FAE"/>
</svg>
