<svg width="62" height="24" viewBox="0 0 62 24" fill="none" xmlns="http://www.w3.org/2000/svg">
<path d="M5.33905 12.8648C3.29714 12.8648 2.2 14.5714 2.2 17.4057C2.2 18.6552 2.50476 19.7524 3.08381 20.6362C3.69333 21.52 4.48571 21.9467 5.49143 21.9467C7.10667 21.9467 8.44762 20.7886 8.44762 17.6495C8.44762 14.1448 7.41143 12.8648 5.33905 12.8648ZM0.249524 17.4057C0.249524 15.7905 0.67619 14.3276 1.52952 13.0781C2.41333 11.7981 3.66286 11.1581 5.30857 11.1581C6.58857 11.1581 7.62476 11.7371 8.38667 12.8648H8.6V5.85524C8.6 3.50857 7.44191 2.25905 5.64381 2.25905C3.93714 2.25905 2.53524 3.38667 2.53524 4.72762C2.53524 5.76381 2.74857 6.61714 3.20571 7.3181L1.52952 7.89714C1.07238 6.98286 0.859048 5.97714 0.859048 4.91048C0.950476 2.13714 2.7181 0.521906 5.64381 0.521906C8.7219 0.521906 10.3981 2.50286 10.3981 5.82476V17.68C10.3981 21.7333 8.38667 23.6533 5.49143 23.6533C3.87619 23.6533 2.59619 23.0438 1.65143 21.8248C0.706667 20.5752 0.249524 19.1124 0.249524 17.4057ZM22.9097 18.4114C22.9097 19.9657 22.4221 21.2457 21.4773 22.221C20.5326 23.1657 19.4354 23.6533 18.1554 23.6533C16.7535 23.6533 15.5649 23.1962 14.6202 22.2514C13.6754 21.3067 13.2183 20.0876 13.2183 18.6248C13.2183 17.619 13.6449 16.5524 14.5287 15.4248L15.8087 16.4914C15.3821 17.0705 15.1688 17.7714 15.1688 18.6248C15.1688 20.7886 16.3268 21.9467 18.1554 21.9467C19.9535 21.9467 20.9288 20.8495 20.9288 18.4114C20.9288 16.9181 20.1059 15.5467 18.4907 14.2362C16.8754 12.9257 16.083 11.6457 16.083 10.3352H17.9116C17.9116 11.4324 18.7345 12.6514 20.4107 13.9619C22.0868 15.2724 22.9097 16.7352 22.9097 18.4114ZM30.4953 11.1581C33.6648 11.1581 35.5543 13.261 35.5543 16.9486C35.5543 19.1733 34.9143 21.3371 33.6039 23.501H31.8667C33.0248 21.1543 33.6039 18.96 33.6039 16.8876C33.6039 14.2971 32.5372 12.8648 30.4953 12.8648C28.4229 12.8648 27.3563 14.2971 27.3563 16.8876C27.3563 18.7467 27.9048 20.9714 29.0324 23.501H27.2953C26.0458 21.1543 25.4058 18.96 25.4058 16.9486C25.4058 13.261 27.2953 11.1581 30.4953 11.1581ZM48.5458 18.0457C48.5458 19.6 48.0582 20.9105 47.1135 22.0076C46.1687 23.1048 44.9496 23.6533 43.4563 23.6533C40.2868 23.6533 38.3668 21.0933 38.3668 17.1924V0.857143H40.1649V17.1924C40.1649 20.5752 41.6277 21.9467 43.4563 21.9467C45.3154 21.9467 46.6258 20.7581 46.6258 18.0457C46.6258 16.7657 46.1382 15.6686 45.163 14.7543C44.1877 13.84 43.7001 12.9562 43.7001 12.1029C43.7001 11.219 43.7915 10.4571 43.9744 9.75619L45.3763 9.8781C45.2849 10.701 45.2239 11.4019 45.2239 12.0114C45.2239 12.4686 45.7725 13.2 46.8696 14.2057C47.9973 15.2114 48.5458 16.4914 48.5458 18.0457ZM56.1203 11.1581C59.2898 11.1581 61.1793 13.261 61.1793 16.9486C61.1793 19.1733 60.5393 21.3371 59.2289 23.501H57.4917C58.6498 21.1543 59.2289 18.96 59.2289 16.8876C59.2289 14.2971 58.1622 12.8648 56.1203 12.8648C54.0479 12.8648 52.9813 14.2971 52.9813 16.8876C52.9813 18.7467 53.5298 20.9714 54.6574 23.501H52.9203C51.6708 21.1543 51.0308 18.96 51.0308 16.9486C51.0308 13.261 52.9203 11.1581 56.1203 11.1581Z" fill="#8D81FF"/>
</svg>
