<svg width="192" height="16" viewBox="0 0 192 16" fill="none" xmlns="http://www.w3.org/2000/svg">
<path d="M5.39062 10.7031L8.21289 0.78125H9.58008L8.78906 4.63867L5.75195 15H4.39453L5.39062 10.7031ZM2.4707 0.78125L4.7168 10.5078L5.39062 15H4.04297L0.595703 0.78125H2.4707ZM13.2324 10.498L15.4297 0.78125H17.3145L13.877 15H12.5293L13.2324 10.498ZM9.78516 0.78125L12.5293 10.7031L13.5254 15H12.168L9.23828 4.63867L8.4375 0.78125H9.78516ZM28.4375 13.4668V15H20.9082V13.4668H28.4375ZM21.2891 0.78125V15H19.4043V0.78125H21.2891ZM27.4414 6.89453V8.42773H20.9082V6.89453H27.4414ZM28.3398 0.78125V2.32422H20.9082V0.78125H28.3398ZM35.8398 8.34961H32.2363L32.2168 6.83594H35.4883C36.0286 6.83594 36.5007 6.74479 36.9043 6.5625C37.3079 6.38021 37.6204 6.11979 37.8418 5.78125C38.0697 5.4362 38.1836 5.02604 38.1836 4.55078C38.1836 4.02995 38.0827 3.60677 37.8809 3.28125C37.6855 2.94922 37.3828 2.70833 36.9727 2.55859C36.569 2.40234 36.0547 2.32422 35.4297 2.32422H32.6562V15H30.7715V0.78125H35.4297C36.1589 0.78125 36.8099 0.85612 37.3828 1.00586C37.9557 1.14909 38.4408 1.37695 38.8379 1.68945C39.2415 1.99544 39.5475 2.38607 39.7559 2.86133C39.9642 3.33659 40.0684 3.90625 40.0684 4.57031C40.0684 5.15625 39.9186 5.68685 39.6191 6.16211C39.3197 6.63086 38.903 7.01497 38.3691 7.31445C37.8418 7.61393 37.2233 7.80599 36.5137 7.89062L35.8398 8.34961ZM35.752 15H31.4941L32.5586 13.4668H35.752C36.3509 13.4668 36.8587 13.3626 37.2754 13.1543C37.6986 12.946 38.0208 12.653 38.2422 12.2754C38.4635 11.8913 38.5742 11.4388 38.5742 10.918C38.5742 10.3906 38.4798 9.9349 38.291 9.55078C38.1022 9.16667 37.806 8.87044 37.4023 8.66211C36.9987 8.45378 36.4779 8.34961 35.8398 8.34961H33.1543L33.1738 6.83594H36.8457L37.2461 7.38281C37.9297 7.44141 38.5091 7.63672 38.9844 7.96875C39.4596 8.29427 39.821 8.71094 40.0684 9.21875C40.3223 9.72656 40.4492 10.2865 40.4492 10.8984C40.4492 11.7839 40.2539 12.5326 39.8633 13.1445C39.4792 13.75 38.9355 14.2122 38.2324 14.5312C37.5293 14.8438 36.7025 15 35.752 15ZM48.4766 9.42383H44.6777V7.89062H48.4766C49.2122 7.89062 49.8079 7.77344 50.2637 7.53906C50.7194 7.30469 51.0514 6.97917 51.2598 6.5625C51.4746 6.14583 51.582 5.67057 51.582 5.13672C51.582 4.64844 51.4746 4.18945 51.2598 3.75977C51.0514 3.33008 50.7194 2.98503 50.2637 2.72461C49.8079 2.45768 49.2122 2.32422 48.4766 2.32422H45.1172V15H43.2324V0.78125H48.4766C49.5508 0.78125 50.459 0.966797 51.2012 1.33789C51.9434 1.70898 52.5065 2.22331 52.8906 2.88086C53.2747 3.5319 53.4668 4.27734 53.4668 5.11719C53.4668 6.02865 53.2747 6.80664 52.8906 7.45117C52.5065 8.0957 51.9434 8.58724 51.2012 8.92578C50.459 9.25781 49.5508 9.42383 48.4766 9.42383ZM59.7656 2.04102L55.0586 15H53.1348L58.5547 0.78125H59.7949L59.7656 2.04102ZM63.7109 15L58.9941 2.04102L58.9648 0.78125H60.2051L65.6445 15H63.7109ZM63.4668 9.73633V11.2793H55.4785V9.73633H63.4668ZM77.9395 7.91992V13.125C77.7637 13.3854 77.4837 13.6784 77.0996 14.0039C76.7155 14.3229 76.1849 14.6029 75.5078 14.8438C74.8372 15.0781 73.9714 15.1953 72.9102 15.1953C72.0443 15.1953 71.2467 15.0456 70.5176 14.7461C69.7949 14.4401 69.1667 13.9974 68.6328 13.418C68.1055 12.832 67.6953 12.1224 67.4023 11.2891C67.1159 10.4492 66.9727 9.4987 66.9727 8.4375V7.33398C66.9727 6.27279 67.0964 5.32552 67.3438 4.49219C67.5977 3.65885 67.9688 2.95247 68.457 2.37305C68.9453 1.78711 69.5443 1.3444 70.2539 1.04492C70.9635 0.738932 71.7773 0.585938 72.6953 0.585938C73.7826 0.585938 74.6908 0.77474 75.4199 1.15234C76.1556 1.52344 76.7285 2.03776 77.1387 2.69531C77.5553 3.35286 77.8223 4.10156 77.9395 4.94141H76.0547C75.9701 4.42708 75.8008 3.95833 75.5469 3.53516C75.2995 3.11198 74.9447 2.77344 74.4824 2.51953C74.0202 2.25911 73.4245 2.12891 72.6953 2.12891C72.0378 2.12891 71.4681 2.24935 70.9863 2.49023C70.5046 2.73112 70.1074 3.07617 69.7949 3.52539C69.4824 3.97461 69.248 4.51823 69.0918 5.15625C68.9421 5.79427 68.8672 6.51367 68.8672 7.31445V8.4375C68.8672 9.25781 68.9616 9.99023 69.1504 10.6348C69.3457 11.2793 69.6224 11.8294 69.9805 12.2852C70.3385 12.7344 70.765 13.0762 71.2598 13.3105C71.7611 13.5449 72.3145 13.6621 72.9199 13.6621C73.5905 13.6621 74.1341 13.6068 74.5508 13.4961C74.9674 13.3789 75.293 13.2422 75.5273 13.0859C75.7617 12.9232 75.9408 12.7702 76.0645 12.627V9.44336H72.7734V7.91992H77.9395ZM90.0977 13.4668V15H82.5684V13.4668H90.0977ZM82.9492 0.78125V15H81.0645V0.78125H82.9492ZM89.1016 6.89453V8.42773H82.5684V6.89453H89.1016ZM90 0.78125V2.32422H82.5684V0.78125H90ZM102.656 2.04102L97.9492 15H96.0254L101.445 0.78125H102.686L102.656 2.04102ZM106.602 15L101.885 2.04102L101.855 0.78125H103.096L108.535 15H106.602ZM106.357 9.73633V11.2793H98.3691V9.73633H106.357ZM114.287 15H111.318L111.338 13.4668H114.287C115.303 13.4668 116.149 13.2552 116.826 12.832C117.503 12.4023 118.011 11.8034 118.35 11.0352C118.695 10.2604 118.867 9.35547 118.867 8.32031V7.45117C118.867 6.63737 118.77 5.91471 118.574 5.2832C118.379 4.64518 118.092 4.10807 117.715 3.67188C117.337 3.22917 116.875 2.89388 116.328 2.66602C115.788 2.43815 115.166 2.32422 114.463 2.32422H111.26V0.78125H114.463C115.394 0.78125 116.243 0.9375 117.012 1.25C117.78 1.55599 118.441 2.00195 118.994 2.58789C119.554 3.16732 119.984 3.87044 120.283 4.69727C120.583 5.51758 120.732 6.44206 120.732 7.4707V8.32031C120.732 9.34896 120.583 10.2767 120.283 11.1035C119.984 11.9238 119.551 12.6237 118.984 13.2031C118.424 13.7826 117.747 14.2285 116.953 14.541C116.165 14.847 115.277 15 114.287 15ZM112.324 0.78125V15H110.439V0.78125H112.324ZM123.564 0.78125H128.271C129.339 0.78125 130.241 0.94401 130.977 1.26953C131.719 1.59505 132.282 2.07682 132.666 2.71484C133.057 3.34635 133.252 4.12435 133.252 5.04883C133.252 5.69987 133.118 6.29557 132.852 6.83594C132.591 7.36979 132.214 7.82552 131.719 8.20312C131.23 8.57422 130.645 8.85091 129.961 9.0332L129.434 9.23828H125.01L124.99 7.70508H128.33C129.007 7.70508 129.57 7.58789 130.02 7.35352C130.469 7.11263 130.807 6.79036 131.035 6.38672C131.263 5.98307 131.377 5.53711 131.377 5.04883C131.377 4.50195 131.27 4.02344 131.055 3.61328C130.84 3.20312 130.501 2.88737 130.039 2.66602C129.583 2.43815 128.994 2.32422 128.271 2.32422H125.449V15H123.564V0.78125ZM131.875 15L128.418 8.55469L130.381 8.54492L133.887 14.8828V15H131.875ZM144.922 13.4668V15H137.393V13.4668H144.922ZM137.773 0.78125V15H135.889V0.78125H137.773ZM143.926 6.89453V8.42773H137.393V6.89453H143.926ZM144.824 0.78125V2.32422H137.393V0.78125H144.824ZM154.834 11.4062C154.834 11.0742 154.782 10.7812 154.678 10.5273C154.58 10.2669 154.404 10.0326 154.15 9.82422C153.903 9.61589 153.558 9.41732 153.115 9.22852C152.679 9.03971 152.126 8.84766 151.455 8.65234C150.752 8.44401 150.117 8.21289 149.551 7.95898C148.984 7.69857 148.499 7.40234 148.096 7.07031C147.692 6.73828 147.383 6.35742 147.168 5.92773C146.953 5.49805 146.846 5.00651 146.846 4.45312C146.846 3.89974 146.96 3.38867 147.188 2.91992C147.415 2.45117 147.741 2.04427 148.164 1.69922C148.594 1.34766 149.105 1.07422 149.697 0.878906C150.29 0.683594 150.951 0.585938 151.68 0.585938C152.747 0.585938 153.652 0.791016 154.395 1.20117C155.143 1.60482 155.713 2.13542 156.104 2.79297C156.494 3.44401 156.689 4.14062 156.689 4.88281H154.814C154.814 4.34896 154.701 3.87695 154.473 3.4668C154.245 3.05013 153.9 2.72461 153.438 2.49023C152.975 2.24935 152.389 2.12891 151.68 2.12891C151.009 2.12891 150.456 2.22982 150.02 2.43164C149.583 2.63346 149.258 2.9069 149.043 3.25195C148.835 3.59701 148.73 3.99089 148.73 4.43359C148.73 4.73307 148.792 5.00651 148.916 5.25391C149.046 5.49479 149.245 5.7194 149.512 5.92773C149.785 6.13607 150.13 6.32812 150.547 6.50391C150.97 6.67969 151.475 6.84896 152.061 7.01172C152.868 7.23958 153.564 7.49349 154.15 7.77344C154.736 8.05339 155.218 8.36914 155.596 8.7207C155.98 9.06576 156.263 9.45964 156.445 9.90234C156.634 10.3385 156.729 10.8333 156.729 11.3867C156.729 11.9661 156.611 12.4902 156.377 12.959C156.143 13.4277 155.807 13.8281 155.371 14.1602C154.935 14.4922 154.411 14.7493 153.799 14.9316C153.193 15.1074 152.516 15.1953 151.768 15.1953C151.11 15.1953 150.462 15.1042 149.824 14.9219C149.193 14.7396 148.617 14.4661 148.096 14.1016C147.581 13.737 147.168 13.2878 146.855 12.7539C146.549 12.2135 146.396 11.5885 146.396 10.8789H148.271C148.271 11.3672 148.366 11.7871 148.555 12.1387C148.743 12.4837 149.001 12.7702 149.326 12.998C149.658 13.2259 150.033 13.3952 150.449 13.5059C150.872 13.61 151.312 13.6621 151.768 13.6621C152.425 13.6621 152.982 13.571 153.438 13.3887C153.893 13.2064 154.238 12.946 154.473 12.6074C154.714 12.2689 154.834 11.8685 154.834 11.4062ZM166.709 11.4062C166.709 11.0742 166.657 10.7812 166.553 10.5273C166.455 10.2669 166.279 10.0326 166.025 9.82422C165.778 9.61589 165.433 9.41732 164.99 9.22852C164.554 9.03971 164.001 8.84766 163.33 8.65234C162.627 8.44401 161.992 8.21289 161.426 7.95898C160.859 7.69857 160.374 7.40234 159.971 7.07031C159.567 6.73828 159.258 6.35742 159.043 5.92773C158.828 5.49805 158.721 5.00651 158.721 4.45312C158.721 3.89974 158.835 3.38867 159.062 2.91992C159.29 2.45117 159.616 2.04427 160.039 1.69922C160.469 1.34766 160.98 1.07422 161.572 0.878906C162.165 0.683594 162.826 0.585938 163.555 0.585938C164.622 0.585938 165.527 0.791016 166.27 1.20117C167.018 1.60482 167.588 2.13542 167.979 2.79297C168.369 3.44401 168.564 4.14062 168.564 4.88281H166.689C166.689 4.34896 166.576 3.87695 166.348 3.4668C166.12 3.05013 165.775 2.72461 165.312 2.49023C164.85 2.24935 164.264 2.12891 163.555 2.12891C162.884 2.12891 162.331 2.22982 161.895 2.43164C161.458 2.63346 161.133 2.9069 160.918 3.25195C160.71 3.59701 160.605 3.99089 160.605 4.43359C160.605 4.73307 160.667 5.00651 160.791 5.25391C160.921 5.49479 161.12 5.7194 161.387 5.92773C161.66 6.13607 162.005 6.32812 162.422 6.50391C162.845 6.67969 163.35 6.84896 163.936 7.01172C164.743 7.23958 165.439 7.49349 166.025 7.77344C166.611 8.05339 167.093 8.36914 167.471 8.7207C167.855 9.06576 168.138 9.45964 168.32 9.90234C168.509 10.3385 168.604 10.8333 168.604 11.3867C168.604 11.9661 168.486 12.4902 168.252 12.959C168.018 13.4277 167.682 13.8281 167.246 14.1602C166.81 14.4922 166.286 14.7493 165.674 14.9316C165.068 15.1074 164.391 15.1953 163.643 15.1953C162.985 15.1953 162.337 15.1042 161.699 14.9219C161.068 14.7396 160.492 14.4661 159.971 14.1016C159.456 13.737 159.043 13.2878 158.73 12.7539C158.424 12.2135 158.271 11.5885 158.271 10.8789H160.146C160.146 11.3672 160.241 11.7871 160.43 12.1387C160.618 12.4837 160.876 12.7702 161.201 12.998C161.533 13.2259 161.908 13.3952 162.324 13.5059C162.747 13.61 163.187 13.6621 163.643 13.6621C164.3 13.6621 164.857 13.571 165.312 13.3887C165.768 13.2064 166.113 12.946 166.348 12.6074C166.589 12.2689 166.709 11.8685 166.709 11.4062ZM180.039 13.4668V15H172.51V13.4668H180.039ZM172.891 0.78125V15H171.006V0.78125H172.891ZM179.043 6.89453V8.42773H172.51V6.89453H179.043ZM179.941 0.78125V2.32422H172.51V0.78125H179.941ZM189.951 11.4062C189.951 11.0742 189.899 10.7812 189.795 10.5273C189.697 10.2669 189.521 10.0326 189.268 9.82422C189.02 9.61589 188.675 9.41732 188.232 9.22852C187.796 9.03971 187.243 8.84766 186.572 8.65234C185.869 8.44401 185.234 8.21289 184.668 7.95898C184.102 7.69857 183.617 7.40234 183.213 7.07031C182.809 6.73828 182.5 6.35742 182.285 5.92773C182.07 5.49805 181.963 5.00651 181.963 4.45312C181.963 3.89974 182.077 3.38867 182.305 2.91992C182.533 2.45117 182.858 2.04427 183.281 1.69922C183.711 1.34766 184.222 1.07422 184.814 0.878906C185.407 0.683594 186.068 0.585938 186.797 0.585938C187.865 0.585938 188.77 0.791016 189.512 1.20117C190.26 1.60482 190.83 2.13542 191.221 2.79297C191.611 3.44401 191.807 4.14062 191.807 4.88281H189.932C189.932 4.34896 189.818 3.87695 189.59 3.4668C189.362 3.05013 189.017 2.72461 188.555 2.49023C188.092 2.24935 187.507 2.12891 186.797 2.12891C186.126 2.12891 185.573 2.22982 185.137 2.43164C184.701 2.63346 184.375 2.9069 184.16 3.25195C183.952 3.59701 183.848 3.99089 183.848 4.43359C183.848 4.73307 183.91 5.00651 184.033 5.25391C184.163 5.49479 184.362 5.7194 184.629 5.92773C184.902 6.13607 185.247 6.32812 185.664 6.50391C186.087 6.67969 186.592 6.84896 187.178 7.01172C187.985 7.23958 188.682 7.49349 189.268 7.77344C189.854 8.05339 190.335 8.36914 190.713 8.7207C191.097 9.06576 191.38 9.45964 191.562 9.90234C191.751 10.3385 191.846 10.8333 191.846 11.3867C191.846 11.9661 191.729 12.4902 191.494 12.959C191.26 13.4277 190.924 13.8281 190.488 14.1602C190.052 14.4922 189.528 14.7493 188.916 14.9316C188.311 15.1074 187.633 15.1953 186.885 15.1953C186.227 15.1953 185.579 15.1042 184.941 14.9219C184.31 14.7396 183.734 14.4661 183.213 14.1016C182.699 13.737 182.285 13.2878 181.973 12.7539C181.667 12.2135 181.514 11.5885 181.514 10.8789H183.389C183.389 11.3672 183.483 11.7871 183.672 12.1387C183.861 12.4837 184.118 12.7702 184.443 12.998C184.775 13.2259 185.15 13.3952 185.566 13.5059C185.99 13.61 186.429 13.6621 186.885 13.6621C187.542 13.6621 188.099 13.571 188.555 13.3887C189.01 13.2064 189.355 12.946 189.59 12.6074C189.831 12.2689 189.951 11.8685 189.951 11.4062Z" fill="#3F4145"/>
</svg>
