<svg width="216" height="16" viewBox="0 0 216 16" fill="none" xmlns="http://www.w3.org/2000/svg">
<path d="M5.39062 10.7031L8.21289 0.78125H9.58008L8.78906 4.63867L5.75195 15H4.39453L5.39062 10.7031ZM2.4707 0.78125L4.7168 10.5078L5.39062 15H4.04297L0.595703 0.78125H2.4707ZM13.2324 10.498L15.4297 0.78125H17.3145L13.877 15H12.5293L13.2324 10.498ZM9.78516 0.78125L12.5293 10.7031L13.5254 15H12.168L9.23828 4.63867L8.4375 0.78125H9.78516ZM28.4375 13.4668V15H20.9082V13.4668H28.4375ZM21.2891 0.78125V15H19.4043V0.78125H21.2891ZM27.4414 6.89453V8.42773H20.9082V6.89453H27.4414ZM28.3398 0.78125V2.32422H20.9082V0.78125H28.3398ZM35.8398 8.34961H32.2363L32.2168 6.83594H35.4883C36.0286 6.83594 36.5007 6.74479 36.9043 6.5625C37.3079 6.38021 37.6204 6.11979 37.8418 5.78125C38.0697 5.4362 38.1836 5.02604 38.1836 4.55078C38.1836 4.02995 38.0827 3.60677 37.8809 3.28125C37.6855 2.94922 37.3828 2.70833 36.9727 2.55859C36.569 2.40234 36.0547 2.32422 35.4297 2.32422H32.6562V15H30.7715V0.78125H35.4297C36.1589 0.78125 36.8099 0.85612 37.3828 1.00586C37.9557 1.14909 38.4408 1.37695 38.8379 1.68945C39.2415 1.99544 39.5475 2.38607 39.7559 2.86133C39.9642 3.33659 40.0684 3.90625 40.0684 4.57031C40.0684 5.15625 39.9186 5.68685 39.6191 6.16211C39.3197 6.63086 38.903 7.01497 38.3691 7.31445C37.8418 7.61393 37.2233 7.80599 36.5137 7.89062L35.8398 8.34961ZM35.752 15H31.4941L32.5586 13.4668H35.752C36.3509 13.4668 36.8587 13.3626 37.2754 13.1543C37.6986 12.946 38.0208 12.653 38.2422 12.2754C38.4635 11.8913 38.5742 11.4388 38.5742 10.918C38.5742 10.3906 38.4798 9.9349 38.291 9.55078C38.1022 9.16667 37.806 8.87044 37.4023 8.66211C36.9987 8.45378 36.4779 8.34961 35.8398 8.34961H33.1543L33.1738 6.83594H36.8457L37.2461 7.38281C37.9297 7.44141 38.5091 7.63672 38.9844 7.96875C39.4596 8.29427 39.821 8.71094 40.0684 9.21875C40.3223 9.72656 40.4492 10.2865 40.4492 10.8984C40.4492 11.7839 40.2539 12.5326 39.8633 13.1445C39.4792 13.75 38.9355 14.2122 38.2324 14.5312C37.5293 14.8438 36.7025 15 35.752 15ZM48.4766 9.42383H44.6777V7.89062H48.4766C49.2122 7.89062 49.8079 7.77344 50.2637 7.53906C50.7194 7.30469 51.0514 6.97917 51.2598 6.5625C51.4746 6.14583 51.582 5.67057 51.582 5.13672C51.582 4.64844 51.4746 4.18945 51.2598 3.75977C51.0514 3.33008 50.7194 2.98503 50.2637 2.72461C49.8079 2.45768 49.2122 2.32422 48.4766 2.32422H45.1172V15H43.2324V0.78125H48.4766C49.5508 0.78125 50.459 0.966797 51.2012 1.33789C51.9434 1.70898 52.5065 2.22331 52.8906 2.88086C53.2747 3.5319 53.4668 4.27734 53.4668 5.11719C53.4668 6.02865 53.2747 6.80664 52.8906 7.45117C52.5065 8.0957 51.9434 8.58724 51.2012 8.92578C50.459 9.25781 49.5508 9.42383 48.4766 9.42383ZM59.7656 2.04102L55.0586 15H53.1348L58.5547 0.78125H59.7949L59.7656 2.04102ZM63.7109 15L58.9941 2.04102L58.9648 0.78125H60.2051L65.6445 15H63.7109ZM63.4668 9.73633V11.2793H55.4785V9.73633H63.4668ZM77.9395 7.91992V13.125C77.7637 13.3854 77.4837 13.6784 77.0996 14.0039C76.7155 14.3229 76.1849 14.6029 75.5078 14.8438C74.8372 15.0781 73.9714 15.1953 72.9102 15.1953C72.0443 15.1953 71.2467 15.0456 70.5176 14.7461C69.7949 14.4401 69.1667 13.9974 68.6328 13.418C68.1055 12.832 67.6953 12.1224 67.4023 11.2891C67.1159 10.4492 66.9727 9.4987 66.9727 8.4375V7.33398C66.9727 6.27279 67.0964 5.32552 67.3438 4.49219C67.5977 3.65885 67.9688 2.95247 68.457 2.37305C68.9453 1.78711 69.5443 1.3444 70.2539 1.04492C70.9635 0.738932 71.7773 0.585938 72.6953 0.585938C73.7826 0.585938 74.6908 0.77474 75.4199 1.15234C76.1556 1.52344 76.7285 2.03776 77.1387 2.69531C77.5553 3.35286 77.8223 4.10156 77.9395 4.94141H76.0547C75.9701 4.42708 75.8008 3.95833 75.5469 3.53516C75.2995 3.11198 74.9447 2.77344 74.4824 2.51953C74.0202 2.25911 73.4245 2.12891 72.6953 2.12891C72.0378 2.12891 71.4681 2.24935 70.9863 2.49023C70.5046 2.73112 70.1074 3.07617 69.7949 3.52539C69.4824 3.97461 69.248 4.51823 69.0918 5.15625C68.9421 5.79427 68.8672 6.51367 68.8672 7.31445V8.4375C68.8672 9.25781 68.9616 9.99023 69.1504 10.6348C69.3457 11.2793 69.6224 11.8294 69.9805 12.2852C70.3385 12.7344 70.765 13.0762 71.2598 13.3105C71.7611 13.5449 72.3145 13.6621 72.9199 13.6621C73.5905 13.6621 74.1341 13.6068 74.5508 13.4961C74.9674 13.3789 75.293 13.2422 75.5273 13.0859C75.7617 12.9232 75.9408 12.7702 76.0645 12.627V9.44336H72.7734V7.91992H77.9395ZM90.0977 13.4668V15H82.5684V13.4668H90.0977ZM82.9492 0.78125V15H81.0645V0.78125H82.9492ZM89.1016 6.89453V8.42773H82.5684V6.89453H89.1016ZM90 0.78125V2.32422H82.5684V0.78125H90ZM101.24 15H98.2715L98.291 13.4668H101.24C102.256 13.4668 103.102 13.2552 103.779 12.832C104.456 12.4023 104.964 11.8034 105.303 11.0352C105.648 10.2604 105.82 9.35547 105.82 8.32031V7.45117C105.82 6.63737 105.723 5.91471 105.527 5.2832C105.332 4.64518 105.046 4.10807 104.668 3.67188C104.29 3.22917 103.828 2.89388 103.281 2.66602C102.741 2.43815 102.119 2.32422 101.416 2.32422H98.2129V0.78125H101.416C102.347 0.78125 103.197 0.9375 103.965 1.25C104.733 1.55599 105.394 2.00195 105.947 2.58789C106.507 3.16732 106.937 3.87044 107.236 4.69727C107.536 5.51758 107.686 6.44206 107.686 7.4707V8.32031C107.686 9.34896 107.536 10.2767 107.236 11.1035C106.937 11.9238 106.504 12.6237 105.938 13.2031C105.378 13.7826 104.701 14.2285 103.906 14.541C103.118 14.847 102.23 15 101.24 15ZM99.2773 0.78125V15H97.3926V0.78125H99.2773ZM119.551 13.4668V15H112.021V13.4668H119.551ZM112.402 0.78125V15H110.518V0.78125H112.402ZM118.555 6.89453V8.42773H112.021V6.89453H118.555ZM119.453 0.78125V2.32422H112.021V0.78125H119.453ZM126.475 12.8418L130.664 0.78125H132.705L127.441 15H125.986L126.475 12.8418ZM122.559 0.78125L126.709 12.8418L127.227 15H125.771L120.518 0.78125H122.559ZM143.652 13.4668V15H136.123V13.4668H143.652ZM136.504 0.78125V15H134.619V0.78125H136.504ZM142.656 6.89453V8.42773H136.123V6.89453H142.656ZM143.555 0.78125V2.32422H136.123V0.78125H143.555ZM154.609 13.4668V15H147.5V13.4668H154.609ZM147.871 0.78125V15H145.986V0.78125H147.871ZM167.07 7.44141V8.33984C167.07 9.40755 166.937 10.3646 166.67 11.2109C166.403 12.0573 166.019 12.7767 165.518 13.3691C165.016 13.9616 164.414 14.4141 163.711 14.7266C163.014 15.0391 162.233 15.1953 161.367 15.1953C160.527 15.1953 159.756 15.0391 159.053 14.7266C158.356 14.4141 157.751 13.9616 157.236 13.3691C156.729 12.7767 156.335 12.0573 156.055 11.2109C155.775 10.3646 155.635 9.40755 155.635 8.33984V7.44141C155.635 6.3737 155.771 5.41992 156.045 4.58008C156.325 3.73372 156.719 3.01432 157.227 2.42188C157.734 1.82292 158.337 1.36719 159.033 1.05469C159.736 0.742188 160.508 0.585938 161.348 0.585938C162.214 0.585938 162.995 0.742188 163.691 1.05469C164.395 1.36719 164.997 1.82292 165.498 2.42188C166.006 3.01432 166.393 3.73372 166.66 4.58008C166.934 5.41992 167.07 6.3737 167.07 7.44141ZM165.205 8.33984V7.42188C165.205 6.57552 165.117 5.82682 164.941 5.17578C164.772 4.52474 164.521 3.97786 164.189 3.53516C163.857 3.09245 163.451 2.75716 162.969 2.5293C162.493 2.30143 161.953 2.1875 161.348 2.1875C160.762 2.1875 160.231 2.30143 159.756 2.5293C159.287 2.75716 158.883 3.09245 158.545 3.53516C158.213 3.97786 157.956 4.52474 157.773 5.17578C157.591 5.82682 157.5 6.57552 157.5 7.42188V8.33984C157.5 9.19271 157.591 9.94792 157.773 10.6055C157.956 11.2565 158.216 11.8066 158.555 12.2559C158.9 12.6986 159.307 13.0339 159.775 13.2617C160.251 13.4896 160.781 13.6035 161.367 13.6035C161.979 13.6035 162.523 13.4896 162.998 13.2617C163.473 13.0339 163.874 12.6986 164.199 12.2559C164.531 11.8066 164.782 11.2565 164.951 10.6055C165.12 9.94792 165.205 9.19271 165.205 8.33984ZM175.137 9.42383H171.338V7.89062H175.137C175.872 7.89062 176.468 7.77344 176.924 7.53906C177.38 7.30469 177.712 6.97917 177.92 6.5625C178.135 6.14583 178.242 5.67057 178.242 5.13672C178.242 4.64844 178.135 4.18945 177.92 3.75977C177.712 3.33008 177.38 2.98503 176.924 2.72461C176.468 2.45768 175.872 2.32422 175.137 2.32422H171.777V15H169.893V0.78125H175.137C176.211 0.78125 177.119 0.966797 177.861 1.33789C178.604 1.70898 179.167 2.22331 179.551 2.88086C179.935 3.5319 180.127 4.27734 180.127 5.11719C180.127 6.02865 179.935 6.80664 179.551 7.45117C179.167 8.0957 178.604 8.58724 177.861 8.92578C177.119 9.25781 176.211 9.42383 175.137 9.42383ZM191.543 13.4668V15H184.014V13.4668H191.543ZM184.395 0.78125V15H182.51V0.78125H184.395ZM190.547 6.89453V8.42773H184.014V6.89453H190.547ZM191.445 0.78125V2.32422H184.014V0.78125H191.445ZM193.877 0.78125H198.584C199.652 0.78125 200.553 0.94401 201.289 1.26953C202.031 1.59505 202.594 2.07682 202.979 2.71484C203.369 3.34635 203.564 4.12435 203.564 5.04883C203.564 5.69987 203.431 6.29557 203.164 6.83594C202.904 7.36979 202.526 7.82552 202.031 8.20312C201.543 8.57422 200.957 8.85091 200.273 9.0332L199.746 9.23828H195.322L195.303 7.70508H198.643C199.32 7.70508 199.883 7.58789 200.332 7.35352C200.781 7.11263 201.12 6.79036 201.348 6.38672C201.576 5.98307 201.689 5.53711 201.689 5.04883C201.689 4.50195 201.582 4.02344 201.367 3.61328C201.152 3.20312 200.814 2.88737 200.352 2.66602C199.896 2.43815 199.307 2.32422 198.584 2.32422H195.762V15H193.877V0.78125ZM202.188 15L198.73 8.55469L200.693 8.54492L204.199 14.8828V15H202.188ZM213.779 11.4062C213.779 11.0742 213.727 10.7812 213.623 10.5273C213.525 10.2669 213.35 10.0326 213.096 9.82422C212.848 9.61589 212.503 9.41732 212.061 9.22852C211.624 9.03971 211.071 8.84766 210.4 8.65234C209.697 8.44401 209.062 8.21289 208.496 7.95898C207.93 7.69857 207.445 7.40234 207.041 7.07031C206.637 6.73828 206.328 6.35742 206.113 5.92773C205.898 5.49805 205.791 5.00651 205.791 4.45312C205.791 3.89974 205.905 3.38867 206.133 2.91992C206.361 2.45117 206.686 2.04427 207.109 1.69922C207.539 1.34766 208.05 1.07422 208.643 0.878906C209.235 0.683594 209.896 0.585938 210.625 0.585938C211.693 0.585938 212.598 0.791016 213.34 1.20117C214.089 1.60482 214.658 2.13542 215.049 2.79297C215.439 3.44401 215.635 4.14062 215.635 4.88281H213.76C213.76 4.34896 213.646 3.87695 213.418 3.4668C213.19 3.05013 212.845 2.72461 212.383 2.49023C211.921 2.24935 211.335 2.12891 210.625 2.12891C209.954 2.12891 209.401 2.22982 208.965 2.43164C208.529 2.63346 208.203 2.9069 207.988 3.25195C207.78 3.59701 207.676 3.99089 207.676 4.43359C207.676 4.73307 207.738 5.00651 207.861 5.25391C207.992 5.49479 208.19 5.7194 208.457 5.92773C208.73 6.13607 209.076 6.32812 209.492 6.50391C209.915 6.67969 210.42 6.84896 211.006 7.01172C211.813 7.23958 212.51 7.49349 213.096 7.77344C213.682 8.05339 214.163 8.36914 214.541 8.7207C214.925 9.06576 215.208 9.45964 215.391 9.90234C215.579 10.3385 215.674 10.8333 215.674 11.3867C215.674 11.9661 215.557 12.4902 215.322 12.959C215.088 13.4277 214.753 13.8281 214.316 14.1602C213.88 14.4922 213.356 14.7493 212.744 14.9316C212.139 15.1074 211.462 15.1953 210.713 15.1953C210.055 15.1953 209.408 15.1042 208.77 14.9219C208.138 14.7396 207.562 14.4661 207.041 14.1016C206.527 13.737 206.113 13.2878 205.801 12.7539C205.495 12.2135 205.342 11.5885 205.342 10.8789H207.217C207.217 11.3672 207.311 11.7871 207.5 12.1387C207.689 12.4837 207.946 12.7702 208.271 12.998C208.604 13.2259 208.978 13.3952 209.395 13.5059C209.818 13.61 210.257 13.6621 210.713 13.6621C211.37 13.6621 211.927 13.571 212.383 13.3887C212.839 13.2064 213.184 12.946 213.418 12.6074C213.659 12.2689 213.779 11.8685 213.779 11.4062Z" fill="#3F4145"/>
</svg>
